<svg width="204" height="185" viewBox="0 0 204 185" fill="none" xmlns="http://www.w3.org/2000/svg">
<g style="mix-blend-mode:multiply">
<path d="M111.294 0H92.7055C41.772 0 0.351562 41.4204 0.351562 92.3539C0.351562 143.287 41.772 184.708 92.7055 184.708H111.294C162.228 184.708 203.648 143.287 203.648 92.3539C203.648 41.4204 162.228 0 111.294 0ZM111.294 182.521C108.145 182.521 105.083 182.368 102.153 182.04L101.825 181.996C55.812 177.207 21.1492 138.717 21.1492 92.332C21.1492 45.9473 55.812 7.45742 101.825 2.68992L102.131 2.66805C105.04 2.36188 108.101 2.18693 111.272 2.18693C160.981 2.18693 201.439 42.6451 201.439 92.3539C201.439 142.063 160.981 182.521 111.272 182.521H111.294Z" fill="#1D1D1B"/>
<path d="M109.109 58.085C112.193 58.085 114.905 56.9478 117.157 54.6952C119.41 52.4646 120.569 49.7528 120.569 46.6473C120.569 43.5419 119.432 40.8301 117.157 38.5995C114.905 36.3469 112.193 35.2097 109.109 35.2097C106.026 35.2097 103.314 36.3469 101.062 38.6213C98.8091 40.8739 97.6719 43.5638 97.6719 46.6692C97.6719 49.7746 98.8091 52.4646 101.062 54.6952C103.314 56.9478 106.026 58.1068 109.109 58.1068V58.085Z" fill="#1D1D1B"/>
<path d="M121.026 142.216C119.43 140.773 118.621 137.973 118.621 133.884V73.4371L117.177 73.9401C112.913 75.4054 107.38 76.1271 100.71 76.1271C97.4292 76.1271 94.0832 75.974 90.7809 75.6459L89.5781 75.5366V81.2226H90.6716C94.8267 81.2226 97.7354 82.2286 99.3537 84.2405C101.016 86.2744 101.869 89.7079 101.869 94.3879V133.884C101.869 137.973 101.059 140.773 99.463 142.216C97.8447 143.703 94.8924 144.447 90.6716 144.447H89.5781V150.089L90.7153 150.045C100.556 149.608 107.139 149.389 110.245 149.389C113.35 149.389 119.933 149.608 129.796 150.045L130.933 150.089V144.447H129.839C125.597 144.447 122.644 143.703 121.026 142.216Z" fill="#1D1D1B"/>
</g>
</svg>
