<svg width="200" height="200" viewBox="0 0 200 200" fill="none" xmlns="http://www.w3.org/2000/svg">
<path d="M100 200C93.22 200 86.43 199.32 79.85 197.97C73.43 196.66 67.11 194.7 61.08 192.14C55.15 189.63 49.44 186.53 44.09 182.92C38.79 179.34 33.82 175.23 29.29 170.71C24.76 166.18 20.66 161.21 17.08 155.91C13.47 150.56 10.37 144.85 7.86 138.92C5.31 132.88 3.35 126.57 2.03 120.15C0.68 113.56 0 106.78 0 100C0 93.22 0.68 86.43 2.03 79.85C3.34 73.43 5.3 67.11 7.86 61.08C10.37 55.15 13.47 49.44 17.08 44.09C20.66 38.79 24.77 33.82 29.29 29.29C33.82 24.76 38.79 20.66 44.09 17.08C49.44 13.47 55.15 10.37 61.08 7.86C67.12 5.31 73.43 3.35 79.85 2.03C86.44 0.68 93.22 0 100 0C106.78 0 113.57 0.68 120.15 2.03C126.57 3.34 132.89 5.3 138.92 7.86C144.85 10.37 150.56 13.47 155.91 17.08C161.21 20.66 166.18 24.77 170.71 29.29C175.24 33.82 179.34 38.79 182.92 44.09C186.53 49.44 189.63 55.15 192.14 61.08C194.69 67.12 196.65 73.43 197.97 79.85C199.32 86.44 200 93.22 200 100C200 106.78 199.32 113.57 197.97 120.15C196.66 126.57 194.7 132.89 192.14 138.92C189.63 144.85 186.53 150.56 182.92 155.91C179.34 161.21 175.23 166.18 170.71 170.71C166.18 175.24 161.21 179.34 155.91 182.92C150.56 186.53 144.85 189.63 138.92 192.14C132.88 194.69 126.57 196.65 120.15 197.97C113.56 199.32 106.78 200 100 200ZM100 0.94C93.28 0.94 86.56 1.62 80.04 2.95C73.68 4.25 67.42 6.19 61.45 8.72C55.58 11.2 49.92 14.28 44.62 17.85C39.37 21.39 34.44 25.46 29.96 29.95C25.48 34.43 21.41 39.37 17.86 44.61C14.28 49.91 11.21 55.57 8.73 61.44C6.2 67.42 4.26 73.67 2.96 80.03C1.62 86.56 0.95 93.27 0.95 99.99C0.95 106.71 1.63 113.43 2.96 119.95C4.26 126.31 6.2 132.57 8.73 138.54C11.21 144.41 14.29 150.07 17.86 155.37C21.4 160.62 25.47 165.55 29.96 170.03C34.44 174.51 39.38 178.58 44.62 182.13C49.92 185.71 55.58 188.78 61.45 191.26C67.43 193.79 73.68 195.73 80.04 197.03C86.57 198.37 93.28 199.04 100 199.04C106.72 199.04 113.44 198.36 119.96 197.03C126.32 195.73 132.58 193.79 138.55 191.26C144.42 188.78 150.08 185.7 155.38 182.13C160.63 178.59 165.56 174.52 170.04 170.03C174.52 165.54 178.59 160.61 182.14 155.37C185.72 150.07 188.79 144.41 191.27 138.54C193.8 132.56 195.74 126.31 197.04 119.95C198.38 113.42 199.05 106.71 199.05 99.99C199.05 93.27 198.37 86.55 197.04 80.03C195.74 73.67 193.8 67.41 191.27 61.44C188.79 55.57 185.71 49.91 182.14 44.61C178.6 39.36 174.53 34.43 170.04 29.95C165.56 25.47 160.62 21.4 155.38 17.85C150.08 14.27 144.42 11.2 138.55 8.72C132.57 6.19 126.32 4.25 119.96 2.95C113.43 1.61 106.72 0.94 100 0.94Z" fill="#231F20"/>
<path d="M99.9987 0.469971C45.0287 0.469971 0.46875 45.03 0.46875 100C0.46875 154.97 45.0287 199.53 99.9987 199.53C154.969 199.53 199.529 154.97 199.529 100C199.529 45.03 154.969 0.469971 99.9987 0.469971ZM100.089 191.76C49.4787 191.76 8.45875 150.74 8.45875 100.13C8.45875 49.52 49.4787 8.49997 100.089 8.49997C150.699 8.49997 191.719 49.52 191.719 100.13C191.719 150.74 150.699 191.76 100.089 191.76Z" fill="#231F20"/>
<path d="M100.088 192.23C93.8383 192.23 87.5983 191.6 81.5283 190.36C75.6183 189.15 69.7983 187.34 64.2383 184.99C58.7783 182.68 53.5183 179.82 48.5983 176.5C43.7183 173.21 39.1383 169.42 34.9683 165.25C30.7983 161.08 27.0183 156.5 23.7183 151.62C20.3883 146.7 17.5383 141.43 15.2283 135.98C12.8783 130.42 11.0683 124.6 9.85828 118.69C8.61828 112.62 7.98828 106.38 7.98828 100.13C7.98828 93.88 8.61828 87.64 9.85828 81.57C11.0683 75.66 12.8783 69.84 15.2283 64.28C17.5383 58.82 20.3983 53.56 23.7183 48.64C27.0083 43.76 30.7983 39.18 34.9683 35.01C39.1383 30.84 43.7183 27.06 48.5983 23.76C53.5183 20.43 58.7883 17.58 64.2383 15.27C69.7983 12.92 75.6183 11.11 81.5283 9.90003C87.5983 8.66003 93.8383 8.03003 100.088 8.03003C106.338 8.03003 112.578 8.66003 118.648 9.90003C124.558 11.11 130.378 12.92 135.938 15.27C141.398 17.58 146.658 20.44 151.578 23.76C156.458 27.05 161.038 30.84 165.208 35.01C169.378 39.18 173.158 43.76 176.458 48.64C179.788 53.56 182.638 58.83 184.948 64.28C187.298 69.84 189.108 75.66 190.318 81.57C191.558 87.64 192.188 93.88 192.188 100.13C192.188 106.38 191.558 112.62 190.318 118.69C189.108 124.6 187.298 130.42 184.948 135.98C182.638 141.44 179.778 146.7 176.458 151.62C173.168 156.5 169.378 161.08 165.208 165.25C161.038 169.42 156.458 173.2 151.578 176.5C146.658 179.83 141.388 182.68 135.938 184.99C130.378 187.34 124.558 189.15 118.648 190.36C112.578 191.6 106.338 192.23 100.088 192.23ZM100.088 8.97003C93.8983 8.97003 87.7183 9.59003 81.7183 10.82C75.8683 12.02 70.1083 13.8 64.6083 16.13C59.2083 18.41 53.9983 21.24 49.1283 24.53C44.2983 27.79 39.7583 31.54 35.6383 35.66C31.5083 39.79 27.7683 44.32 24.5083 49.15C21.2183 54.02 18.3883 59.23 16.1083 64.63C13.7783 70.13 11.9983 75.89 10.7983 81.74C9.56828 87.75 8.94828 93.93 8.94828 100.11C8.94828 106.29 9.56828 112.48 10.7983 118.48C11.9983 124.33 13.7783 130.09 16.1083 135.59C18.3883 140.99 21.2183 146.2 24.5083 151.07C27.7683 155.9 31.5183 160.44 35.6383 164.56C39.7683 168.69 44.2983 172.43 49.1283 175.69C53.9983 178.98 59.2083 181.81 64.6083 184.1C70.1083 186.43 75.8683 188.21 81.7183 189.41C87.7283 190.64 93.9083 191.26 100.088 191.26C106.268 191.26 112.458 190.64 118.458 189.41C124.308 188.21 130.068 186.43 135.568 184.1C140.968 181.82 146.178 178.99 151.048 175.69C155.878 172.43 160.418 168.68 164.538 164.56C168.668 160.43 172.408 155.9 175.668 151.07C178.958 146.2 181.788 140.99 184.078 135.59C186.408 130.09 188.188 124.33 189.388 118.48C190.618 112.47 191.238 106.29 191.238 100.11C191.238 93.93 190.618 87.74 189.388 81.74C188.188 75.89 186.408 70.13 184.078 64.63C181.798 59.23 178.968 54.02 175.668 49.15C172.408 44.32 168.658 39.78 164.538 35.66C160.408 31.53 155.878 27.79 151.048 24.53C146.178 21.24 140.968 18.41 135.568 16.13C130.068 13.8 124.308 12.02 118.458 10.82C112.448 9.59003 106.268 8.97003 100.088 8.97003Z" fill="#231F20"/>
<path d="M100.693 187.32H99.3125V191.6H100.693V187.32Z" fill="#231F20"/>
<path d="M100.244 100.13C100.244 100.13 100.234 100.16 100.214 100.16C100.194 100.16 100.184 100.15 100.184 100.13C100.184 100.11 100.194 100.1 100.214 100.1C100.234 100.1 100.244 100.11 100.244 100.13Z" fill="#231F20"/>
<path d="M90.1896 186.768L89.7422 191.024L91.1146 191.169L91.562 186.912L90.1896 186.768Z" fill="#231F20"/>
<path d="M100.241 100.15C100.241 100.15 100.231 100.17 100.211 100.17C100.201 100.17 100.191 100.16 100.191 100.14C100.191 100.13 100.201 100.12 100.221 100.12C100.231 100.12 100.241 100.13 100.241 100.15Z" fill="#231F20"/>
<path d="M81.1906 185.266L80.3008 189.452L81.6506 189.739L82.5405 185.553L81.1906 185.266Z" fill="#231F20"/>
<path d="M100.234 100.18C100.234 100.18 100.214 100.2 100.204 100.2C100.194 100.2 100.184 100.18 100.184 100.17C100.184 100.16 100.204 100.15 100.214 100.15C100.224 100.15 100.234 100.17 100.234 100.18Z" fill="#231F20"/>
<path d="M72.3968 182.827L71.0742 186.898L72.3867 187.324L73.7093 183.254L72.3968 182.827Z" fill="#231F20"/>
<path d="M100.222 100.2C100.222 100.2 100.202 100.22 100.192 100.22C100.182 100.22 100.172 100.2 100.172 100.19C100.172 100.18 100.192 100.17 100.202 100.17C100.212 100.17 100.222 100.19 100.222 100.2Z" fill="#231F20"/>
<path d="M63.9049 179.494L62.1641 183.404L63.4248 183.966L65.1656 180.056L63.9049 179.494Z" fill="#231F20"/>
<path d="M100.212 100.22C100.212 100.22 100.192 100.24 100.182 100.23C100.172 100.22 100.162 100.21 100.172 100.2C100.172 100.19 100.192 100.18 100.202 100.19C100.212 100.19 100.222 100.21 100.212 100.22Z" fill="#231F20"/>
<path d="M54.8502 179.68L53.6602 178.99L58.9102 169.78L60.1102 170.47L54.8502 179.68Z" fill="#231F20"/>
<path d="M100.2 100.25C100.2 100.25 100.18 100.27 100.16 100.25C100.15 100.25 100.14 100.23 100.16 100.21C100.16 100.2 100.18 100.19 100.2 100.21C100.21 100.21 100.22 100.23 100.2 100.25Z" fill="#231F20"/>
<path d="M48.1876 170.249L45.6719 173.712L46.7883 174.523L49.304 171.06L48.1876 170.249Z" fill="#231F20"/>
<path d="M100.18 100.27C100.18 100.27 100.16 100.28 100.14 100.27C100.13 100.27 100.13 100.25 100.14 100.23C100.14 100.22 100.16 100.22 100.18 100.23C100.19 100.23 100.19 100.25 100.18 100.27Z" fill="#231F20"/>
<path d="M41.1295 164.446L38.2656 167.627L39.2912 168.55L42.155 165.37L41.1295 164.446Z" fill="#231F20"/>
<path d="M100.161 100.28C100.161 100.28 100.131 100.29 100.121 100.28C100.111 100.28 100.111 100.25 100.121 100.24C100.121 100.23 100.151 100.23 100.161 100.24C100.171 100.24 100.171 100.27 100.161 100.28Z" fill="#231F20"/>
<path d="M34.7275 157.944L31.5469 160.808L32.4703 161.833L35.6509 158.969L34.7275 157.944Z" fill="#231F20"/>
<path d="M100.142 100.3C100.142 100.3 100.112 100.3 100.102 100.3C100.102 100.29 100.102 100.27 100.102 100.26C100.112 100.26 100.132 100.26 100.142 100.26C100.142 100.27 100.142 100.29 100.142 100.3Z" fill="#231F20"/>
<path d="M29.0329 150.808L25.5703 153.324L26.3815 154.441L29.8441 151.925L29.0329 150.808Z" fill="#231F20"/>
<path d="M100.122 100.31C100.122 100.31 100.092 100.31 100.082 100.31C100.082 100.3 100.082 100.28 100.082 100.27C100.092 100.27 100.112 100.27 100.122 100.27C100.122 100.28 100.122 100.3 100.122 100.31Z" fill="#231F20"/>
<path d="M21.1119 146.44L20.4219 145.25L28.8219 140.52L29.5119 141.72L21.1119 146.44Z" fill="#231F20"/>
<path d="M100.103 100.33C100.103 100.33 100.072 100.33 100.062 100.33C100.062 100.32 100.062 100.3 100.062 100.29C100.072 100.29 100.093 100.29 100.103 100.29C100.103 100.3 100.103 100.32 100.103 100.33Z" fill="#231F20"/>
<path d="M20.0428 134.942L16.1328 136.682L16.6941 137.943L20.6041 136.202L20.0428 134.942Z" fill="#231F20"/>
<path d="M100.081 100.33C100.081 100.33 100.051 100.33 100.051 100.32C100.051 100.31 100.051 100.29 100.061 100.29C100.071 100.29 100.091 100.29 100.091 100.3C100.091 100.31 100.091 100.33 100.081 100.33Z" fill="#231F20"/>
<path d="M16.844 126.39L12.7734 127.713L13.1999 129.025L17.2704 127.703L16.844 126.39Z" fill="#231F20"/>
<path d="M100.053 100.34C100.053 100.34 100.023 100.34 100.023 100.32C100.023 100.31 100.023 100.29 100.043 100.29C100.053 100.29 100.073 100.29 100.073 100.31C100.073 100.32 100.073 100.34 100.053 100.34Z" fill="#231F20"/>
<path d="M14.5498 117.557L10.3633 118.447L10.6502 119.797L14.8367 118.907L14.5498 117.557Z" fill="#231F20"/>
<path d="M100.03 100.35C100.03 100.35 100 100.35 100 100.33C100 100.31 100 100.3 100.02 100.3C100.04 100.3 100.05 100.3 100.05 100.32C100.05 100.34 100.05 100.35 100.03 100.35Z" fill="#231F20"/>
<path d="M13.198 108.526L8.94141 108.973L9.08566 110.346L13.3422 109.898L13.198 108.526Z" fill="#231F20"/>
<path d="M100.003 100.35C100.003 100.35 99.9727 100.35 99.9727 100.33C99.9727 100.32 99.9727 100.3 99.9927 100.3C100.003 100.3 100.023 100.3 100.023 100.32C100.023 100.33 100.023 100.35 100.003 100.35Z" fill="#231F20"/>
<path d="M18.3717 99.4099H8.51172V100.79H18.3717V99.4099Z" fill="#231F20"/>
<path d="M99.9714 100.35C99.9714 100.35 99.9414 100.34 99.9414 100.32C99.9414 100.3 99.9514 100.29 99.9714 100.29C99.9914 100.29 100.001 100.3 100.001 100.32C100.001 100.34 99.9914 100.35 99.9714 100.35Z" fill="#231F20"/>
<path d="M9.08175 89.848L8.9375 91.2205L13.1941 91.6678L13.3383 90.2954L9.08175 89.848Z" fill="#231F20"/>
<path d="M99.9536 100.34C99.9536 100.34 99.9336 100.33 99.9336 100.31C99.9336 100.3 99.9436 100.29 99.9636 100.29C99.9736 100.29 99.9836 100.3 99.9836 100.32C99.9836 100.33 99.9736 100.34 99.9536 100.34Z" fill="#231F20"/>
<path d="M10.6619 80.4065L10.375 81.7563L14.5615 82.6462L14.8484 81.2964L10.6619 80.4065Z" fill="#231F20"/>
<path d="M99.9223 100.33C99.9223 100.33 99.9023 100.31 99.9023 100.3C99.9023 100.29 99.9223 100.28 99.9323 100.28C99.9423 100.28 99.9523 100.3 99.9523 100.31C99.9523 100.32 99.9323 100.33 99.9223 100.33Z" fill="#231F20"/>
<path d="M13.2038 71.1683L12.7773 72.4807L16.8479 73.8033L17.2743 72.4908L13.2038 71.1683Z" fill="#231F20"/>
<path d="M99.9028 100.33C99.9028 100.33 99.8828 100.31 99.8828 100.3C99.8828 100.29 99.9028 100.28 99.9128 100.28C99.9228 100.28 99.9328 100.3 99.9328 100.31C99.9328 100.32 99.9128 100.33 99.9028 100.33Z" fill="#231F20"/>
<path d="M16.698 62.2608L16.1367 63.5215L20.0467 65.2623L20.608 64.0016L16.698 62.2608Z" fill="#231F20"/>
<path d="M99.88 100.31C99.88 100.31 99.86 100.29 99.87 100.28C99.88 100.27 99.89 100.26 99.9 100.27C99.91 100.27 99.92 100.29 99.91 100.3C99.9 100.31 99.89 100.32 99.88 100.31Z" fill="#231F20"/>
<path d="M20.4219 54.95L21.1119 53.76L29.4119 58.59L28.7219 59.79L20.4219 54.95Z" fill="#231F20"/>
<path d="M179.58 54.9L178.89 53.7L170.59 58.5299L171.28 59.7299L179.58 54.9Z" fill="#231F20"/>
<path d="M99.8605 100.3C99.8605 100.3 99.8405 100.28 99.8605 100.26C99.8805 100.24 99.8805 100.24 99.9005 100.26C99.9205 100.28 99.9205 100.28 99.9005 100.3C99.9005 100.31 99.8805 100.32 99.8605 100.3Z" fill="#231F20"/>
<path d="M26.3854 45.7627L25.5742 46.8792L29.0368 49.3949L29.848 48.2784L26.3854 45.7627Z" fill="#231F20"/>
<path d="M99.8404 100.28C99.8404 100.28 99.8304 100.26 99.8404 100.24C99.8404 100.23 99.8604 100.23 99.8804 100.24C99.8904 100.24 99.8904 100.26 99.8804 100.28C99.8804 100.29 99.8604 100.29 99.8404 100.28Z" fill="#231F20"/>
<path d="M32.4703 38.3683L31.5469 39.3938L34.7275 42.2577L35.6509 41.2321L32.4703 38.3683Z" fill="#231F20"/>
<path d="M99.8209 100.27C99.8209 100.27 99.8109 100.24 99.8209 100.23C99.8209 100.22 99.8509 100.22 99.8609 100.23C99.8709 100.23 99.8709 100.26 99.8609 100.27C99.8609 100.28 99.8309 100.28 99.8209 100.27Z" fill="#231F20"/>
<path d="M39.2951 31.6462L38.2695 32.5696L41.1334 35.7502L42.159 34.8268L39.2951 31.6462Z" fill="#231F20"/>
<path d="M99.8008 100.25C99.8008 100.25 99.8008 100.22 99.8008 100.21C99.8108 100.21 99.8308 100.21 99.8408 100.21C99.8508 100.21 99.8408 100.24 99.8408 100.25C99.8308 100.25 99.8108 100.25 99.8008 100.25Z" fill="#231F20"/>
<path d="M46.7805 25.6737L45.6641 26.4849L48.1798 29.9475L49.2962 29.1363L46.7805 25.6737Z" fill="#231F20"/>
<path d="M99.793 100.22C99.793 100.22 99.793 100.19 99.793 100.18C99.803 100.18 99.823 100.18 99.833 100.18C99.843 100.18 99.833 100.21 99.833 100.22C99.823 100.22 99.803 100.22 99.793 100.22Z" fill="#231F20"/>
<path d="M53.6602 21.21L54.8502 20.52L59.8802 28.92L58.6902 29.61L53.6602 21.21Z" fill="#231F20"/>
<path d="M99.7812 100.2C99.7812 100.2 99.7812 100.17 99.7812 100.16C99.7912 100.16 99.8113 100.16 99.8213 100.16C99.8213 100.17 99.8213 100.19 99.8213 100.2C99.8113 100.2 99.7912 100.2 99.7812 100.2Z" fill="#231F20"/>
<path d="M63.4208 16.2346L62.1602 16.7959L63.901 20.7059L65.1617 20.1446L63.4208 16.2346Z" fill="#231F20"/>
<path d="M99.7734 100.18C99.7734 100.18 99.7734 100.15 99.7834 100.15C99.7934 100.15 99.8134 100.15 99.8134 100.16C99.8134 100.17 99.8134 100.19 99.8034 100.19C99.7934 100.19 99.7734 100.19 99.7734 100.18Z" fill="#231F20"/>
<path d="M72.3867 12.8717L71.0742 13.2981L72.3968 17.3686L73.7093 16.9422L72.3867 12.8717Z" fill="#231F20"/>
<path d="M99.7617 100.15C99.7617 100.15 99.7617 100.12 99.7817 100.12C99.7917 100.12 99.8117 100.12 99.8117 100.14C99.8117 100.15 99.8117 100.17 99.7917 100.17C99.7817 100.17 99.7617 100.17 99.7617 100.15Z" fill="#231F20"/>
<path d="M81.6545 10.4675L80.3047 10.7544L81.1945 14.9409L82.5444 14.6539L81.6545 10.4675Z" fill="#231F20"/>
<path d="M99.7617 100.13C99.7617 100.13 99.7617 100.1 99.7817 100.1C99.7917 100.1 99.8117 100.1 99.8117 100.12C99.8117 100.14 99.8117 100.15 99.7917 100.15C99.7717 100.15 99.7617 100.15 99.7617 100.13Z" fill="#231F20"/>
<path d="M91.1224 9.0413L89.75 9.18555L90.1974 13.4421L91.5698 13.2979L91.1224 9.0413Z" fill="#231F20"/>
<path d="M99.75 100.1C99.75 100.1 99.75 100.07 99.77 100.07C99.78 100.07 99.8 100.07 99.8 100.09C99.8 100.1 99.8 100.12 99.78 100.12C99.77 100.12 99.75 100.12 99.75 100.1Z" fill="#231F20"/>
<path d="M99.7617 100.08C99.7617 100.08 99.7717 100.05 99.7917 100.05C99.8117 100.05 99.8217 100.06 99.8217 100.08C99.8217 100.1 99.8117 100.11 99.7917 100.11C99.7717 100.11 99.7617 100.1 99.7617 100.08Z" fill="#231F20"/>
<path d="M108.877 9.03348L108.43 13.29L109.802 13.4343L110.25 9.17773L108.877 9.03348Z" fill="#231F20"/>
<path d="M99.7617 100.05C99.7617 100.05 99.7717 100.03 99.7917 100.03C99.8017 100.03 99.8117 100.04 99.8117 100.06C99.8117 100.08 99.8017 100.08 99.7817 100.08C99.7717 100.08 99.7617 100.07 99.7617 100.05Z" fill="#231F20"/>
<path d="M118.347 10.4649L117.457 14.6514L118.807 14.9383L119.697 10.7518L118.347 10.4649Z" fill="#231F20"/>
<path d="M99.7734 100.03C99.7734 100.03 99.7934 100.01 99.8034 100.01C99.8134 100.01 99.8234 100.03 99.8234 100.04C99.8234 100.05 99.8034 100.06 99.7934 100.06C99.7834 100.06 99.7734 100.04 99.7734 100.03Z" fill="#231F20"/>
<path d="M127.619 12.8694L126.297 16.9399L127.609 17.3664L128.932 13.2959L127.619 12.8694Z" fill="#231F20"/>
<path d="M99.7812 100C99.7812 100 99.8012 99.98 99.8112 99.98C99.8212 99.98 99.8313 100 99.8313 100.01C99.8313 100.02 99.8113 100.03 99.8013 100.03C99.7913 100.03 99.7812 100.01 99.7812 100Z" fill="#231F20"/>
<path d="M136.581 16.2438L134.84 20.1538L136.101 20.7151L137.841 16.8051L136.581 16.2438Z" fill="#231F20"/>
<path d="M99.7932 99.9798C99.7932 99.9798 99.8132 99.9598 99.8232 99.9698C99.8332 99.9798 99.8432 99.9898 99.8332 99.9998C99.8332 100.01 99.8132 100.02 99.8032 100.01C99.7932 99.9998 99.7832 99.9898 99.7932 99.9798Z" fill="#231F20"/>
<path d="M145.152 20.52L146.342 21.21L141.282 29.86L140.082 29.17L145.152 20.52Z" fill="#231F20"/>
<path d="M99.8006 99.9598C99.8006 99.9598 99.8206 99.9398 99.8406 99.9598C99.8506 99.9598 99.8606 99.9798 99.8406 99.9998C99.8206 100.02 99.8206 100.02 99.8006 99.9998C99.7906 99.9998 99.7806 99.9798 99.8006 99.9598Z" fill="#231F20"/>
<path d="M153.219 25.678L150.703 29.1406L151.82 29.9518L154.335 26.4892L153.219 25.678Z" fill="#231F20"/>
<path d="M99.82 99.94C99.82 99.94 99.84 99.93 99.86 99.94C99.88 99.95 99.87 99.96 99.86 99.98C99.86 99.99 99.84 99.99 99.82 99.98C99.81 99.98 99.81 99.96 99.82 99.94Z" fill="#231F20"/>
<path d="M160.715 31.6504L157.852 34.8311L158.877 35.7545L161.741 32.5738L160.715 31.6504Z" fill="#231F20"/>
<path d="M99.8434 99.92C99.8434 99.92 99.8734 99.91 99.8834 99.92C99.8934 99.92 99.8934 99.95 99.8834 99.96C99.8834 99.97 99.8534 99.97 99.8434 99.96C99.8334 99.96 99.8334 99.93 99.8434 99.92Z" fill="#231F20"/>
<path d="M167.532 38.3681L164.352 41.2319L165.275 42.2575L168.456 39.3936L167.532 38.3681Z" fill="#231F20"/>
<path d="M99.8633 99.8999C99.8633 99.8999 99.8933 99.8999 99.9033 99.8999C99.9133 99.8999 99.9033 99.9299 99.9033 99.9399C99.9033 99.9499 99.8733 99.9399 99.8633 99.9399C99.8633 99.9299 99.8633 99.9099 99.8633 99.8999Z" fill="#231F20"/>
<path d="M173.619 45.7672L170.156 48.283L170.967 49.3994L174.43 46.8837L173.619 45.7672Z" fill="#231F20"/>
<path d="M99.8828 99.8899C99.8828 99.8899 99.9128 99.8899 99.9228 99.8899C99.9228 99.8999 99.9228 99.9199 99.9228 99.9299C99.9128 99.9299 99.8928 99.9299 99.8828 99.9299C99.8828 99.9199 99.8828 99.8999 99.8828 99.8899Z" fill="#231F20"/>
<path d="M99.9023 99.8799C99.9023 99.8799 99.9323 99.8799 99.9423 99.8799C99.9523 99.8799 99.9423 99.9099 99.9423 99.9199C99.9323 99.9199 99.9123 99.9199 99.9023 99.9199C99.9023 99.9099 99.9023 99.8899 99.9023 99.8799Z" fill="#231F20"/>
<path d="M183.308 62.2611L179.398 64.002L179.96 65.2626L183.87 63.5218L183.308 62.2611Z" fill="#231F20"/>
<path d="M99.9202 99.8699C99.9202 99.8699 99.9501 99.8699 99.9501 99.8799C99.9501 99.8899 99.9502 99.9099 99.9402 99.9099C99.9302 99.9099 99.9102 99.9099 99.9102 99.8999C99.9102 99.8899 99.9102 99.8699 99.9202 99.8699Z" fill="#231F20"/>
<path d="M186.801 71.1725L182.73 72.4951L183.157 73.8076L187.227 72.485L186.801 71.1725Z" fill="#231F20"/>
<path d="M99.9536 99.8599C99.9536 99.8599 99.9836 99.8599 99.9836 99.8799C99.9836 99.8899 99.9836 99.9099 99.9636 99.9099C99.9536 99.9099 99.9336 99.9099 99.9336 99.8899C99.9336 99.8799 99.9336 99.8599 99.9536 99.8599Z" fill="#231F20"/>
<path d="M189.354 80.396L185.168 81.2859L185.455 82.6357L189.641 81.7459L189.354 80.396Z" fill="#231F20"/>
<path d="M99.9731 99.8599C99.9731 99.8599 100.003 99.8599 100.003 99.8799C100.003 99.8999 100.003 99.9099 99.9831 99.9099C99.9631 99.9099 99.9531 99.9099 99.9531 99.8899C99.9531 99.8699 99.9531 99.8599 99.9731 99.8599Z" fill="#231F20"/>
<path d="M190.921 89.8514L186.664 90.2988L186.808 91.6713L191.065 91.2239L190.921 89.8514Z" fill="#231F20"/>
<path d="M100 99.8599C100 99.8599 100.03 99.8599 100.03 99.8799C100.03 99.8899 100.03 99.9099 100.01 99.9099C100 99.9099 99.9805 99.9099 99.9805 99.8899C99.9805 99.8799 99.9805 99.8599 100 99.8599Z" fill="#231F20"/>
<path d="M191.494 99.4099H181.434V100.79H191.494V99.4099Z" fill="#231F20"/>
<path d="M100.03 99.8599C100.03 99.8599 100.06 99.8699 100.06 99.8899C100.06 99.9099 100.05 99.9199 100.03 99.9199C100.01 99.9199 100 99.9099 100 99.8899C100 99.8699 100.01 99.8599 100.03 99.8599Z" fill="#231F20"/>
<path d="M186.808 108.534L186.664 109.907L190.921 110.354L191.065 108.982L186.808 108.534Z" fill="#231F20"/>
<path d="M100.053 99.8599C100.053 99.8599 100.073 99.8699 100.073 99.8899C100.073 99.8999 100.063 99.9099 100.043 99.9099C100.023 99.9099 100.023 99.8999 100.023 99.8799C100.023 99.8699 100.033 99.8599 100.053 99.8599Z" fill="#231F20"/>
<path d="M185.451 117.56L185.164 118.91L189.351 119.8L189.637 118.45L185.451 117.56Z" fill="#231F20"/>
<path d="M100.081 99.8699C100.081 99.8699 100.101 99.8899 100.101 99.8999C100.101 99.9099 100.081 99.9199 100.071 99.9199C100.061 99.9199 100.051 99.8999 100.051 99.8899C100.051 99.8799 100.071 99.8699 100.081 99.8699Z" fill="#231F20"/>
<path d="M183.161 126.39L182.734 127.703L186.805 129.025L187.231 127.713L183.161 126.39Z" fill="#231F20"/>
<path d="M100.1 99.8799C100.1 99.8799 100.12 99.8999 100.12 99.9099C100.12 99.9199 100.1 99.9299 100.09 99.9299C100.08 99.9299 100.07 99.9099 100.07 99.8999C100.07 99.8899 100.09 99.8799 100.1 99.8799Z" fill="#231F20"/>
<path d="M179.956 134.941L179.395 136.202L183.305 137.942L183.866 136.682L179.956 134.941Z" fill="#231F20"/>
<path d="M100.12 99.8899C100.12 99.8899 100.14 99.9099 100.13 99.9199C100.13 99.9299 100.11 99.9399 100.1 99.9299C100.09 99.9299 100.08 99.9099 100.09 99.8999C100.1 99.8899 100.11 99.8799 100.12 99.8899Z" fill="#231F20"/>
<path d="M179.76 145.41L179.07 146.6L170.59 141.6L171.28 140.41L179.76 145.41Z" fill="#231F20"/>
<path d="M100.141 99.9C100.141 99.9 100.161 99.92 100.141 99.94C100.141 99.95 100.121 99.96 100.101 99.94C100.081 99.92 100.081 99.92 100.101 99.9C100.101 99.89 100.121 99.88 100.141 99.9Z" fill="#231F20"/>
<path d="M170.967 150.806L170.156 151.923L173.619 154.438L174.43 153.322L170.967 150.806Z" fill="#231F20"/>
<path d="M100.161 99.9199C100.161 99.9199 100.171 99.9399 100.161 99.9599C100.161 99.9699 100.141 99.9699 100.121 99.9599C100.111 99.9599 100.111 99.9399 100.121 99.9199C100.121 99.9099 100.141 99.9099 100.161 99.9199Z" fill="#231F20"/>
<path d="M165.279 157.943L164.355 158.969L167.536 161.833L168.46 160.807L165.279 157.943Z" fill="#231F20"/>
<path d="M100.18 99.9399C100.18 99.9399 100.19 99.9699 100.18 99.9799C100.18 99.9899 100.15 99.9899 100.14 99.9799C100.13 99.9799 100.13 99.9499 100.14 99.9399C100.14 99.9299 100.17 99.9299 100.18 99.9399Z" fill="#231F20"/>
<path d="M158.869 164.451L157.844 165.375L160.708 168.555L161.733 167.632L158.869 164.451Z" fill="#231F20"/>
<path d="M100.2 99.96C100.2 99.96 100.2 99.99 100.2 100C100.19 100 100.17 100 100.16 100C100.16 99.99 100.16 99.97 100.16 99.96C100.17 99.96 100.19 99.96 100.2 99.96Z" fill="#231F20"/>
<path d="M151.823 170.25L150.707 171.062L153.223 174.524L154.339 173.713L151.823 170.25Z" fill="#231F20"/>
<path d="M100.212 99.98C100.212 99.98 100.212 100.01 100.212 100.02C100.202 100.02 100.182 100.02 100.172 100.02C100.172 100.01 100.172 99.99 100.172 99.98C100.182 99.98 100.202 99.98 100.212 99.98Z" fill="#231F20"/>
<path d="M146.342 178.99L145.152 179.68L140.172 170.92L141.372 170.23L146.342 178.99Z" fill="#231F20"/>
<path d="M100.224 100C100.224 100 100.224 100.03 100.224 100.04C100.214 100.04 100.194 100.04 100.184 100.04C100.184 100.03 100.184 100.01 100.184 100C100.194 100 100.214 100 100.224 100Z" fill="#231F20"/>
<path d="M136.101 179.499L134.84 180.06L136.581 183.97L137.841 183.408L136.101 179.499Z" fill="#231F20"/>
<path d="M100.231 100.03C100.231 100.03 100.231 100.06 100.221 100.06C100.211 100.06 100.191 100.06 100.191 100.05C100.191 100.04 100.191 100.02 100.201 100.02C100.211 100.02 100.231 100.02 100.231 100.03Z" fill="#231F20"/>
<path d="M127.605 182.829L126.293 183.256L127.616 187.326L128.928 186.9L127.605 182.829Z" fill="#231F20"/>
<path d="M100.241 100.05C100.241 100.05 100.241 100.08 100.221 100.08C100.211 100.08 100.191 100.08 100.191 100.06C100.191 100.05 100.191 100.03 100.211 100.03C100.221 100.03 100.241 100.03 100.241 100.05Z" fill="#231F20"/>
<path d="M118.815 185.262L117.465 185.549L118.355 189.735L119.705 189.448L118.815 185.262Z" fill="#231F20"/>
<path d="M100.241 100.08C100.241 100.08 100.241 100.11 100.221 100.11C100.201 100.11 100.191 100.11 100.191 100.09C100.191 100.07 100.191 100.06 100.211 100.06C100.231 100.06 100.241 100.06 100.241 100.08Z" fill="#231F20"/>
<path d="M109.81 186.765L108.438 186.909L108.885 191.166L110.257 191.022L109.81 186.765Z" fill="#231F20"/>
<path d="M100.253 100.1C100.253 100.1 100.253 100.13 100.233 100.13C100.223 100.13 100.203 100.13 100.203 100.11C100.203 100.1 100.203 100.08 100.223 100.08C100.233 100.08 100.253 100.08 100.253 100.1Z" fill="#231F20"/>
<path d="M100.693 181.53H99.3125V191.59H100.693V181.53Z" fill="#231F20"/>
<path d="M100.001 8.40991H98.6211V18.4699H100.001V8.40991Z" fill="#231F20"/>
<path d="M100.244 100.13C100.244 100.13 100.234 100.16 100.214 100.16C100.194 100.16 100.184 100.15 100.184 100.13C100.184 100.11 100.194 100.1 100.214 100.1C100.234 100.1 100.244 100.11 100.244 100.13Z" fill="#231F20"/>
<path d="M90.0809 35.1401V34.2701H91.8509C92.2009 34.2701 92.4609 34.1901 92.6209 34.0301C92.7809 33.8701 92.8709 33.6501 92.8709 33.3801V23.5601C92.8709 23.3701 92.8009 23.2101 92.6509 23.0801C92.5009 22.9501 92.3009 22.8801 92.0609 22.8801H89.7109V22.0801H89.7509C90.8309 21.9401 91.7109 21.7501 92.3809 21.5201C93.0509 21.2901 93.6409 20.9901 94.1509 20.6101H94.1609H94.7009V33.6501C94.7009 33.8301 94.7609 33.9701 94.8909 34.0601C95.0809 34.2001 95.3209 34.2701 95.6009 34.2701H97.6609V35.1401H90.0809Z" fill="black"/>
<path d="M100.219 35.1401V34.5201L103.259 31.0601C104.939 29.2401 105.959 28.0701 106.299 27.6101C106.779 26.9401 107.139 26.2901 107.359 25.6701C107.579 25.0501 107.689 24.4801 107.689 23.9701C107.689 23.1301 107.459 22.4601 106.989 21.9801C106.529 21.5001 105.879 21.2601 105.049 21.2601C104.119 21.2601 103.349 21.4801 102.759 21.9301C102.179 22.3701 101.879 22.8401 101.879 23.3301C101.879 23.4901 101.919 23.6101 101.999 23.7001C102.079 23.7901 102.249 23.8601 102.519 23.9301C103.239 24.1001 103.599 24.5301 103.599 25.2001C103.599 25.5601 103.479 25.8701 103.229 26.1101C102.989 26.3501 102.669 26.4701 102.289 26.4701C101.849 26.4701 101.469 26.2701 101.139 25.8701C100.819 25.4701 100.649 24.9501 100.649 24.3101C100.649 23.6001 100.839 22.9401 101.199 22.3601C101.569 21.7801 102.129 21.2901 102.869 20.9201C103.609 20.5501 104.409 20.3601 105.259 20.3601C106.109 20.3601 106.899 20.5401 107.619 20.9101C108.339 21.2701 108.889 21.7601 109.259 22.3501C109.619 22.9401 109.809 23.6001 109.809 24.2901C109.809 24.7701 109.719 25.2701 109.539 25.7601C109.359 26.2601 109.089 26.7301 108.739 27.1601C108.139 27.9001 107.519 28.5501 106.889 29.0701L104.139 31.3801C103.449 31.9601 102.939 32.4601 102.629 32.8601C102.589 32.9101 102.599 32.9501 102.609 32.9601C102.709 33.1601 103.599 33.4001 107.309 33.4001C107.809 33.4001 108.179 33.2701 108.389 33.0101C108.609 32.7501 108.859 31.9901 109.139 30.7801V30.7501H109.949L109.609 35.1601H100.199L100.219 35.1401Z" fill="black"/>
<path d="M135.71 46.9101V46.0401H137.48C137.83 46.0401 138.09 45.9601 138.25 45.8001C138.41 45.6401 138.5 45.4201 138.5 45.1501V35.3301C138.5 35.1401 138.43 34.9801 138.28 34.8501C138.13 34.7201 137.93 34.6501 137.69 34.6501H135.34V33.8501H135.38C136.46 33.7101 137.34 33.5201 138.01 33.2901C138.68 33.0601 139.27 32.7601 139.78 32.3801H139.79H140.33V45.4201C140.33 45.6001 140.39 45.7401 140.52 45.8301C140.71 45.9701 140.95 46.0401 141.23 46.0401H143.29V46.9101H135.71Z" fill="black"/>
<path d="M159.11 71.9502V71.3302L162.15 67.8702C163.83 66.0502 164.85 64.8802 165.19 64.4202C165.67 63.7502 166.03 63.1002 166.25 62.4802C166.47 61.8602 166.58 61.2902 166.58 60.7802C166.58 59.9402 166.35 59.2702 165.88 58.7902C165.42 58.3102 164.77 58.0702 163.94 58.0702C163.01 58.0702 162.24 58.2902 161.65 58.7402C161.07 59.1802 160.77 59.6502 160.77 60.1402C160.77 60.3002 160.81 60.4202 160.89 60.5102C160.97 60.6002 161.14 60.6702 161.41 60.7402C162.13 60.9102 162.49 61.3402 162.49 62.0102C162.49 62.3702 162.37 62.6802 162.12 62.9202C161.88 63.1602 161.56 63.2802 161.18 63.2802C160.74 63.2802 160.36 63.0802 160.03 62.6802C159.71 62.2802 159.54 61.7602 159.54 61.1202C159.54 60.4102 159.73 59.7502 160.09 59.1702C160.46 58.5902 161.02 58.1002 161.76 57.7302C162.5 57.3602 163.3 57.1702 164.15 57.1702C165 57.1702 165.79 57.3502 166.51 57.7202C167.23 58.0802 167.78 58.5702 168.15 59.1602C168.51 59.7502 168.7 60.4102 168.7 61.1002C168.7 61.5802 168.61 62.0802 168.43 62.5702C168.25 63.0702 167.98 63.5402 167.63 63.9702C167.03 64.7102 166.41 65.3602 165.78 65.8802L163.03 68.1902C162.34 68.7702 161.83 69.2702 161.52 69.6702C161.48 69.7202 161.49 69.7602 161.5 69.7702C161.6 69.9702 162.49 70.2102 166.2 70.2102C166.7 70.2102 167.07 70.0802 167.28 69.8202C167.5 69.5602 167.75 68.8002 168.03 67.5902V67.5602H168.84L168.5 71.9702H159.09L159.11 71.9502Z" fill="black"/>
<path d="M173.733 108.72C172.793 108.72 171.963 108.56 171.283 108.25C170.593 107.94 170.073 107.5 169.723 106.96C169.373 106.42 169.203 105.81 169.203 105.13C169.203 104.57 169.343 104.13 169.623 103.8C169.903 103.47 170.263 103.3 170.693 103.3C171.083 103.3 171.403 103.43 171.643 103.69C171.883 103.95 172.003 104.3 172.003 104.73C172.003 105.01 171.943 105.25 171.813 105.45C171.693 105.65 171.483 105.83 171.183 105.99C170.843 106.17 170.803 106.29 170.803 106.34C170.803 106.52 170.903 106.73 171.093 106.96C171.293 107.2 171.583 107.4 171.973 107.55C172.373 107.7 172.883 107.78 173.493 107.78C174.543 107.78 175.323 107.52 175.823 107.01C176.323 106.5 176.573 105.66 176.573 104.51C176.573 103.3 176.353 102.44 175.933 101.94C175.513 101.45 174.873 101.2 174.033 101.2C173.803 101.2 173.513 101.23 173.163 101.28C172.873 101.32 172.663 101.34 172.533 101.34C172.293 101.34 172.103 101.29 171.973 101.18C171.823 101.07 171.753 100.92 171.753 100.75C171.753 100.56 171.823 100.41 171.963 100.31C172.093 100.21 172.293 100.17 172.563 100.17L173.143 100.19L173.643 100.21C174.483 100.21 175.123 99.9902 175.543 99.5702C175.963 99.1502 176.173 98.4702 176.173 97.5702C176.173 96.4502 175.973 95.6502 175.573 95.1802C175.173 94.7202 174.573 94.4902 173.773 94.4902C173.033 94.4902 172.433 94.6202 171.993 94.8902C171.473 95.2002 171.363 95.4202 171.363 95.5502C171.363 95.6202 171.413 95.7702 171.723 96.0702C172.123 96.4402 172.323 96.8302 172.323 97.2402C172.323 97.5602 172.203 97.8302 171.973 98.0502C171.743 98.2702 171.443 98.3802 171.083 98.3802C170.693 98.3802 170.383 98.2302 170.133 97.9402C169.893 97.6502 169.773 97.2502 169.773 96.7502C169.773 95.9802 170.053 95.3002 170.603 94.7002C171.373 93.8702 172.493 93.4502 173.913 93.4502C175.243 93.4502 176.323 93.8202 177.123 94.5302C177.923 95.2502 178.333 96.1602 178.333 97.2302C178.333 98.0002 178.113 98.6702 177.673 99.2402C177.293 99.7302 176.653 100.18 175.793 100.57C176.633 100.82 177.313 101.21 177.813 101.72C178.543 102.46 178.913 103.38 178.913 104.47C178.913 105.7 178.473 106.7 177.593 107.44C176.613 108.29 175.313 108.72 173.743 108.72H173.733Z" fill="black"/>
<path d="M162.2 144.28V143.41H163.32C163.67 143.41 163.93 143.34 164.09 143.19C164.25 143.05 164.33 142.83 164.33 142.56V140.57H158.43V139.52L165.44 129.75H166.18V139.6H168.58V140.57H166.18V142.75C166.18 142.93 166.25 143.07 166.39 143.18C166.6 143.33 166.85 143.41 167.13 143.41H168.06V144.28H162.19H162.2ZM164.33 139.6V132.73L159.42 139.6H164.33Z" fill="black"/>
<path d="M135.791 170.72C134.581 170.72 133.591 170.37 132.831 169.68C132.071 168.99 131.691 168.16 131.691 167.21C131.691 166.63 131.811 166.18 132.061 165.87C132.311 165.55 132.631 165.39 133.021 165.39C133.411 165.39 133.711 165.52 133.951 165.77C134.191 166.02 134.311 166.36 134.311 166.76C134.311 167.07 134.251 167.31 134.131 167.48C134.011 167.65 133.791 167.8 133.481 167.91C133.191 168.02 133.051 168.14 133.051 168.28C133.051 168.49 133.151 168.73 133.351 168.99C133.551 169.25 133.861 169.47 134.271 169.63C134.681 169.8 135.161 169.88 135.701 169.88C136.741 169.88 137.551 169.55 138.101 168.91C138.651 168.26 138.931 167.19 138.931 165.72C138.931 164.38 138.641 163.39 138.061 162.78C137.481 162.17 136.731 161.86 135.831 161.86C135.421 161.86 135.011 161.94 134.591 162.09C134.181 162.24 133.771 162.46 133.371 162.76C133.321 163.25 133.231 163.57 133.101 163.74C132.971 163.91 132.791 164 132.591 164C132.441 164 132.321 163.95 132.221 163.84C132.131 163.74 132.081 163.59 132.081 163.41C132.081 163.09 132.231 162.78 132.521 162.47C132.601 162.39 132.651 162.31 132.691 162.25L132.931 159.2C133.021 158 133.081 156.81 133.081 155.68V155.63L133.131 155.64C134.881 156.04 136.321 156.24 137.421 156.24C137.941 156.24 138.431 156.19 138.881 156.09C139.331 155.99 139.671 155.88 139.901 155.75C140.071 155.66 140.121 155.65 140.151 155.65C140.201 155.65 140.301 155.68 140.301 155.85C140.301 156.11 140.141 156.43 139.821 156.84C139.501 157.24 139.071 157.57 138.531 157.81C137.991 158.05 137.361 158.17 136.651 158.17C135.851 158.17 134.891 158.05 133.781 157.8L133.451 161.66C133.951 161.41 134.441 161.22 134.901 161.1C135.381 160.97 135.841 160.9 136.281 160.9C137.651 160.9 138.811 161.36 139.741 162.27C140.671 163.18 141.141 164.31 141.141 165.64C141.141 167.12 140.641 168.35 139.651 169.31C138.661 170.26 137.361 170.75 135.791 170.75V170.72Z" fill="black"/>
<path d="M99.992 179.66C99.032 179.66 98.162 179.4 97.402 178.89C96.652 178.38 96.022 177.57 95.552 176.48C95.072 175.4 94.832 174.12 94.832 172.67C94.832 171.11 95.132 169.67 95.712 168.4C96.292 167.13 97.052 166.16 97.962 165.52C98.872 164.88 99.832 164.56 100.822 164.56C101.812 164.56 102.722 164.84 103.432 165.4C104.032 165.86 104.332 166.42 104.332 167.06C104.332 167.49 104.192 167.85 103.932 168.13C103.662 168.41 103.332 168.55 102.952 168.55C102.592 168.55 102.282 168.43 102.032 168.19C101.782 167.95 101.652 167.67 101.652 167.35C101.652 167.13 101.742 166.89 101.912 166.62C102.062 166.38 102.132 166.2 102.132 166.07C102.132 165.89 102.042 165.74 101.872 165.63C101.632 165.48 101.292 165.4 100.862 165.4C100.202 165.4 99.592 165.61 99.042 166.03C98.492 166.45 98.022 167.17 97.642 168.19C97.262 169.21 97.062 170.38 97.062 171.65C97.062 171.82 97.062 172.06 97.082 172.38C97.602 171.7 98.162 171.21 98.732 170.91C99.332 170.6 100.002 170.44 100.722 170.44C101.882 170.44 102.872 170.84 103.652 171.62C104.432 172.4 104.832 173.41 104.832 174.61C104.832 176.05 104.362 177.27 103.432 178.22C102.502 179.18 101.342 179.66 99.972 179.66H99.992ZM100.162 171.53C99.312 171.53 98.602 171.84 98.062 172.46C97.522 173.08 97.242 173.96 97.242 175.08C97.242 176.3 97.512 177.24 98.032 177.89C98.552 178.53 99.232 178.85 100.042 178.85C100.852 178.85 101.502 178.54 101.992 177.94C102.482 177.33 102.732 176.41 102.732 175.2C102.732 173.91 102.502 172.97 102.052 172.39C101.602 171.82 100.962 171.53 100.162 171.53Z" fill="black"/>
<path d="M25.0916 109.94C24.0216 109.94 23.1716 109.7 22.5716 109.23C21.9616 108.76 21.6516 108.18 21.6516 107.51C21.6516 107.07 21.7816 106.71 22.0316 106.44C22.2816 106.17 22.6116 106.03 23.0016 106.03C23.3516 106.03 23.6516 106.15 23.9016 106.39C24.1416 106.63 24.2716 106.91 24.2716 107.24C24.2716 107.48 24.1616 107.74 23.9316 108.03C23.8016 108.19 23.7416 108.34 23.7416 108.45C23.7416 108.63 23.8516 108.78 24.0616 108.92C24.2816 109.06 24.6516 109.13 25.1416 109.13C25.8516 109.13 26.4816 108.93 27.0216 108.54C27.5616 108.15 28.0016 107.49 28.3416 106.59C28.6816 105.69 28.8516 104.5 28.8516 103.06L28.8316 102.27C28.3916 102.9 27.8816 103.38 27.3116 103.71C26.7016 104.06 26.0116 104.23 25.2616 104.23C24.2116 104.23 23.2516 103.86 22.3916 103.13C21.5316 102.4 21.1016 101.3 21.1016 99.8801C21.1016 98.4601 21.5816 97.3001 22.5216 96.3201C23.4616 95.3501 24.6116 94.8501 25.9216 94.8501C27.3616 94.8501 28.5816 95.4601 29.5516 96.6601C30.5116 97.8601 31.0016 99.5601 31.0016 101.72C31.0016 103.51 30.7316 105.04 30.2016 106.27C29.6716 107.5 28.9516 108.44 28.0816 109.04C27.2016 109.64 26.2016 109.95 25.1016 109.95L25.0916 109.94ZM25.9616 95.6801C25.2016 95.6801 24.5716 96.0001 24.0816 96.6401C23.5916 97.2801 23.3416 98.2601 23.3416 99.5501C23.3416 100.73 23.5916 101.62 24.0816 102.19C24.5716 102.76 25.2216 103.06 26.0116 103.06C26.8016 103.06 27.4616 102.75 27.9916 102.13C28.5316 101.51 28.8016 100.62 28.8016 99.5001C28.8016 98.3801 28.5216 97.4001 27.9616 96.7101C27.4116 96.0301 26.7316 95.6801 25.9716 95.6801H25.9616Z" fill="black"/>
<path d="M37.223 146.4C35.713 146.4 34.503 146.03 33.623 145.3C32.743 144.57 32.293 143.65 32.293 142.55C32.293 141.73 32.553 141.01 33.053 140.39C33.543 139.8 34.393 139.28 35.583 138.87C33.813 138.08 32.913 136.86 32.913 135.24C32.913 134.17 33.333 133.24 34.163 132.46C34.993 131.69 36.053 131.3 37.323 131.3C38.193 131.3 38.963 131.45 39.603 131.75C40.253 132.05 40.753 132.47 41.093 132.98C41.433 133.5 41.603 134.05 41.603 134.62C41.603 135.91 40.793 137.01 39.193 137.87C40.263 138.27 41.043 138.79 41.533 139.43C42.033 140.08 42.283 140.88 42.283 141.8C42.283 142.92 41.923 143.92 41.203 144.75C40.273 145.83 38.933 146.38 37.223 146.38V146.4ZM36.483 139.22C35.513 139.63 34.833 140.1 34.463 140.61C34.093 141.12 33.903 141.76 33.903 142.5C33.903 143.47 34.193 144.23 34.763 144.77C35.333 145.3 36.163 145.58 37.243 145.58C38.383 145.58 39.273 145.31 39.903 144.77C40.533 144.24 40.843 143.52 40.843 142.64C40.843 141.85 40.573 141.24 40.033 140.83C39.493 140.42 38.293 139.88 36.493 139.23L36.483 139.22ZM37.253 132.11C36.363 132.11 35.653 132.33 35.153 132.76C34.663 133.19 34.403 133.76 34.403 134.45C34.403 135.14 34.623 135.69 35.053 136.1C35.483 136.51 36.573 137.01 38.283 137.57C38.993 137.16 39.473 136.75 39.723 136.36C39.963 135.96 40.093 135.43 40.093 134.78C40.093 133.93 39.853 133.26 39.363 132.8C38.883 132.34 38.173 132.1 37.243 132.1L37.253 132.11Z" fill="black"/>
<path d="M64.0816 170.12C63.7216 170.12 63.4416 170 63.2316 169.75C63.0316 169.51 62.9316 169.12 62.9316 168.61C62.9316 168.16 63.0116 167.58 63.1716 166.91C63.3316 166.23 63.7016 165.21 64.2716 163.87C65.0216 162.07 65.6916 160.64 66.2416 159.61L67.6416 157.03H62.0716C61.6716 157.03 61.3716 157.17 61.1716 157.45C60.9716 157.74 60.7216 158.61 60.4416 160.05V160.08H59.6016L60.3616 155.04H60.4116C61.0816 155.22 61.8216 155.31 62.6116 155.31H69.1316V155.84C68.1816 157.51 67.4716 158.94 67.0016 160.09C66.5316 161.24 66.1716 162.35 65.9316 163.4C65.6916 164.45 65.5316 165.69 65.4516 167.08C65.3816 168.25 65.3116 168.96 65.2516 169.24C65.1916 169.52 65.0516 169.74 64.8516 169.9C64.6516 170.05 64.3916 170.13 64.0816 170.13V170.12Z" fill="black"/>
<path d="M30.8934 74.2502V73.3802H32.6634C33.0134 73.3802 33.2734 73.3002 33.4334 73.1402C33.5934 72.9802 33.6834 72.7602 33.6834 72.4902V62.6702C33.6834 62.4802 33.6134 62.3202 33.4634 62.1902C33.3134 62.0602 33.1134 61.9902 32.8734 61.9902H30.5234V61.1902H30.5634C31.6434 61.0502 32.5234 60.8602 33.1934 60.6302C33.8634 60.4002 34.4534 60.1002 34.9634 59.7202H34.9734H35.5134V72.7602C35.5134 72.9402 35.5734 73.0802 35.7034 73.1702C35.8934 73.3102 36.1334 73.3802 36.4134 73.3802H38.4734V74.2502H30.8934Z" fill="black"/>
<path d="M46.122 74.5402C44.792 74.5402 43.662 73.9902 42.762 72.9102C41.652 71.5502 41.082 69.5702 41.082 67.0202C41.082 64.4702 41.612 62.6302 42.662 61.1902C43.502 60.0302 44.642 59.4402 46.032 59.4402C47.422 59.4402 48.542 59.9802 49.452 61.0402C50.572 62.3402 51.142 64.3402 51.142 66.9702C51.142 69.4202 50.652 71.3102 49.672 72.5902C48.692 73.8802 47.502 74.5302 46.122 74.5302V74.5402ZM46.102 60.2802C45.202 60.2802 44.492 60.7202 43.992 61.5802C43.482 62.4502 43.232 64.2802 43.232 67.0202C43.232 69.7602 43.502 71.5102 44.022 72.4002C44.542 73.2802 45.252 73.7302 46.122 73.7302C46.992 73.7302 47.692 73.3202 48.172 72.5002C48.742 71.5202 49.032 69.7002 49.032 67.0802C49.032 64.4602 48.762 62.5502 48.222 61.6302C47.692 60.7202 46.982 60.2702 46.102 60.2702V60.2802Z" fill="black"/>
<path d="M58.0614 45.3701V44.5001H59.8314C60.1814 44.5001 60.4414 44.4201 60.6014 44.2601C60.7614 44.1001 60.8514 43.8801 60.8514 43.6101V33.7901C60.8514 33.6001 60.7814 33.4401 60.6314 33.3101C60.4814 33.1801 60.2814 33.1101 60.0414 33.1101H57.6914V32.3101H57.7314C58.8114 32.1701 59.6914 31.9801 60.3614 31.7501C61.0314 31.5201 61.6214 31.2201 62.1314 30.8401H62.1414H62.6814V43.8801C62.6814 44.0601 62.7414 44.2001 62.8714 44.2901C63.0614 44.4301 63.3014 44.5001 63.5814 44.5001H65.6414V45.3701H58.0614Z" fill="black"/>
<path d="M68.7411 45.3701V44.5001H70.5111C70.8611 44.5001 71.1211 44.4201 71.2811 44.2601C71.4411 44.1001 71.5311 43.8801 71.5311 43.6101V33.7901C71.5311 33.6001 71.4611 33.4401 71.3111 33.3101C71.1611 33.1801 70.9611 33.1101 70.7211 33.1101H68.3711V32.3101H68.4111C69.4911 32.1701 70.3711 31.9801 71.0411 31.7501C71.7111 31.5201 72.3011 31.2201 72.8111 30.8401H72.8211H73.3611V43.8801C73.3611 44.0601 73.4211 44.2001 73.5511 44.2901C73.7411 44.4301 73.9811 44.5001 74.2611 44.5001H76.3211V45.3701H68.7411Z" fill="black"/>
<path d="M100.659 101.68C101.868 101.68 102.849 100.7 102.849 99.49C102.849 98.2805 101.868 97.3 100.659 97.3C99.4492 97.3 98.4688 98.2805 98.4688 99.49C98.4688 100.7 99.4492 101.68 100.659 101.68Z" fill="#231F20"/>
<path d="M100.73 99.82C100.56 99.82 100.31 99.76 100.07 99.47C99.6702 99 99.3502 98 99.0802 96.41C98.8402 95.01 98.6602 93.21 98.5302 91.08C98.2802 86.91 98.2902 81.94 98.5402 77.47L100.65 40.2C100.67 39.83 100.97 39.54 101.34 39.54C101.7 39.54 102 39.84 102.01 40.21L103.37 77.51C103.53 81.99 103.44 86.95 103.11 91.12C102.94 93.25 102.72 95.05 102.46 96.44C102.16 98.02 101.81 99.02 101.41 99.48C101.16 99.76 100.91 99.82 100.74 99.82H100.73Z" fill="#231F20"/>
<path d="M139.58 100.03C139.65 100.11 139.7 100.22 139.71 100.34C139.73 100.56 139.63 100.74 139.48 100.75L124.04 101.97C116.23 102.59 101.18 102.35 99.2999 100.19C98.9699 99.81 99.1699 99.4 99.8599 98.97C100.28 98.71 101.06 98.34 102.44 98.02C106.12 97.17 112.05 97.14 115.66 97.24C119.59 97.34 123.29 97.64 126.01 98.03L139.4 99.93C139.46 99.93 139.53 99.98 139.58 100.04V100.03Z" fill="#231F20"/>
</svg>
