<svg width="172" height="185" viewBox="0 0 172 185" fill="none" xmlns="http://www.w3.org/2000/svg">
<g style="mix-blend-mode:multiply">
<path d="M127.694 9.13989C127.049 9.13989 126.543 9.63031 126.543 10.2545V57.5132C126.543 58.1374 127.049 58.6278 127.694 58.6278C128.339 58.6278 128.845 58.1374 128.845 57.5132V10.2545C128.845 9.63031 128.339 9.13989 127.694 9.13989Z" fill="#1D1D1B"/>
<path d="M147.814 9.13966H139.733V7.3786C139.733 3.29919 136.326 0 132.136 0H39.3293C35.116 0 31.7086 3.32148 31.7086 7.3786V9.13966H23.6275C11.1259 9.13966 0.972656 18.9704 0.972656 31.0748V66.9647C0.972656 79.0692 11.1259 88.8999 23.6275 88.8999H32.3763C34.3102 98.151 40.6186 105.886 49.5285 109.877V111.504C49.5285 117.634 54.6627 122.605 60.971 122.605H70.0191V132.926C70.0191 136.225 72.7819 138.9 76.1893 138.9H77.3866V148.129H76.7419C73.0352 148.129 70.0191 151.05 70.0191 154.616V165.45H51.6006C46.3283 165.45 42.046 169.596 42.046 174.701V180.14C42.046 182.815 44.3023 185 47.0881 185H124.354C127.117 185 129.373 182.815 129.373 180.14V174.701C129.373 169.596 125.091 165.45 119.818 165.45H101.4V154.616C101.4 151.05 98.3837 148.129 94.7 148.129H94.0553V138.9H95.2525C98.6369 138.9 101.4 136.225 101.4 132.926V122.605H110.471C116.802 122.605 121.936 117.634 121.936 111.504V109.877C130.823 105.886 137.132 98.1733 139.066 88.8999H147.814C160.316 88.8999 170.469 79.0692 170.469 66.9647V31.0748C170.469 18.9704 160.316 9.13966 147.814 9.13966ZM139.733 23.1389H144.453C150.923 23.1389 156.172 28.2215 156.172 34.4632V63.4649C156.172 69.7289 150.923 74.8114 144.453 74.8114H139.733V23.1389ZM23.6275 86.6707C12.4152 86.6707 3.27497 77.8208 3.27497 66.9647V31.0748C3.27497 20.2187 12.4152 11.3688 23.6275 11.3688H31.7086V20.9097H26.7816C19.0458 20.9097 12.7605 26.9954 12.7605 34.4855V63.4649C12.7605 70.9549 19.0458 77.0406 26.7816 77.0406H31.7086V82.948C31.7086 84.2409 31.8007 85.4892 31.9388 86.6707H23.6044H23.6275ZM26.7816 74.8114C20.3121 74.8114 15.0628 69.7289 15.0628 63.4649V34.4855C15.0628 28.2215 20.3121 23.1389 26.7816 23.1389H31.7086V74.8114H26.7816ZM124.354 182.771H47.0881C45.5685 182.771 44.3483 181.589 44.3483 180.14V175.816H127.071V180.14C127.071 181.589 125.85 182.771 124.354 182.771ZM126.955 173.587H44.4634C45.016 170.243 47.986 167.679 51.6006 167.679H119.818C123.433 167.679 126.403 170.243 126.955 173.587ZM99.0974 154.616V165.45H72.3215V154.616C72.3215 152.276 74.3015 150.358 76.7419 150.358H94.7C97.1174 150.358 99.0974 152.276 99.0974 154.616ZM99.0974 132.926C99.0974 134.999 97.3707 136.671 95.2525 136.671H76.1893C74.0482 136.671 72.3215 134.999 72.3215 132.926V122.605H99.0974V132.926ZM119.634 111.504C119.634 116.386 115.513 120.376 110.471 120.376H60.971C55.929 120.376 51.8308 116.386 51.8308 111.504V110.835C55.1922 112.039 58.7378 112.641 62.3755 112.641H109.089C112.75 112.641 116.273 112.039 119.634 110.835V111.504ZM120.325 108.16C116.802 109.654 113.003 110.411 109.089 110.411H62.3755C58.4615 110.411 54.6857 109.654 51.1401 108.16C42.2762 104.46 36.0369 96.7689 34.4483 87.6069C34.1721 86.158 34.0339 84.5975 34.0339 82.9702V7.3786C34.0339 4.54754 36.4283 2.22918 39.3523 2.22918H132.159C135.083 2.22918 137.454 4.54754 137.454 7.3786V82.948C137.454 84.5753 137.316 86.1357 137.04 87.5847C135.451 96.7466 129.212 104.437 120.348 108.138L120.325 108.16ZM168.167 66.9647C168.167 77.8208 159.027 86.6707 147.814 86.6707H139.48C139.641 85.4669 139.733 84.2186 139.733 82.948V77.0406H144.453C152.189 77.0406 158.474 70.9549 158.474 63.4649V34.4632C158.474 26.9954 152.189 20.9097 144.453 20.9097H139.733V11.3688H147.814C159.027 11.3688 168.167 20.2187 168.167 31.0748V66.9647Z" fill="#1D1D1B"/>
<path d="M74.7148 154.795C74.7148 155.419 75.2214 155.909 75.866 155.909H85.7199C86.3646 155.909 86.8711 155.419 86.8711 154.795C86.8711 154.17 86.3646 153.68 85.7199 153.68H75.866C75.2214 153.68 74.7148 154.17 74.7148 154.795Z" fill="#1D1D1B"/>
<path d="M40.8269 9.13989C40.1823 9.13989 39.6758 9.63031 39.6758 10.2545V26.5944C39.6758 27.2186 40.1823 27.709 40.8269 27.709C41.4716 27.709 41.9781 27.2186 41.9781 26.5944V10.2545C41.9781 9.63031 41.4716 9.13989 40.8269 9.13989Z" fill="#1D1D1B"/>
<path d="M127.691 84.9321C127.047 84.9321 126.54 85.4225 126.54 86.0467C126.54 92.8234 120.853 98.3295 113.854 98.3295C113.21 98.3295 112.703 98.82 112.703 99.4441C112.703 100.068 113.21 100.559 113.854 100.559C122.12 100.559 128.842 94.0495 128.842 86.0467C128.842 85.4225 128.336 84.9321 127.691 84.9321Z" fill="#1D1D1B"/>
</g>
</svg>
