<svg width="146" height="131" viewBox="0 0 146 131" fill="none" xmlns="http://www.w3.org/2000/svg">
<path d="M73 0C32.0613 0 0 7.72648 0 17.6053V30.8369C0 40.7158 32.0613 48.456 73 48.456C113.939 48.456 146 40.7158 146 30.8369V17.6053C146 7.74027 113.939 0 73 0ZM144.575 30.8369C144.575 40.5502 107.569 47.0763 73 47.0763C38.4308 47.0763 1.42495 40.5502 1.42495 30.8369V21.2202C2.43666 22.4758 4.0041 23.6761 6.09877 24.8213C17.5696 31.1405 43.8313 35.2244 73 35.2244C102.169 35.2244 128.43 31.1405 139.901 24.8351C141.996 23.6899 143.563 22.4758 144.575 21.234V30.8507V30.8369ZM139.189 23.6347C127.917 29.8435 101.941 33.8447 73 33.8447C44.0593 33.8447 18.0826 29.8297 6.81124 23.6347C3.29163 21.7031 1.42495 19.6197 1.42495 17.6053C1.42495 7.90584 38.4308 1.37973 73 1.37973C107.569 1.37973 144.575 7.90584 144.575 17.6053C144.575 19.6197 142.708 21.7031 139.189 23.6347Z" fill="#1D1D1B"/>
<path d="M73 60.1425C32.0613 60.1425 0 67.8689 0 77.7478V113.317C0 123.182 32.0613 130.922 73 130.922C113.939 130.922 146 123.196 146 113.317V77.7478C146 67.8689 113.939 60.1425 73 60.1425ZM92.6358 89.0202C92.422 88.7028 91.9803 88.6062 91.6525 88.8132L83.5873 93.794C70.7628 94.2355 58.3231 93.8768 46.8237 92.8144L52.7088 88.1233C53.008 87.875 53.0508 87.4473 52.8085 87.1575C52.552 86.8678 52.1103 86.8264 51.8111 87.0609L44.8146 92.635C31.7621 91.3381 20.8185 89.2133 13.024 86.4677L18.1681 81.5006C19.707 79.9967 21.8729 79.1275 24.0958 79.1275H32.845L28.8267 81.3075C28.4847 81.5006 28.3564 81.9146 28.5559 82.2457C28.6842 82.4665 28.9264 82.5906 29.1829 82.5906C29.2969 82.5906 29.4251 82.563 29.5391 82.5078L37.3478 78.2583L45.3418 74.7676C46.4248 74.2985 47.579 74.0501 48.7759 74.0501H64.3933C65.7613 74.0501 67.0722 74.3674 68.2977 74.9745L72.9573 77.3477C74.1542 77.9547 75.4937 78.2997 76.8474 78.3963L72.6153 81.3351C72.3018 81.5558 72.2163 81.9835 72.4443 82.3009C72.5868 82.494 72.8005 82.5906 73.0285 82.5906C73.171 82.5906 73.3135 82.5492 73.4417 82.4665L79.2555 78.4238C80.538 78.3963 81.8347 78.1203 83.0031 77.6236L88.4037 75.2919C89.4724 74.8228 90.6408 74.5744 91.8093 74.5744H107.056C109.279 74.5744 111.374 75.4022 112.941 76.9199L114.081 78.0099C115.292 79.1551 116.76 79.9553 118.356 80.3831L112.215 82.9632C111.858 83.1149 111.687 83.515 111.844 83.8738C111.958 84.1359 112.229 84.2877 112.5 84.2877C112.599 84.2877 112.685 84.2739 112.785 84.2325L121.106 80.728H124.255C125.837 80.728 127.376 81.1695 128.715 81.9835L134.885 85.7364C124.384 89.8618 106.586 92.773 86.4372 93.656L92.4363 89.9584C92.764 89.7514 92.8637 89.3237 92.65 89.0064L92.6358 89.0202ZM1.42495 81.3627C3.17763 83.5288 6.55475 85.5432 11.4708 87.3783C19.4933 90.3723 31.0638 92.6626 44.9571 94.0286C44.9713 94.0286 44.9998 94.0286 45.0141 94.0286C57.0976 95.2289 70.2499 95.6429 83.8153 95.1599C106.045 94.3873 125.809 91.1587 136.695 86.5091C140.428 84.9086 143.079 83.1839 144.561 81.3489V81.9008C144.561 88.3717 126.564 94.4149 99.789 96.926C91.2536 97.7262 82.2337 98.1264 72.9857 98.1264C63.7379 98.1264 54.7179 97.7262 46.1825 96.926C19.4078 94.4011 1.4107 88.3579 1.4107 81.9008V81.3627H1.42495ZM144.575 113.317C144.575 123.017 107.569 129.543 73 129.543C38.4308 129.543 1.42495 123.017 1.42495 113.317V85.4053C5.48604 90.4137 18.6525 95.7118 46.0543 98.3057C54.6467 99.106 63.7094 99.5061 73 99.5061C82.2906 99.5061 91.3533 99.106 99.9457 98.3057C127.362 95.7394 140.514 90.4275 144.575 85.4191V113.331V113.317ZM144.504 78.2445C137.764 70.0903 108.495 64.2954 73 64.2954C37.5046 64.2954 8.23619 70.0903 1.49619 78.2445C1.46769 78.0789 1.42495 77.9133 1.42495 77.7478C1.42495 68.0483 38.4308 61.5222 73 61.5222C107.569 61.5222 144.575 68.0483 144.575 77.7478C144.575 77.9133 144.532 78.0789 144.504 78.2445Z" fill="#1D1D1B"/>
<path d="M55.9561 79.3618L48.0334 81.2245C47.6487 81.3072 47.4207 81.6936 47.5062 82.0523C47.5917 82.3696 47.8767 82.5766 48.2044 82.5766C48.2614 82.5766 48.3184 82.5766 48.3754 82.5628L56.2981 80.7002C56.6828 80.6174 56.9108 80.2311 56.8253 79.8723C56.7256 79.4998 56.3551 79.279 55.9704 79.3618H55.9561Z" fill="#1D1D1B"/>
<path d="M71.3612 87.5851L64.5927 86.8952C64.1794 86.84 63.8517 87.1297 63.8089 87.5023C63.7662 87.8748 64.0512 88.2197 64.4359 88.2611L71.2044 88.951C71.2044 88.951 71.2614 88.951 71.2757 88.951C71.6319 88.951 71.9454 88.6888 71.9881 88.3301C72.0309 87.9576 71.7459 87.6127 71.3612 87.5713V87.5851Z" fill="#1D1D1B"/>
<path d="M96.4706 86.2468C96.6131 86.2468 96.7698 86.2054 96.8981 86.1088C97.2115 85.888 97.2828 85.4465 97.0405 85.143L92.609 79.3619C92.381 79.0584 91.925 78.9894 91.6115 79.2239C91.298 79.4447 91.2268 79.8862 91.469 80.1898L95.9006 85.9708C96.0431 86.1502 96.2568 86.2468 96.4706 86.2468Z" fill="#1D1D1B"/>
<path d="M30.3378 85.612L23.8116 84.867C23.4269 84.8256 23.0706 85.0877 23.0279 85.474C22.9851 85.8466 23.2559 86.1915 23.6548 86.2467L30.1811 86.9917C30.1811 86.9917 30.2381 86.9917 30.2666 86.9917C30.6228 86.9917 30.9363 86.7296 30.9791 86.3847C31.0218 86.0121 30.7511 85.6672 30.3521 85.612H30.3378Z" fill="#1D1D1B"/>
<path d="M107.143 82.2733C107.271 82.4803 107.514 82.5907 107.742 82.5907C107.87 82.5907 107.998 82.5631 108.126 82.4803C108.454 82.2733 108.554 81.8456 108.34 81.5283L105.619 77.3753C105.405 77.0579 104.963 76.9614 104.635 77.1683C104.308 77.3753 104.208 77.803 104.422 78.1203L107.143 82.2733Z" fill="#1D1D1B"/>
</svg>
