<svg width="172" height="185" viewBox="0 0 172 185" fill="none" xmlns="http://www.w3.org/2000/svg">
<path d="M105.291 151.044C106.509 152.862 108.891 153.498 110.836 152.516L140.083 137.956C140.247 137.865 140.392 137.774 140.556 137.683C142.501 136.375 143.1 133.702 141.755 131.667C140.537 129.849 138.174 129.231 136.211 130.194L106.982 144.754C106.818 144.845 106.655 144.918 106.491 145.027C104.546 146.318 103.946 149.008 105.291 151.044ZM29.7642 37.3257C30.6003 38.5981 32.2545 39.0344 33.5996 38.3437L65.2465 22.6202C66.8643 21.8022 67.4096 19.7663 66.4099 18.2576C66.3735 18.2031 66.319 18.1303 66.3008 18.0576C65.2283 16.2399 65.7737 13.9132 67.5005 12.768C67.6459 12.6589 67.7914 12.5862 67.955 12.4953L82.0607 5.47884C83.533 4.75175 85.3144 5.22436 86.2415 6.60585L166.477 127.395C167.567 129.049 166.967 131.267 165.222 132.139L164.841 132.321L92.6217 168.294C91.1494 169.021 89.368 168.549 88.4409 167.167L8.18754 46.3599C7.09689 44.7058 7.69675 42.4881 9.45996 41.6156L23.7111 34.5264C25.5106 33.6175 27.6919 34.1992 28.8008 35.8715L29.7642 37.3257ZM101.765 99.2199C106.455 87.3682 108.709 65.3008 99.6382 55.0124C96.9298 51.9222 89.7134 51.286 85.8779 52.0858L84.0783 53.2855C82.0425 56.6665 80.661 69.7543 82.9514 72.6263C85.0418 75.2438 93.1125 73.3352 93.8396 74.0623C95.312 75.5165 94.5304 84.7688 94.0759 86.9865C93.6215 89.2223 90.9131 97.493 89.0953 98.4564C87.2958 99.4198 80.661 92.8033 77.2436 96.7114C75.0442 99.2381 71.2633 109.672 71.754 112.962C72.4448 117.543 81.0427 119.542 84.969 118.906C91.8946 117.761 99.311 105.382 101.765 99.2199Z" fill="#1D1D1B"/>
<path d="M168.586 143.373C168.768 142.773 168.913 142.173 168.968 141.555" stroke="#1D1D1B" stroke-miterlimit="10"/>
<path d="M171.078 131.267L171.151 130.976C171.478 129.103 171.096 127.104 169.951 125.359L89.4069 4.09721C87.2256 0.825269 82.9175 -0.31991 79.3911 1.42512L7.77201 37.0711C5.53618 38.1799 4.10017 40.1976 3.60938 42.4152V42.5061" stroke="#1D1D1B" stroke-miterlimit="10"/>
<path d="M166.477 127.395L86.2415 6.60572C85.3144 5.22424 83.533 4.75162 82.0606 5.47872L67.955 12.4952C67.7914 12.5861 67.6459 12.6588 67.5005 12.7679C65.7737 13.9131 65.2283 16.2398 66.3008 18.0575C66.319 18.1302 66.3735 18.2029 66.4099 18.2575C67.4096 19.7662 66.8643 21.8021 65.2465 22.62L33.5996 38.3435C32.2545 39.0343 30.6003 38.598 29.7642 37.3256L28.8008 35.8714C27.6919 34.1991 25.5106 33.6174 23.7111 34.5263L9.45996 41.6155C7.69675 42.488 7.09689 44.7056 8.18754 46.3598L88.4409 167.167C89.368 168.549 91.1494 169.021 92.6217 168.294L164.841 132.321L165.222 132.139C166.967 131.267 167.567 129.049 166.477 127.395Z" stroke="#1D1D1B" stroke-miterlimit="10"/>
<path d="M136.207 130.194C138.17 129.23 140.533 129.848 141.751 131.666C143.096 133.702 142.496 136.374 140.551 137.683C140.388 137.774 140.242 137.865 140.079 137.956L110.831 152.516C108.886 153.497 106.505 152.861 105.287 151.043C103.942 149.007 104.542 146.317 106.487 145.027C106.651 144.918 106.814 144.845 106.978 144.754L136.207 130.194Z" stroke="#1D1D1B" stroke-miterlimit="10"/>
<path d="M171.075 131.266C170.657 133.32 169.421 135.193 167.512 136.338C167.312 136.465 167.112 136.574 166.912 136.683L95.2932 172.329C91.7667 174.092 87.4587 172.947 85.2774 169.657L4.73317 48.4136C3.51528 46.5777 3.18809 44.4691 3.58799 42.506L1.37034 53.5579C0.897732 55.5574 1.22493 57.775 2.47917 59.6473L83.0234 180.891C85.2047 184.181 89.4946 185.326 93.021 183.563L164.64 147.935C166.585 146.972 167.93 145.318 168.566 143.445V143.373L168.966 141.555L171.075 131.266Z" stroke="#1D1D1B" stroke-miterlimit="10"/>
<path d="M85.8783 52.0862C89.7137 51.2864 96.9301 51.9226 99.6386 55.0128C108.709 65.3012 106.455 87.3686 101.765 99.2203C99.3114 105.382 91.895 117.761 84.9694 118.906C81.0431 119.543 72.4452 117.543 71.7544 112.962C71.2636 109.672 75.0445 99.2385 77.244 96.7118C80.6613 92.8037 87.2961 99.4203 89.0957 98.4569C90.9134 97.4935 93.6219 89.2227 94.0763 86.9869C94.5307 84.7692 95.3124 75.5169 93.84 74.0627C93.1129 73.3356 85.0421 75.2443 82.9517 72.6267C80.6614 69.7547 82.0428 56.6669 84.0787 53.2859L85.8783 52.0862Z" stroke="black" stroke-miterlimit="10"/>
</svg>
