<svg width="518" height="480" viewBox="0 0 518 480" fill="none" xmlns="http://www.w3.org/2000/svg">
<path d="M454.054 63.8877L460.729 0L382.395 63.4705C375.824 68.7901 371.652 76.4566 370.765 84.9576L367.166 119.222L293.943 178.573C280.383 168.716 272.3 153.07 272.3 136.276V133.669H27.7533V136.276C27.7533 154.999 17.6356 172.471 1.31164 181.806L0.0078125 182.536V309.164C0.0078125 391.618 58.5759 463.225 139.778 479.549H160.275C160.431 479.549 160.64 479.549 160.796 479.549C241.529 463.329 300.097 391.671 300.097 309.216V204.023L382.134 137.528L416.295 141.127C417.39 141.231 418.485 141.283 419.58 141.283C426.882 141.283 433.923 138.832 439.659 134.19L517.993 70.6676L454.054 63.992V63.8877ZM229.743 272.605C229.743 275.525 228.074 279.385 223.484 280.532L170.184 293.988L194.174 242.773C196.156 238.497 200.276 237.61 203.145 238.132C206.169 238.653 209.507 240.896 209.924 245.589L210.029 246.633L199.181 255.446L213.992 273.752L224.736 265.043C228.335 266.607 229.795 269.945 229.743 272.605ZM294.882 309.164C294.882 388.072 239.547 456.706 162.882 473.708V342.803C162.882 341.343 161.735 340.195 160.275 340.195C158.814 340.195 157.667 341.343 157.667 342.803V473.655C155.32 473.134 153.025 472.612 150.731 472.039C77.1424 452.429 25.7193 385.464 25.7193 309.164V185.509C42.1476 175.548 52.4218 157.972 53.3084 138.832H267.189C267.971 155.886 276.263 171.584 289.823 181.91L214.723 242.773C213.419 237.662 209.455 233.907 204.083 232.968C197.877 231.821 192.14 234.794 189.48 240.531L160.796 301.758L224.736 285.591C230.838 284.078 234.854 278.967 234.906 272.657C234.958 268.015 232.768 263.895 229.169 261.392L294.882 208.143V309.112V309.164ZM436.426 130.07C430.845 134.503 423.909 136.537 416.868 135.859L387.871 132.834L430.689 98.1002L415.825 79.7944L372.955 114.581L375.98 85.4791C376.763 78.3341 380.205 71.9714 385.733 67.4862L454.262 11.9431L448.317 68.5293L504.955 74.4748L436.426 130.07Z" fill="#1D1D1B"/>
<path d="M201.372 325.175L165.178 312.346C163.822 311.876 162.309 312.554 161.84 313.91C161.37 315.266 162.048 316.779 163.404 317.248L199.599 330.078C199.912 330.182 200.172 330.234 200.485 330.234C201.58 330.234 202.571 329.556 202.936 328.513C203.406 327.157 202.728 325.645 201.372 325.175Z" fill="#1D1D1B"/>
<path d="M157.092 242.043C155.632 242.043 154.484 243.19 154.484 244.65V287.729C154.484 289.189 155.632 290.336 157.092 290.336C158.552 290.336 159.7 289.189 159.7 287.729V244.65C159.7 243.19 158.552 242.043 157.092 242.043Z" fill="#1D1D1B"/>
<path d="M127.316 256.489C126.638 255.237 125.073 254.716 123.769 255.394C122.518 256.072 121.996 257.636 122.674 258.94L142.231 296.073C142.701 296.96 143.587 297.481 144.526 297.481C144.943 297.481 145.361 297.377 145.726 297.169C146.977 296.491 147.499 294.926 146.821 293.622L127.263 256.489H127.316Z" fill="#1D1D1B"/>
</svg>
