<svg width="19" height="23" viewBox="0 0 19 23" fill="none" xmlns="http://www.w3.org/2000/svg">
<path fill-rule="evenodd" clip-rule="evenodd" d="M10.5931 22.0431L10.582 22.0451L10.511 22.0801L10.491 22.0841L10.477 22.0801L10.406 22.0451C10.3954 22.0418 10.3874 22.0434 10.382 22.0501L10.378 22.0601L10.361 22.4881L10.366 22.5081L10.376 22.5211L10.48 22.5951L10.495 22.5991L10.507 22.5951L10.611 22.5211L10.623 22.5051L10.627 22.4881L10.61 22.0611C10.6074 22.0504 10.6017 22.0444 10.5931 22.0431ZM10.858 21.9301L10.845 21.9321L10.66 22.0251L10.65 22.0351L10.647 22.0461L10.665 22.4761L10.67 22.4881L10.6781 22.4951L10.879 22.5881C10.8917 22.5914 10.9014 22.5888 10.908 22.5801L10.912 22.5661L10.878 21.9521C10.8747 21.9401 10.868 21.9328 10.858 21.9301ZM10.143 21.9321C10.1386 21.9294 10.1334 21.9286 10.1283 21.9297C10.1233 21.9308 10.1189 21.9338 10.116 21.9381L10.11 21.9521L10.076 22.5661C10.0767 22.5781 10.0824 22.5861 10.0931 22.5901L10.108 22.5881L10.309 22.4951L10.319 22.4871L10.323 22.4761L10.34 22.0461L10.337 22.0341L10.327 22.0241L10.143 21.9321Z" fill="currentColor"/>
<path fill-rule="evenodd" clip-rule="evenodd" d="M6.993 17.6222C7.162 16.1992 6.931 14.7152 6.417 13.3832C5.848 11.9092 5.092 10.3132 4.998 8.72618C4.919 7.38918 5.222 5.80718 6.03 4.72418C6.915 3.53818 8.368 2.78518 9.967 2.78518H11.479C12.7333 2.78512 13.9418 3.25647 14.8648 4.10576C15.7878 4.95505 16.3579 6.12022 16.462 7.37018L16.823 11.7022C16.8345 11.8401 16.8172 11.9788 16.7723 12.1097C16.7274 12.2406 16.6559 12.3607 16.5622 12.4625C16.4685 12.5643 16.3546 12.6455 16.2279 12.701C16.1012 12.7566 15.9644 12.7852 15.826 12.7852H10.5C9.669 12.7852 9.005 13.4582 8.999 14.2772C8.991 15.2472 9.052 16.4442 8.606 17.3372C8.206 18.1372 7.832 18.2852 7.5 18.2852C7.2 18.2852 6.96 17.8922 6.993 17.6222ZM7.5 20.2852C8.856 20.2852 9.794 19.4332 10.395 18.2322C10.917 17.1882 10.966 15.9322 10.992 14.7852H15.826C16.2411 14.7852 16.6516 14.6992 17.0317 14.5324C17.4118 14.3656 17.7532 14.1218 18.0342 13.8163C18.3153 13.5109 18.5298 13.1504 18.6644 12.7578C18.799 12.3651 18.8506 11.9488 18.816 11.5352L18.455 7.20418C18.3093 5.45427 17.5112 3.82306 16.219 2.63406C14.9268 1.44506 13.235 0.78514 11.479 0.785179H9.967C9.01833 0.782776 8.07924 0.974898 7.20773 1.34968C6.33622 1.72446 5.55081 2.27394 4.9 2.96418C4.443 2.8443 3.97246 2.7838 3.5 2.78418C2.392 2.78418 1.472 3.40618 0.876 4.39418C0.296 5.35418 0 6.67818 0 8.28418C0 9.89018 0.297 11.2162 0.876 12.1762C1.472 13.1652 2.392 13.7852 3.5 13.7852C3.781 13.7852 4.079 13.7352 4.377 13.6512C4.835 14.8512 5.161 16.0882 5.007 17.3862C4.835 18.8312 6.016 20.2852 7.5 20.2852ZM3.696 11.7612C3.211 11.8612 2.831 11.5452 2.589 11.1432C2.263 10.6032 2 9.67918 2 8.28518C2 6.89118 2.263 5.96618 2.588 5.42618C2.898 4.91418 3.228 4.78518 3.5 4.78518C3.564 4.78518 3.62733 4.78685 3.69 4.79018C3.154 5.99818 2.924 7.53018 3.002 8.84418C3.049 9.64918 3.363 10.7622 3.696 11.7612Z" fill="currentColor"/>
</svg>
