<svg width="62" height="62" viewBox="0 0 62 62" fill="none" xmlns="http://www.w3.org/2000/svg">
<path d="M20.1928 1.92975C19.8593 2.05375 19.5412 2.201 19.2154 2.3405C15.0496 5.75825 12.381 10.943 12.381 16.7477C12.381 17.422 12.4198 18.0885 12.4896 18.7395C16.4537 12.7487 23.2338 8.804 30.937 8.804C34.3891 8.804 37.6705 9.60225 40.5796 11.0205C40.8511 11.1523 41.1071 11.2995 41.3709 11.439C42.6276 11.1677 43.9309 11.0205 45.2807 11.0205C50.2455 11.0205 54.7604 12.9967 58.0961 16.1975C52.8442 6.56425 42.6431 0 30.937 0C27.1591 0 23.5441 0.682 20.1928 1.92975Z" fill="#181D27"/>
<mask id="mask0_3849_10864" style="mask-type:luminance" maskUnits="userSpaceOnUse" x="12" y="0" width="47" height="19">
<path d="M20.1928 1.92975C19.8593 2.05375 19.5412 2.201 19.2154 2.3405C15.0496 5.75825 12.381 10.943 12.381 16.7477C12.381 17.422 12.4198 18.0885 12.4896 18.7395C16.4537 12.7487 23.2338 8.804 30.937 8.804C34.3891 8.804 37.6705 9.60225 40.5796 11.0205C40.8511 11.1523 41.1071 11.2995 41.3709 11.439C42.6276 11.1677 43.9309 11.0205 45.2807 11.0205C50.2455 11.0205 54.7604 12.9967 58.0961 16.1975C52.8442 6.56425 42.6431 0 30.937 0C27.1591 0 23.5441 0.682 20.1928 1.92975Z" fill="white"/>
</mask>
<g mask="url(#mask0_3849_10864)">
<path d="M58.0961 0H12.381V18.7395H58.0961V0Z" fill="#181D27"/>
</g>
<path d="M0 30.9767C0 34.7975 0.698177 38.4555 1.97041 41.8423C2.04023 42.036 2.13332 42.2142 2.20314 42.4002C5.60869 46.7325 10.8683 49.5225 16.7795 49.5225C17.4156 49.5225 18.044 49.4915 18.6646 49.4295C12.7223 45.4537 8.80479 38.6725 8.80479 30.9767C8.80479 27.5667 9.57278 24.3427 10.9459 21.4597C11.3958 20.5142 11.9078 19.6075 12.4819 18.7395C12.412 18.0807 12.3732 17.422 12.3732 16.7477C12.3732 10.943 15.0341 5.7505 19.2076 2.3405C7.95922 6.975 0 18.0497 0 30.9767Z" fill="#181D27"/>
<mask id="mask1_3849_10864" style="mask-type:luminance" maskUnits="userSpaceOnUse" x="0" y="2" width="20" height="48">
<path d="M0 30.9767C0 34.7975 0.698177 38.4555 1.97041 41.8423C2.04023 42.036 2.13332 42.2142 2.20314 42.4002C5.60869 46.7325 10.8683 49.5225 16.7795 49.5225C17.4156 49.5225 18.044 49.4915 18.6646 49.4295C12.7223 45.4537 8.80479 38.6725 8.80479 30.9767C8.80479 27.5667 9.57278 24.3427 10.9459 21.4597C11.3958 20.5142 11.9078 19.6075 12.4819 18.7395C12.412 18.0807 12.3732 17.422 12.3732 16.7477C12.3732 10.943 15.0341 5.7505 19.2076 2.3405C7.95922 6.975 0 18.0497 0 30.9767Z" fill="white"/>
</mask>
<g mask="url(#mask1_3849_10864)">
<path d="M19.2154 2.3405H0V49.5302H19.2154V2.3405Z" fill="#181D27"/>
</g>
<path d="M41.3709 11.439C48.3216 15.1745 53.0459 22.5215 53.0459 30.9768C53.0459 35.4718 51.7039 39.649 49.4154 43.1365C49.1672 43.5085 48.9189 43.8883 48.6552 44.2448H58.8718C60.7879 40.2225 61.8585 35.7198 61.8585 30.9768C61.8585 27.156 61.1603 23.498 59.8958 20.119C59.3916 18.7628 58.7787 17.4608 58.0883 16.1975C54.7526 12.9968 50.2377 11.0205 45.2729 11.0205C43.9308 11.0205 42.6276 11.1678 41.3631 11.439" fill="#181D27"/>
<mask id="mask2_3849_10864" style="mask-type:luminance" maskUnits="userSpaceOnUse" x="41" y="11" width="21" height="34">
<path d="M41.3709 11.439C48.3216 15.1745 53.0459 22.5215 53.0459 30.9768C53.0459 35.4718 51.7039 39.649 49.4154 43.1365C49.1672 43.5085 48.9189 43.8883 48.6552 44.2448H58.8718C60.7879 40.2225 61.8585 35.7198 61.8585 30.9768C61.8585 27.156 61.1603 23.498 59.8958 20.119C59.3916 18.7628 58.7787 17.4608 58.0883 16.1975C54.7526 12.9968 50.2377 11.0205 45.2729 11.0205C43.9308 11.0205 42.6276 11.1678 41.3631 11.439" fill="white"/>
</mask>
<g mask="url(#mask2_3849_10864)">
<path d="M61.8584 11.0205H41.3708V44.2525H61.8584V11.0205Z" fill="#181D27"/>
</g>
<path d="M17.726 30.9147C17.726 37.851 23.0786 43.555 29.8587 44.113C33.2488 40.7417 35.3666 36.0685 35.3666 30.9147C35.3666 33.3715 33.3729 35.3633 30.9448 35.3633C25.8015 35.3633 21.147 33.2552 17.7803 29.8607C17.7492 30.2095 17.726 30.5582 17.726 30.9147Z" fill="#181D27"/>
<mask id="mask3_3849_10864" style="mask-type:luminance" maskUnits="userSpaceOnUse" x="17" y="29" width="19" height="16">
<path d="M17.726 30.9147C17.726 37.851 23.0786 43.555 29.8587 44.113C33.2488 40.7417 35.3666 36.0685 35.3666 30.9147C35.3666 33.3715 33.3729 35.3633 30.9448 35.3633C25.8015 35.3633 21.147 33.2552 17.7803 29.8607C17.7492 30.2095 17.726 30.5582 17.726 30.9147Z" fill="white"/>
</mask>
<g mask="url(#mask3_3849_10864)">
<path d="M35.3666 29.8607H17.726V44.113H35.3666V29.8607Z" fill="#181D27"/>
</g>
<path d="M30.9292 26.5593C33.3806 26.5593 35.3743 28.5278 35.3743 30.9613C35.3743 36.0995 33.2642 40.7495 29.8665 44.113C30.2155 44.144 30.5724 44.1673 30.9292 44.1673C37.88 44.1673 43.5818 38.8198 44.1403 32.0463C40.7658 28.6673 36.088 26.567 30.9448 26.567L30.9292 26.5593Z" fill="#181D27"/>
<mask id="mask4_3849_10864" style="mask-type:luminance" maskUnits="userSpaceOnUse" x="29" y="26" width="16" height="19">
<path d="M30.9292 26.5593C33.3806 26.5593 35.3743 28.5278 35.3743 30.9613C35.3743 36.0995 33.2642 40.7495 29.8665 44.113C30.2155 44.144 30.5724 44.1673 30.9292 44.1673C37.88 44.1673 43.5818 38.8198 44.1403 32.0463C40.7658 28.6673 36.088 26.567 30.9448 26.567L30.9292 26.5593Z" fill="white"/>
</mask>
<g mask="url(#mask4_3849_10864)">
<path d="M44.1325 26.5593H29.8665V44.1673H44.1325V26.5593Z" fill="#181D27"/>
</g>
<path d="M17.7802 29.8607C21.1548 33.2475 25.7705 35.3633 30.9292 35.3633C28.4701 35.3633 26.4764 33.3948 26.4764 30.9613C26.4764 25.8308 28.5865 21.173 31.9843 17.8095C31.6352 17.7863 31.2861 17.763 30.9292 17.763C23.9863 17.763 18.331 23.0873 17.7802 29.8685" fill="#181D27"/>
<mask id="mask5_3849_10864" style="mask-type:luminance" maskUnits="userSpaceOnUse" x="17" y="17" width="15" height="19">
<path d="M17.7802 29.8607C21.1548 33.2475 25.7705 35.3633 30.9292 35.3633C28.4701 35.3633 26.4764 33.3948 26.4764 30.9613C26.4764 25.8308 28.5865 21.173 31.9843 17.8095C31.6352 17.7863 31.2861 17.763 30.9292 17.763C23.9863 17.763 18.331 23.0873 17.7802 29.8685" fill="white"/>
</mask>
<g mask="url(#mask5_3849_10864)">
<path d="M31.9843 17.7477H17.7802V35.3557H31.9843V17.7477Z" fill="#181D27"/>
</g>
<path d="M26.4842 31C26.4842 28.5432 28.4779 26.5515 30.9137 26.5515C36.0492 26.5515 40.7658 28.644 44.1326 32.0307C44.1636 31.682 44.1326 31.3487 44.1326 30.9922C44.1326 24.056 38.7799 18.352 31.992 17.794C28.6098 21.1652 26.4842 25.8385 26.4842 30.9922" fill="#181D27"/>
<mask id="mask6_3849_10864" style="mask-type:luminance" maskUnits="userSpaceOnUse" x="26" y="17" width="19" height="16">
<path d="M26.4842 31C26.4842 28.5432 28.4779 26.5515 30.9137 26.5515C36.0492 26.5515 40.7658 28.644 44.1326 32.0307C44.1636 31.682 44.1326 31.3487 44.1326 30.9922C44.1326 24.056 38.7799 18.352 31.992 17.794C28.6098 21.1652 26.4842 25.8385 26.4842 30.9922" fill="white"/>
</mask>
<g mask="url(#mask6_3849_10864)">
<path d="M44.1636 17.8093H26.4842V32.0383H44.1636V17.8093Z" fill="#181D27"/>
</g>
<path d="M2.20312 42.4002C6.75679 53.8392 17.9121 61.9535 30.937 61.9535H57.4522C59.8958 61.9535 61.8662 59.9772 61.8662 57.5437C61.8662 55.1102 59.8958 53.134 57.4522 53.134H30.9525L30.937 53.1417C27.4771 53.1417 24.2035 52.3435 21.2944 50.933C20.379 50.4912 19.5102 49.9875 18.6723 49.4217C18.0517 49.4837 17.4234 49.5147 16.7873 49.5147C10.876 49.5147 5.60868 46.7247 2.21088 42.3925L2.20312 42.4002Z" fill="#181D27"/>
<mask id="mask7_3849_10864" style="mask-type:luminance" maskUnits="userSpaceOnUse" x="2" y="42" width="60" height="20">
<path d="M2.20312 42.4002C6.75679 53.8392 17.9121 61.9535 30.937 61.9535H57.4522C59.8958 61.9535 61.8662 59.9772 61.8662 57.5437C61.8662 55.1102 59.8958 53.134 57.4522 53.134H30.9525L30.937 53.1417C27.4771 53.1417 24.2035 52.3435 21.2944 50.933C20.379 50.4912 19.5102 49.9875 18.6723 49.4217C18.0517 49.4837 17.4234 49.5147 16.7873 49.5147C10.876 49.5147 5.60868 46.7247 2.21088 42.3925L2.20312 42.4002Z" fill="white"/>
</mask>
<g mask="url(#mask7_3849_10864)">
<path d="M61.8585 42.4001H2.20312V61.9534H61.8585V42.4001Z" fill="#181D27"/>
</g>
</svg>
