<svg width="230" height="300" viewBox="0 0 230 300" fill="none" xmlns="http://www.w3.org/2000/svg">
<g clip-path="url(#clip0_141_19482)">
<path d="M95.3319 56.8141C94.6165 57.0617 94.2588 57.8596 94.5065 58.575C94.7816 59.2903 95.552 59.648 96.2673 59.4003C97.6154 58.9051 104.108 58.2448 106.887 61.0236C107.162 61.2987 107.52 61.4363 107.85 61.4363C108.18 61.4363 108.566 61.2987 108.813 61.0236C109.363 60.4733 109.363 59.6204 108.813 59.0702C104.851 55.1083 97.0376 56.1538 95.2768 56.7866L95.3319 56.8141Z" fill="#1D1D1B"/>
<path d="M96.7625 97.3955C97.3128 96.8453 97.3128 95.9924 96.7625 95.4421C96.2123 94.8919 95.3594 94.8919 94.8091 95.4421C91.9478 98.3034 85.3722 97.8908 82.8961 97.7257C82.4008 97.6982 82.0432 97.6707 81.7956 97.6707C81.0252 97.6707 80.4199 98.2759 80.4199 99.0463C80.4199 99.8167 81.0252 100.422 81.7956 100.422C81.9882 100.422 82.3183 100.422 82.731 100.477C83.5839 100.532 84.7394 100.615 86.0601 100.615C89.5267 100.615 94.0388 100.119 96.7625 97.3955Z" fill="#1D1D1B"/>
<path d="M113.573 49.633C113.573 48.8627 112.995 48.2574 112.225 48.2574C110.794 48.1198 98.5784 43.6627 97.0377 42.7273C96.3774 42.3421 95.552 42.5622 95.1393 43.195C94.7541 43.8553 94.9742 44.6807 95.607 45.0934C97.2028 46.0564 110.409 51.0087 112.17 51.0087C112.94 51.0087 113.573 50.4034 113.573 49.633Z" fill="#1D1D1B"/>
<path d="M204.118 138.555C178.393 119.323 166.783 118.69 137.041 117.782V111.344C136.931 109.914 137.041 105.814 138.802 103.999C141.691 101.137 152.944 83.7766 152.944 66.4985C152.944 49.2205 152.476 30.8969 147.056 21.8177C140.701 11.2528 131.704 0 105.429 0C79.1544 0 64.1875 19.8368 64.1875 38.518V85.4824C64.1875 86.3078 64.27 87.2982 64.4076 88.3712C63.142 90.3522 62.6192 92.058 62.5917 92.1405L62.0965 93.7638L63.8023 93.9013C63.8023 93.9013 64.4901 93.9563 65.5906 94.0114C67.1588 99.5414 71.5609 110.492 82.2084 115.031V117.865C63.6097 119.378 31.172 130.741 16.1775 149.092C5.365 162.271 1.98092 196.112 1.34813 203.678H1.2931L1.23808 205.136L0 239.884C0 240.792 0.137565 262.005 12.9035 271.937C19.3966 276.944 25.6145 279.861 32.8503 281.346C31.8048 289.985 31.2821 295.68 31.2821 298.624V300H229.072V211.684C229.127 211.189 234.492 161.308 204.09 138.555H204.118ZM68.507 94.0939C69.3048 94.0939 70.1027 94.1214 70.9006 94.1214C75.4952 94.1214 80.31 93.7913 82.8136 92.5807C84.1068 91.9754 85.0697 91.04 85.73 89.8294C86.693 91.3426 88.0411 92.7458 89.9395 93.296C91.3701 93.7087 94.1764 93.8463 97.2579 93.8463C102.705 93.8463 108.978 93.4061 110.024 93.3511L111.895 93.2135L111.207 91.4802C111.042 91.095 107.218 81.7406 96.9552 81.7406H86.3353C86.3353 81.7406 86.1977 81.7131 86.1152 81.7406C86.1152 81.7406 85.73 81.7406 85.1797 81.7406H84.7395C81.8507 81.6856 79.6497 81.0803 79.0169 80.1999C78.9343 80.0624 78.6867 79.7322 78.9619 78.8793C80.7777 73.5143 83.529 59.8404 83.6665 59.2627C83.8041 58.5198 83.3364 57.8045 82.5935 57.6394C81.8507 57.4743 81.1354 57.9696 80.9703 58.7124C80.9428 58.85 78.1365 72.799 76.3756 77.9989C75.7979 79.7597 76.2381 80.9978 76.7608 81.7406H76.073C72.0011 81.7406 69.0572 83.3914 66.9938 85.3173V61.8213C67.4615 61.0785 69.1948 58.8775 73.2667 59.3727C74.0095 59.4277 74.6974 58.905 74.7799 58.1621C74.8624 57.4193 74.3397 56.7315 73.5693 56.6214C70.5429 56.2638 68.4244 57.0616 66.9662 58.0246V50.8988C70.2403 49.8258 77.7788 46.4692 79.4021 44.8459C79.9523 44.2957 79.9523 43.4428 79.4021 42.8925C78.8518 42.3423 77.9989 42.3423 77.4486 42.8925C76.1831 44.1581 69.8551 46.9094 66.9387 48.0374V41.6819C72.4413 41.4068 93.5987 40.1963 102.265 36.7021C106.53 34.9963 110.794 32.135 114.976 28.3382C115.636 31.7223 117.397 37.5 121.909 42.3423C127.852 48.7803 125.871 57.5569 123.78 61.7388C121.414 66.471 122.074 67.7641 124.523 70.1852L125.789 71.4508L135.528 62.4266L135.776 62.0965C136.601 60.6383 139.325 56.869 141.884 56.869C143.837 56.869 145.158 57.3918 146.038 58.5198C147.414 60.2806 148.514 64.4901 146.038 74.6698C144.195 82.2359 141.223 86.4729 137.674 86.6379C136.244 86.748 135.116 86.0877 135.116 86.0877C134.483 85.675 133.63 85.8676 133.217 86.5004C132.804 87.1332 132.997 87.9861 133.63 88.3988C133.767 88.4813 134.84 89.0866 136.381 89.3067V102.623C133.905 105.814 134.263 111.262 134.29 111.399V122.074C134.208 122.24 134.153 122.432 134.153 122.625C134.153 123.395 134.648 124 135.418 124C135.473 124 141.168 125.183 141.168 129.283C141.168 137.757 110.739 142.324 98.3034 142.324C81.383 142.324 72.0836 139.408 72.0836 134.098C72.0836 128.43 79.0444 124.661 82.3459 123.202C82.566 123.698 83.0337 124.028 83.6115 124.028C84.3819 124.028 84.9872 123.423 84.9872 122.652V115.967C87.2157 116.627 89.5818 116.985 92.058 117.04C93.0759 117.04 94.0664 117.067 95.0294 117.067C114.123 117.067 119.461 112.775 119.681 112.583C120.259 112.087 120.341 111.262 119.846 110.657C119.378 110.079 118.525 109.996 117.92 110.464C117.865 110.519 112.252 114.701 92.0855 114.288C89.2241 114.233 86.5279 113.738 84.0792 112.775C74.4497 109.116 70.1852 99.4864 68.507 94.0389V94.0939ZM18.3236 150.825C32.5477 133.437 63.0594 122.515 81.3004 120.699C77.5312 122.35 69.3048 126.807 69.3048 134.153C69.3048 141.499 79.0444 145.13 98.2759 145.13C108.346 145.13 143.892 141.333 143.892 129.338C143.892 124.386 139.215 122.35 137.041 121.662V120.534C166.893 121.469 177.458 122.074 202.467 140.756C230.31 161.583 226.816 206.649 226.376 211.134H166.618V179.219C166.618 178.448 166.012 177.843 165.242 177.843C164.472 177.843 163.866 178.448 163.866 179.219V213.885L163.894 245.002C158.446 243.461 151.871 242.03 149.835 241.59C148.239 238.949 145.103 237.078 140.315 234.795C134.758 232.153 113.38 225.33 81.6581 225.33C66.1684 225.33 52.522 226.706 43.2777 227.944L46.8269 205.301C49.3855 189.261 51.2839 177.733 51.2839 177.733C51.394 176.99 50.8988 176.275 50.1559 176.165C49.3855 176.027 48.6977 176.55 48.5877 177.293C48.5877 177.293 46.7718 188.325 44.2957 203.788C23.0558 205.521 8.39142 204.393 4.15444 203.98C4.75972 196.937 8.1438 163.289 18.3786 150.798L18.3236 150.825ZM2.75128 239.939L3.93434 206.759C8.47395 207.199 22.9732 208.272 43.8004 206.621L40.4164 228.384C32.4651 229.512 27.5128 230.558 27.4578 230.558C26.715 230.723 26.2472 231.438 26.4123 232.181C26.5499 232.841 27.1277 233.281 27.7605 233.281C27.843 233.281 27.953 233.281 28.0356 233.254C28.0906 233.254 33.153 232.181 41.2693 231.025L41.8195 230.943C50.9538 229.65 65.2605 228.081 81.6581 228.081C112.885 228.081 133.74 234.712 139.16 237.271C144.47 239.802 146.781 241.453 147.744 243.406C148.019 243.956 148.212 244.617 148.294 245.332C148.377 246.02 148.982 246.543 149.67 246.543C149.725 246.543 149.78 246.543 149.835 246.543C150.578 246.432 151.128 245.745 151.018 245.002C151.018 244.892 150.963 244.782 150.935 244.644C154.182 245.359 160.262 246.763 164.884 248.138C166.508 248.634 168.764 249.349 169.919 249.982C176.798 253.751 178.558 255.319 178.558 261.124C178.558 262.61 178.036 263.793 176.935 264.729C174.734 266.572 170.772 266.902 168.791 266.544C168.048 266.407 166.838 265.994 165.847 265.609C165.847 265.609 165.82 265.609 165.792 265.609L164.802 265.251C161.06 263.848 156.053 262.005 150.66 261.675C150.935 259.694 151.045 258.18 151.045 258.098C151.101 257.328 150.523 256.695 149.752 256.64C149.01 256.585 148.349 257.163 148.294 257.933C148.294 257.933 148.157 259.969 147.771 262.335C147.661 262.527 147.606 262.72 147.606 262.968C147.606 263.023 147.606 263.05 147.606 263.105C146.836 267.067 145.901 268.498 145.405 268.993C144.938 269.461 144.525 269.983 144.03 270.561C142.434 272.542 140.481 274.853 135.638 276.119C136.326 275.293 136.931 274.275 137.317 273.092C137.564 272.377 137.179 271.607 136.436 271.359C135.721 271.112 134.95 271.524 134.703 272.24C133.74 275.156 130.906 276.614 130.163 276.944C129.283 276.999 128.347 277.054 127.329 277.054C125.101 277.054 123.01 276.834 121.056 276.477C123.808 274.908 126.091 272.817 126.229 272.68C126.779 272.157 126.807 271.304 126.284 270.726C125.761 270.176 124.908 270.149 124.331 270.644C123.12 271.772 119.488 274.716 116.764 275.266C112.61 273.698 110.106 271.414 108.566 269.846C110.602 269.103 112.528 268.443 112.995 268.415C113.766 268.415 114.371 267.81 114.371 267.04C114.371 266.269 113.766 265.664 112.995 265.664C112.005 265.664 108.758 266.82 106.447 267.7L106.365 267.617L105.512 268.058C105.319 268.168 86.5554 277.632 62.5917 279.42C49.8533 280.356 41.4894 280.218 34.5836 278.953C27.1277 277.632 21.1299 274.881 14.5543 269.818C2.83382 260.712 2.69626 240.16 2.69626 239.995L2.75128 239.939ZM35.5741 281.814C39.3158 282.392 43.4428 282.722 48.3951 282.722C52.5495 282.722 57.2817 282.529 62.8118 282.117C84.2993 280.521 101.715 272.872 105.842 270.919C107.328 272.542 110.437 275.899 116.159 277.935C119.433 279.118 123.175 279.723 127.274 279.723C128.457 279.723 129.53 279.696 130.493 279.613C140.618 278.925 143.892 274.908 146.066 272.24C146.478 271.744 146.836 271.277 147.249 270.891C148.432 269.708 149.367 267.562 150.055 264.343C155.172 264.618 160.07 266.434 163.729 267.782H163.839V297.249H34.0884C34.1985 294.167 34.6937 289.077 35.5741 281.814ZM166.645 297.249V268.828C167.306 269.048 167.828 269.186 168.269 269.268C170.662 269.681 175.614 269.406 178.668 266.847C180.374 265.416 181.282 263.435 181.282 261.152C181.282 253.806 178.366 251.495 171.212 247.588C170.304 247.093 168.846 246.515 166.645 245.827V213.912H226.348V297.276H166.645V297.249Z" fill="#1D1D1B"/>
<path d="M211.519 238.839H195.066C187.803 238.839 181.888 244.754 181.888 252.018V274.771C181.888 282.034 187.803 287.95 195.066 287.95H211.519C218.782 287.95 224.698 282.034 224.698 274.771V252.018C224.698 244.754 218.782 238.839 211.519 238.839ZM221.946 274.771C221.946 280.521 217.269 285.198 211.519 285.198H195.066C189.316 285.198 184.639 280.521 184.639 274.771V252.018C184.639 246.268 189.316 241.59 195.066 241.59H211.519C217.269 241.59 221.946 246.268 221.946 252.018V274.771Z" fill="#1D1D1B"/>
<path d="M193.057 255.099C192.287 255.099 191.682 255.704 191.682 256.475V268.965C191.682 269.736 192.287 270.341 193.057 270.341C193.828 270.341 194.433 269.736 194.433 268.965V256.475C194.433 255.704 193.828 255.099 193.057 255.099Z" fill="#1D1D1B"/>
<path d="M210.171 274.055H196.194C195.424 274.055 194.819 274.661 194.819 275.431C194.819 276.201 195.424 276.807 196.194 276.807H210.171C210.941 276.807 211.546 276.201 211.546 275.431C211.546 274.661 210.941 274.055 210.171 274.055Z" fill="#1D1D1B"/>
<path d="M199.028 252.953H205.879C206.649 252.953 207.255 252.348 207.255 251.577C207.255 250.807 206.649 250.202 205.879 250.202H199.028C198.258 250.202 197.653 250.807 197.653 251.577C197.653 252.348 198.258 252.953 199.028 252.953Z" fill="#1D1D1B"/>
<path d="M214.545 255.264C213.775 255.264 213.169 255.869 213.169 256.64V260.684C213.169 261.455 213.775 262.06 214.545 262.06C215.315 262.06 215.921 261.455 215.921 260.684V256.64C215.921 255.869 215.315 255.264 214.545 255.264Z" fill="#1D1D1B"/>
<path d="M214.545 263.601C213.775 263.601 213.169 264.206 213.169 264.976V269.021C213.169 269.791 213.775 270.396 214.545 270.396C215.315 270.396 215.921 269.791 215.921 269.021V264.976C215.921 264.206 215.315 263.601 214.545 263.601Z" fill="#1D1D1B"/>
</g>
<defs>
<clipPath id="clip0_141_19482">
<rect width="230" height="300" fill="white"/>
</clipPath>
</defs>
</svg>
