<svg width="140" height="185" viewBox="0 0 140 185" fill="none" xmlns="http://www.w3.org/2000/svg">
<g style="mix-blend-mode:multiply">
<path d="M110.969 117.558H84.1331V98.6571C84.1331 93.7728 79.6095 89.7635 73.769 89.3658V86.6133C73.769 86.0247 74.0935 85.4678 74.6661 85.0701C76.9183 83.495 78.2162 81.1881 78.2162 78.738C78.2162 76.7333 77.3382 74.84 75.8304 73.3763H111.656C127.002 73.3763 139.504 62.9554 139.504 50.1638C139.504 37.3723 127.002 26.9513 111.656 26.9513H93.3519V26.824C93.3519 26.3786 92.932 26.0286 92.3976 26.0286C91.8632 26.0286 91.4433 26.3786 91.4433 26.824V27.0945C90.6416 27.3332 89.9927 27.8582 89.7064 28.5423H88.0458V26.0286H73.7881V15.8303H75.964C78.8842 15.8303 81.251 13.8416 81.251 11.4074C81.251 8.97317 78.8842 7.00034 75.964 7.00034H73.7881V2.72059C73.7881 1.22506 72.3184 0 70.5243 0H65.9625C64.1684 0 62.6987 1.22506 62.6987 2.72059V7.00034H60.5228C57.6026 7.00034 55.2167 8.97317 55.2167 11.4074C55.2167 13.8416 57.6026 15.8303 60.5228 15.8303H62.6987V37.3882H50.655C49.2617 37.3882 48.0211 38.0405 47.4103 39.0906C46.7995 40.1565 46.9904 41.3816 47.8874 42.3044C51.6475 46.1864 56.8964 48.8751 62.6987 49.9252V54.8732C62.6987 56.0664 62.107 57.2596 61.0573 58.2142C59.3395 59.7416 58.3851 61.7303 58.3851 63.8304C58.3851 65.5964 59.0341 67.251 60.2174 68.6193H35.6338C17.8641 68.6193 3.41547 80.6631 3.41547 95.4751C3.41547 110.287 17.8641 122.331 35.6338 122.331H52.4683V136.141C52.4683 137.97 51.6094 139.705 50.0633 141.009C48.4791 142.314 46.3987 143.03 44.2037 143.03C38.5731 143.03 33.267 144.859 29.297 148.185C25.3842 151.446 23.2274 155.742 23.132 160.324C15.4019 160.197 9.14147 154.93 9.14147 148.439V140.5C9.14147 140.5 9.14147 140.436 9.14147 140.405H9.35143C10.8974 140.405 12.1381 139.355 12.1381 138.082V128.186C12.1381 126.897 10.8784 125.863 9.35143 125.863H3.24369C1.69767 125.863 0.457031 126.913 0.457031 128.186V138.082C0.457031 139.37 1.71675 140.405 3.24369 140.405H3.41547C3.41547 140.405 3.41547 140.468 3.41547 140.5V148.439C3.41547 157.619 12.3862 165.097 23.3992 165.097H23.7619C25.9568 172.829 33.6679 178.732 43.3448 179.718L43.0013 180.004C42.3332 180.561 41.9706 181.293 41.9706 182.073C41.9706 182.852 42.3332 183.584 43.0013 184.141C43.6693 184.698 44.5473 185 45.4825 185C46.4178 185 47.2958 184.698 47.9638 184.141L51.7048 181.023C52.0865 180.72 52.3728 180.323 52.5446 179.893H84.2476C84.4194 180.307 84.6866 180.704 85.0683 181.007L88.8093 184.141C89.4964 184.698 90.3935 184.984 91.2906 184.984C92.1876 184.984 93.0847 184.698 93.7528 184.141C94.4208 183.584 94.8025 182.852 94.8025 182.073C94.8025 181.293 94.4399 180.545 93.7718 180.004L93.4092 179.686C103.048 178.652 110.721 172.718 112.878 165.001C127.727 164.174 139.504 153.88 139.504 141.311C139.504 128.743 126.715 117.526 110.969 117.526V117.558ZM3.24369 138.83C2.76652 138.83 2.3657 138.495 2.3657 138.098V128.202C2.3657 127.804 2.76652 127.47 3.24369 127.47H9.33234C9.80951 127.47 10.2103 127.804 10.2103 128.202V138.098C10.2103 138.495 9.80951 138.83 9.33234 138.83H8.30166C7.78632 138.4 7.06102 138.13 6.27847 138.13C5.49592 138.13 4.77062 138.4 4.25528 138.83H3.26277H3.24369ZM76.3075 78.738C76.3075 80.7267 75.2578 82.5882 73.4445 83.845C72.4329 84.5451 71.8603 85.5474 71.8603 86.6133V90.1294L71.9939 90.9249H72.9483C78.0635 90.9249 82.2244 94.3933 82.2244 98.6571V117.558H54.3769V98.6571C54.3769 94.3933 58.5378 90.9249 63.653 90.9249H64.6074V86.5338C64.6074 85.4997 64.0539 84.5132 63.0614 83.7973C61.3054 82.5404 60.2938 80.7108 60.2938 78.738C60.2938 76.606 61.5344 74.6014 63.5767 73.3763H73.0246C75.0669 74.6014 76.3075 76.5901 76.3075 78.738ZM89.6873 30.1333C89.9736 30.8015 90.6034 31.3425 91.4242 31.5811V31.8516C91.4242 32.297 91.8441 32.6471 92.3785 32.6471C92.9129 32.6471 93.3328 32.297 93.3328 31.8516V31.7243H111.637C123.833 31.7243 133.758 39.9974 133.758 50.1638C133.758 60.3302 123.833 68.6034 111.637 68.6034H76.3648C77.5482 67.2351 78.2162 65.5646 78.2162 63.8145C78.2162 61.6667 77.2428 59.6302 75.4677 58.1188C74.3607 57.1642 73.769 55.955 73.769 54.7459V49.9411C79.6095 48.9069 84.8774 46.2182 88.6948 42.2884C89.5919 41.3657 89.7827 40.1406 89.172 39.0746C88.5803 38.0246 87.3396 37.3882 85.9463 37.3882H73.769V32.6471H88.0267V30.1333H89.6873ZM86.1181 27.6195V31.0561H73.769V27.6195H86.1181ZM64.6074 2.72059C64.6074 2.1001 65.2182 1.59099 65.9625 1.59099H70.5243C71.2686 1.59099 71.8794 2.1001 71.8794 2.72059V7.00034H64.6265V2.72059H64.6074ZM60.5037 14.2393C58.6333 14.2393 57.1063 12.9665 57.1063 11.4074C57.1063 9.84821 58.6333 8.59133 60.5037 8.59133H75.9258C77.7963 8.59133 79.3041 9.86412 79.3041 11.4074C79.3041 12.9506 77.7772 14.2393 75.9258 14.2393H60.5037ZM64.6074 15.8303H71.8603V37.3882H64.6074V15.8303ZM60.2938 63.8145C60.2938 62.1121 61.0573 60.5052 62.4506 59.2802C63.8439 58.0233 64.6074 56.4482 64.6074 54.8572V48.5888L63.8248 48.4615C58.1561 47.6023 53.0218 45.0409 49.3762 41.2861C48.9372 40.8406 48.8609 40.2679 49.1472 39.7588C49.4335 39.2656 49.987 38.9633 50.655 38.9633H85.9463C86.5952 38.9633 87.1678 39.2497 87.4351 39.7429C87.7214 40.252 87.645 40.8247 87.206 41.2702C83.5223 45.0727 78.3498 47.6342 72.6429 48.4774L71.8603 48.5888V54.7141C71.8603 56.3528 72.662 57.9438 74.0935 59.2006C75.525 60.4257 76.3075 62.0485 76.3075 63.7827C76.3075 65.6123 75.3914 67.3465 73.8453 68.5715H62.756C61.21 67.3306 60.3129 65.6282 60.3129 63.7827L60.2938 63.8145ZM35.6338 117.558C21.0325 117.558 9.14147 107.646 9.14147 95.4751C9.14147 83.3041 21.0325 73.3923 35.6338 73.3923H60.771C59.2631 74.856 58.3851 76.7651 58.3851 78.7539C58.3851 81.1881 59.6448 83.4791 61.8207 85.0224C62.3742 85.4201 62.6987 85.9929 62.6987 86.5497V89.3817C56.9727 89.7794 52.4683 93.8046 52.4683 98.673V117.574H35.6338V117.558ZM30.6331 149.298C34.2596 146.275 39.0694 144.621 44.2037 144.621C46.914 144.621 49.4716 143.746 51.4185 142.139C53.3272 140.532 54.3769 138.4 54.3769 136.141V122.331H82.2244V136.141C82.2244 140.818 86.7861 144.621 92.3976 144.621C97.5128 144.621 102.342 146.275 105.968 149.298C107.495 150.571 108.717 152.019 109.633 153.594H26.9684C27.8846 152.019 29.1061 150.571 30.6331 149.298ZM110.969 160.34H25.0407C25.0789 158.558 25.4606 156.824 26.1668 155.185H110.415C111.122 156.808 111.503 158.542 111.542 160.308C111.332 160.308 111.141 160.34 110.95 160.34H110.969ZM110.874 165.113C110.263 167.038 109.289 168.851 107.991 170.458H28.5908C27.2929 168.851 26.3386 167.038 25.7278 165.113H110.874ZM46.6086 183.027C45.9979 183.52 44.9481 183.52 44.3564 183.027C44.051 182.773 43.8983 182.439 43.8983 182.089C43.8983 181.738 44.0701 181.404 44.3564 181.15L45.8643 179.909C45.9979 179.909 46.1315 179.909 46.246 179.909H50.3687L46.6086 183.043V183.027ZM92.4167 183.011C91.7868 183.536 90.7943 183.536 90.1645 183.011L86.4235 179.877H90.3553C90.5271 179.877 90.718 179.877 90.8898 179.877C90.8898 179.877 90.9088 179.877 90.9279 179.877L92.4167 181.134C92.7221 181.388 92.8939 181.723 92.8939 182.073C92.8939 182.423 92.7221 182.757 92.4167 183.011ZM91.6532 178.238L91.176 178.27C90.9088 178.302 90.6225 178.286 90.3553 178.302H46.246C46.036 178.302 45.7879 178.302 45.5207 178.286L45.1199 178.254C39.0312 178 33.687 175.645 30.0414 172.049H106.541C102.933 175.581 97.6655 177.92 91.6532 178.238ZM113.469 160.212C113.355 155.662 111.179 151.398 107.323 148.185C103.334 144.859 98.0473 143.03 92.4167 143.03C87.855 143.03 84.1521 139.943 84.1521 136.141V122.331H110.988C123.566 122.331 133.797 130.859 133.797 141.343C133.797 151.112 124.902 159.178 113.507 160.228L113.469 160.212Z" fill="#1D1D1B"/>
</g>
</svg>
