<svg width="186" height="185" viewBox="0 0 186 185" fill="none" xmlns="http://www.w3.org/2000/svg">
<g clip-path="url(#clip0_142_21805)">
<path d="M93.0194 22.2897C95.7979 22.2897 98.0444 25.0176 98.0444 28.3623C98.0444 31.707 95.7979 34.435 93.0194 34.435C90.2408 34.435 87.9746 31.707 87.9746 28.3623C87.9746 25.0176 90.2211 22.2897 93.0194 22.2897Z" fill="#1D1D1B"/>
<path d="M83.8168 36.7837H81.8462V145.759H83.8168V36.7837Z" fill="#1D1D1B"/>
<path d="M104.134 30.0228H102.163V145.783H104.134V30.0228Z" fill="#1D1D1B"/>
<path d="M83.8168 28.1489H81.8462V9.02957C81.8462 4.47509 84.9401 0.750854 88.7236 0.750854H97.2761C101.06 0.750854 104.134 4.45137 104.134 9.00585V21.3409H102.163V9.02957C102.163 5.77976 99.9758 3.1467 97.2761 3.1467H88.7236C86.0239 3.1467 83.8168 5.77976 83.8168 9.02957V28.1489Z" fill="#1D1D1B"/>
<path d="M124.786 164.594H122.815V152.282C122.815 149.341 120.825 146.969 118.381 146.969H67.5986C65.1748 146.969 63.1845 149.341 63.1845 152.282V164.594H61.2139V152.282C61.2139 148.036 64.0713 144.597 67.5986 144.597H118.381C121.909 144.597 124.786 148.036 124.786 152.282V164.594Z" fill="#1D1D1B"/>
<path d="M145.714 184.615H40.2661C38.8472 184.615 37.6846 183.215 37.6846 181.483V171.093C37.6846 166.847 40.542 163.408 44.0694 163.408H141.93C145.457 163.408 148.315 166.847 148.315 171.093V181.483C148.315 183.215 147.152 184.615 145.714 184.615ZM44.0694 165.78C41.6455 165.78 39.6552 168.152 39.6552 171.093V181.483C39.6552 181.91 39.9311 182.242 40.2661 182.242H145.714C146.049 182.242 146.344 181.887 146.344 181.483V171.093C146.344 168.152 144.374 165.78 141.93 165.78H44.0694Z" fill="#1D1D1B"/>
<path d="M24.0879 57.3973C22.137 57.3973 20.3437 55.8554 19.7919 53.4833C19.6934 52.9851 19.6343 52.5107 19.6343 52.06C19.6343 49.6167 20.9546 47.553 22.8858 46.8888L83.8171 26.5834V37.7086L83.088 37.9459L25.2702 57.2075C24.8761 57.3498 24.4623 57.3973 24.0682 57.3973H24.0879ZM81.8465 29.6909L23.4179 49.1423C22.334 49.5218 21.6049 50.6842 21.6049 52.0363C21.6049 52.2972 21.6443 52.5819 21.6837 52.8665C22.0384 54.4084 23.4179 55.3335 24.7382 54.9066L81.8268 35.8821V29.6909H81.8465Z" fill="#1D1D1B"/>
<path d="M102.163 31.5648V20.4396L102.892 20.2023L160.73 0.940686C161.873 0.561146 163.094 0.727195 164.139 1.46255C165.164 2.17419 165.912 3.33653 166.208 4.71237C166.307 5.21051 166.366 5.66122 166.366 6.13564C166.366 8.50777 165.026 10.619 163.134 11.2832L102.183 31.5885L102.163 31.5648ZM104.134 22.2661V28.4573L162.582 9.00591C163.646 8.65009 164.375 7.46403 164.375 6.13564C164.375 5.85099 164.356 5.61377 164.296 5.3054C164.139 4.57004 163.725 3.92956 163.154 3.5263C162.582 3.12304 161.892 3.02816 161.262 3.24165L104.153 22.2661H104.134Z" fill="#1D1D1B"/>
<path d="M35.9112 144.834C22.314 144.834 9.48532 137.646 0.755506 125.098C-0.0130324 124.007 -0.170681 122.512 0.341678 121.207C0.854037 119.879 1.91817 119.073 3.13995 119.073H68.7416C69.9437 119.073 71.0078 119.903 71.5202 121.207C72.0326 122.512 71.8749 124.007 71.1064 125.098C62.3569 137.646 49.5479 144.834 35.9309 144.834H35.9112ZM3.12024 121.445C2.46994 121.445 2.19405 122.038 2.11523 122.227C2.05611 122.393 1.85905 123.01 2.25317 123.58C10.6283 135.583 22.8855 142.462 35.9112 142.462C48.937 142.462 61.2139 135.583 69.589 123.58C69.9831 123.01 69.8058 122.393 69.7269 122.227C69.6481 122.038 69.3722 121.445 68.7219 121.445H3.12024Z" fill="#1D1D1B"/>
<path d="M60.13 120.733L35.9111 57.3498L11.7317 120.733L9.93848 119.76L35.9111 51.6804L61.9232 119.76L60.13 120.733Z" fill="#1D1D1B"/>
<path d="M150.049 106.287C136.452 106.287 123.624 99.0992 114.894 86.5507C114.125 85.4595 113.968 83.9651 114.48 82.6604C114.992 81.332 116.056 80.5255 117.278 80.5255H182.88C184.082 80.5255 185.146 81.3558 185.658 82.6604C186.171 83.9651 186.013 85.4595 185.245 86.5507C176.495 99.0992 163.686 106.287 150.069 106.287H150.049ZM117.258 82.8976C116.608 82.8976 116.332 83.4907 116.253 83.6804C116.194 83.8465 115.997 84.4632 116.391 85.0325C124.766 97.0355 137.024 103.915 150.049 103.915C163.075 103.915 175.352 97.0355 183.727 85.0325C184.121 84.4632 183.944 83.8465 183.865 83.6804C183.786 83.4907 183.51 82.8976 182.86 82.8976H117.258Z" fill="#1D1D1B"/>
<path d="M174.268 82.1859L150.049 18.8027L125.869 82.1859L124.076 81.2133L150.049 13.1333L176.061 81.2133L174.268 82.1859Z" fill="#1D1D1B"/>
<path d="M93.0198 35.5976C89.6895 35.5976 86.9897 32.3478 86.9897 28.3389C86.9897 24.33 89.6895 21.0802 93.0198 21.0802C96.3502 21.0802 99.0302 24.33 99.0302 28.3389C99.0302 32.3478 96.3304 35.5976 93.0198 35.5976ZM93.0198 23.476C90.7733 23.476 88.9604 25.6584 88.9604 28.3626C88.9604 31.0669 90.7733 33.2492 93.0198 33.2492C95.2663 33.2492 97.0596 31.0669 97.0596 28.3626C97.0596 25.6584 95.2466 23.476 93.0198 23.476Z" fill="#1D1D1B"/>
</g>
<defs>
<clipPath id="clip0_142_21805">
<rect width="185.911" height="185" fill="white" transform="translate(0.0444336)"/>
</clipPath>
</defs>
</svg>
