<svg width="19" height="22" viewBox="0 0 19 22" fill="none" xmlns="http://www.w3.org/2000/svg">
<path fill-rule="evenodd" clip-rule="evenodd" d="M10.5931 21.0431L10.582 21.0451L10.511 21.0801L10.491 21.0841L10.477 21.0801L10.406 21.0451C10.3954 21.0418 10.3874 21.0434 10.382 21.0501L10.378 21.0601L10.361 21.4881L10.366 21.5081L10.376 21.5211L10.48 21.5951L10.495 21.5991L10.507 21.5951L10.611 21.5211L10.623 21.5051L10.627 21.4881L10.61 21.0611C10.6074 21.0504 10.6017 21.0444 10.5931 21.0431ZM10.858 20.9301L10.845 20.9321L10.66 21.0251L10.65 21.0351L10.647 21.0461L10.665 21.4761L10.67 21.4881L10.6781 21.4951L10.879 21.5881C10.8917 21.5914 10.9014 21.5888 10.908 21.5801L10.912 21.5661L10.878 20.9521C10.8747 20.9401 10.868 20.9328 10.858 20.9301ZM10.143 20.9321C10.1386 20.9294 10.1334 20.9286 10.1283 20.9297C10.1233 20.9308 10.1189 20.9338 10.116 20.9381L10.11 20.9521L10.076 21.5661C10.0767 21.5781 10.0824 21.5861 10.0931 21.5901L10.108 21.5881L10.309 21.4951L10.319 21.4871L10.323 21.4761L10.34 21.0461L10.337 21.0341L10.327 21.0241L10.143 20.9321Z" fill="currentColor"/>
<path fill-rule="evenodd" clip-rule="evenodd" d="M6.993 2.94816C7.162 4.37116 6.931 5.85516 6.417 7.18716C5.848 8.66116 5.092 10.2572 4.998 11.8442C4.919 13.1812 5.222 14.7632 6.03 15.8462C6.915 17.0322 8.368 17.7852 9.967 17.7852H11.479C12.7333 17.7852 13.9418 17.3139 14.8648 16.4646C15.7878 15.6153 16.3579 14.4501 16.462 13.2002L16.823 8.86816C16.8345 8.73028 16.8172 8.59152 16.7723 8.46065C16.7274 8.32978 16.6559 8.20965 16.5622 8.10786C16.4685 8.00607 16.3546 7.92484 16.2279 7.86929C16.1012 7.81374 15.9644 7.78509 15.826 7.78516H10.5C10.1036 7.78464 9.7235 7.62757 9.44238 7.34813C9.16126 7.06869 9.0019 6.68952 8.999 6.29316C8.991 5.32316 9.052 4.12616 8.606 3.23316C8.206 2.43316 7.832 2.28516 7.5 2.28516C7.2 2.28516 6.96 2.67816 6.993 2.94816ZM7.5 0.285156C8.856 0.285156 9.794 1.13716 10.395 2.33816C10.917 3.38316 10.966 4.63816 10.992 5.78516H15.826C16.2411 5.7851 16.6516 5.87117 17.0317 6.03793C17.4118 6.2047 17.7532 6.44852 18.0342 6.75399C18.3153 7.05945 18.5298 7.41991 18.6644 7.81256C18.799 8.20522 18.8506 8.62153 18.816 9.03516L18.455 13.3662C18.3093 15.1161 17.5112 16.7473 16.219 17.9363C14.9268 19.1253 13.235 19.7852 11.479 19.7852H9.967C9.0184 19.7877 8.07935 19.5957 7.20785 19.2211C6.33635 18.8465 5.5509 18.2972 4.9 17.6072C4.44291 17.7264 3.97237 17.7862 3.5 17.7852C2.392 17.7852 1.472 17.1652 0.876 16.1772C0.296 15.2172 0 13.8922 0 12.2852C0 10.6782 0.297 9.35416 0.876 8.39416C1.472 7.40516 2.392 6.78516 3.5 6.78516C3.781 6.78516 4.079 6.83516 4.377 6.91916C4.835 5.71916 5.161 4.48216 5.007 3.18416C4.835 1.73916 6.016 0.285156 7.5 0.285156ZM3.696 8.80916C3.211 8.70916 2.831 9.02516 2.589 9.42716C2.263 9.96716 2 10.8912 2 12.2852C2 13.6792 2.263 14.6042 2.588 15.1442C2.898 15.6562 3.228 15.7852 3.5 15.7852C3.564 15.7852 3.62733 15.7835 3.69 15.7802C3.154 14.5722 2.924 13.0402 3.002 11.7262C3.049 10.9212 3.363 9.80816 3.696 8.80916Z" fill="currentColor"/>
</svg>
