<svg width="280" height="62" viewBox="0 0 280 62" fill="none" xmlns="http://www.w3.org/2000/svg">
<g clip-path="url(#clip0_3839_85)">
<path d="M112.662 45.1593L110.032 42.0515C107.496 43.5783 104.517 44.1905 100.972 44.1905C90.3827 44.1905 82.7183 36.6653 82.7183 25.9935C82.7183 16.0193 91.4765 9.02101 100.972 9.02101C111.258 9.02101 119.225 15.9728 119.225 26.691C119.225 31.062 117.736 34.8673 114.974 38.2773L120.536 43.9193L112.655 45.1438L112.662 45.1593ZM108.768 31.6045C109.777 30.2095 110.304 28.4115 110.304 26.753C110.304 21.8085 106.193 17.3523 101.026 17.3523C95.8595 17.3523 91.6549 21.5063 91.6549 26.0555C91.6549 31.744 95.8983 35.898 101.026 35.898C101.903 35.898 102.771 35.7663 103.656 35.464L98.3574 30.2173L106.456 29.2098L108.776 31.6123L108.768 31.6045Z" fill="black"/>
<path d="M130.869 20.6693V32.6508C130.869 35.495 131.567 37.51 134.849 37.51C138.13 37.51 138.828 35.495 138.828 32.6508V20.6693H146.795V34.1853C146.795 41.5788 141.59 43.8495 134.841 43.8495C128.092 43.8495 122.895 41.5788 122.895 34.1853V20.6693H130.862H130.869Z" fill="black"/>
<path d="M160.325 12.0512C160.325 14.5002 158.308 16.5153 155.857 16.5153C153.405 16.5153 151.388 14.5002 151.388 12.0512C151.388 9.60225 153.405 7.58725 155.857 7.58725C158.308 7.58725 160.325 9.60225 160.325 12.0512ZM159.844 43.1055H151.877V20.6692H159.844V43.1055Z" fill="black"/>
<path d="M173.807 43.1055H165.84V27.2257H163.257V20.6692H165.84V13.9345H173.807V20.6692H178.314V27.2257H173.807V43.1055Z" fill="black"/>
<path d="M188.562 23.2035H188.648C190.09 20.9715 192.806 19.9252 195.435 19.9252C202.138 19.9252 206.769 25.5207 206.769 31.9532C206.769 38.3857 202.177 43.8495 195.521 43.8495C192.937 43.8495 190.269 42.9272 188.562 40.9665V54.3042H180.595V20.6692H188.562V23.2035ZM188.298 31.9067C188.298 34.751 190.184 36.9365 193.418 36.9365C196.653 36.9365 198.538 34.751 198.538 31.9067C198.538 29.0625 196.653 26.8305 193.418 26.8305C190.184 26.8305 188.298 29.1477 188.298 31.9067Z" fill="black"/>
<path d="M235.262 43.1055H227.295V40.6178H227.21C225.806 42.8498 223.052 43.8573 220.422 43.8573C213.774 43.8573 209.088 38.3005 209.088 31.8757C209.088 25.451 213.681 19.9408 220.337 19.9408C222.92 19.9408 225.635 20.9017 227.295 22.8702V20.6847H235.262V43.121V43.1055ZM217.311 31.9067C217.311 34.751 219.196 36.9365 222.439 36.9365C225.682 36.9365 227.559 34.751 227.559 31.9067C227.559 29.0625 225.674 26.8305 222.439 26.8305C219.204 26.8305 217.311 29.1477 217.311 31.9067Z" fill="black"/>
<path d="M249.272 43.1055H241.298V27.2257H238.722V20.6692H241.298V13.9345H249.272V20.6692H253.78V27.2257H249.272V43.1055Z" fill="black"/>
<path d="M264.283 6.8045V23.5135H264.369C266.207 21.0645 268.441 19.9253 271.552 19.9253C277.246 19.9253 280 23.684 280 29.3725V43.1055H272.033V31.6045C272.033 28.9772 271.638 26.2725 268.441 26.2725C265.245 26.2725 264.283 28.985 264.283 31.6045V43.1055H256.316V6.8045H264.283Z" fill="black"/>
<path d="M20.1927 1.953C19.8591 2.077 19.5411 2.22425 19.2152 2.36375C15.0494 5.7815 12.3809 10.9663 12.3809 16.771C12.3809 17.4453 12.4196 18.1118 12.4895 18.7628C16.4536 12.772 23.2336 8.82725 30.9369 8.82725C34.389 8.82725 37.6704 9.6255 40.5795 11.0438C40.851 11.1755 41.107 11.3228 41.3707 11.4623C42.6274 11.191 43.9307 11.0438 45.2805 11.0438C50.2453 11.0438 54.7602 13.02 58.0959 16.2208C52.8441 6.5875 42.643 0.0232544 30.9369 0.0232544C27.1589 0.0232544 23.5439 0.705254 20.1927 1.953Z" fill="#87CBA0"/>
<mask id="mask0_3839_85" style="mask-type:luminance" maskUnits="userSpaceOnUse" x="12" y="0" width="47" height="19">
<path d="M20.1927 1.953C19.8591 2.077 19.5411 2.22425 19.2152 2.36375C15.0494 5.7815 12.3809 10.9663 12.3809 16.771C12.3809 17.4453 12.4196 18.1118 12.4895 18.7628C16.4536 12.772 23.2336 8.82725 30.9369 8.82725C34.389 8.82725 37.6704 9.6255 40.5795 11.0438C40.851 11.1755 41.107 11.3228 41.3707 11.4623C42.6274 11.191 43.9307 11.0438 45.2805 11.0438C50.2453 11.0438 54.7602 13.02 58.0959 16.2208C52.8441 6.5875 42.643 0.0232544 30.9369 0.0232544C27.1589 0.0232544 23.5439 0.705254 20.1927 1.953Z" fill="white"/>
</mask>
<g mask="url(#mask0_3839_85)">
<path d="M58.0959 0.0232544H12.3809V18.7628H58.0959V0.0232544Z" fill="#87CBA0"/>
</g>
<path d="M0 31C0 34.8208 0.698177 38.4788 1.97041 41.8655C2.04023 42.0593 2.13332 42.2375 2.20314 42.4235C5.60869 46.7558 10.8683 49.5458 16.7795 49.5458C17.4156 49.5458 18.044 49.5148 18.6646 49.4528C12.7223 45.477 8.80479 38.6958 8.80479 31C8.80479 27.59 9.57278 24.366 10.9459 21.483C11.3958 20.5375 11.9078 19.6308 12.4819 18.7628C12.412 18.104 12.3732 17.4453 12.3732 16.771C12.3732 10.9663 15.0341 5.77375 19.2076 2.36375C7.95922 6.99825 0 18.073 0 31Z" fill="#87CBA0"/>
<mask id="mask1_3839_85" style="mask-type:luminance" maskUnits="userSpaceOnUse" x="0" y="2" width="20" height="48">
<path d="M0 31C0 34.8208 0.698177 38.4788 1.97041 41.8655C2.04023 42.0593 2.13332 42.2375 2.20314 42.4235C5.60869 46.7558 10.8683 49.5458 16.7795 49.5458C17.4156 49.5458 18.044 49.5148 18.6646 49.4528C12.7223 45.477 8.80479 38.6958 8.80479 31C8.80479 27.59 9.57278 24.366 10.9459 21.483C11.3958 20.5375 11.9078 19.6308 12.4819 18.7628C12.412 18.104 12.3732 17.4453 12.3732 16.771C12.3732 10.9663 15.0341 5.77375 19.2076 2.36375C7.95922 6.99825 0 18.073 0 31Z" fill="white"/>
</mask>
<g mask="url(#mask1_3839_85)">
<path d="M19.2154 2.36375H0V49.5535H19.2154V2.36375Z" fill="#87CBA0"/>
</g>
<path d="M41.371 11.4623C48.3218 15.1978 53.0461 22.5448 53.0461 31C53.0461 35.495 51.7041 39.6723 49.4156 43.1598C49.1673 43.5318 48.9191 43.9115 48.6554 44.268H58.872C60.7881 40.2458 61.8587 35.743 61.8587 31C61.8587 27.1793 61.1605 23.5213 59.896 20.1423C59.3918 18.786 58.7789 17.484 58.0885 16.2208C54.7528 13.02 50.2379 11.0438 45.2731 11.0438C43.931 11.0438 42.6278 11.191 41.3633 11.4623" fill="#87CBA0"/>
<mask id="mask2_3839_85" style="mask-type:luminance" maskUnits="userSpaceOnUse" x="41" y="11" width="21" height="34">
<path d="M41.371 11.4623C48.3218 15.1978 53.0461 22.5448 53.0461 31C53.0461 35.495 51.7041 39.6723 49.4156 43.1598C49.1673 43.5318 48.9191 43.9115 48.6554 44.268H58.872C60.7881 40.2458 61.8587 35.743 61.8587 31C61.8587 27.1793 61.1605 23.5213 59.896 20.1423C59.3918 18.786 58.7789 17.484 58.0885 16.2208C54.7528 13.02 50.2379 11.0438 45.2731 11.0438C43.931 11.0438 42.6278 11.191 41.3633 11.4623" fill="white"/>
</mask>
<g mask="url(#mask2_3839_85)">
<path d="M61.8587 11.0438H41.3711V44.2758H61.8587V11.0438Z" fill="#87CBA0"/>
</g>
<path d="M17.7261 30.938C17.7261 37.8742 23.0788 43.5782 29.8588 44.1362C33.2489 40.765 35.3667 36.0917 35.3667 30.938C35.3667 33.3947 33.373 35.3865 30.9449 35.3865C25.8017 35.3865 21.1471 33.2785 17.7804 29.884C17.7493 30.2327 17.7261 30.5815 17.7261 30.938Z" fill="#87CBA0"/>
<mask id="mask3_3839_85" style="mask-type:luminance" maskUnits="userSpaceOnUse" x="17" y="29" width="19" height="16">
<path d="M17.7261 30.938C17.7261 37.8742 23.0788 43.5782 29.8588 44.1362C33.2489 40.765 35.3667 36.0917 35.3667 30.938C35.3667 33.3947 33.373 35.3865 30.9449 35.3865C25.8017 35.3865 21.1471 33.2785 17.7804 29.884C17.7493 30.2327 17.7261 30.5815 17.7261 30.938Z" fill="white"/>
</mask>
<g mask="url(#mask3_3839_85)">
<path d="M35.3667 29.884H17.7261V44.1362H35.3667V29.884Z" fill="#87CBA0"/>
</g>
<path d="M30.929 26.5825C33.3804 26.5825 35.3741 28.551 35.3741 30.9845C35.3741 36.1228 33.264 40.7728 29.8662 44.1363C30.2153 44.1673 30.5721 44.1905 30.929 44.1905C37.8797 44.1905 43.5815 38.843 44.1401 32.0695C40.7655 28.6905 36.0877 26.5903 30.9445 26.5903L30.929 26.5825Z" fill="#87CBA0"/>
<mask id="mask4_3839_85" style="mask-type:luminance" maskUnits="userSpaceOnUse" x="29" y="26" width="16" height="19">
<path d="M30.929 26.5825C33.3804 26.5825 35.3741 28.551 35.3741 30.9845C35.3741 36.1228 33.264 40.7728 29.8662 44.1363C30.2153 44.1673 30.5721 44.1905 30.929 44.1905C37.8797 44.1905 43.5815 38.843 44.1401 32.0695C40.7655 28.6905 36.0877 26.5903 30.9445 26.5903L30.929 26.5825Z" fill="white"/>
</mask>
<g mask="url(#mask4_3839_85)">
<path d="M44.1323 26.5825H29.8662V44.1905H44.1323V26.5825Z" fill="#87CBA0"/>
</g>
<path d="M17.7803 29.884C21.1548 33.2708 25.7705 35.3865 30.9293 35.3865C28.4701 35.3865 26.4765 33.418 26.4765 30.9845C26.4765 25.854 28.5865 21.1963 31.9843 17.8328C31.6352 17.8095 31.2861 17.7863 30.9293 17.7863C23.9863 17.7863 18.3311 23.1105 17.7803 29.8918" fill="#87CBA0"/>
<mask id="mask5_3839_85" style="mask-type:luminance" maskUnits="userSpaceOnUse" x="17" y="17" width="15" height="19">
<path d="M17.7803 29.884C21.1548 33.2708 25.7705 35.3865 30.9293 35.3865C28.4701 35.3865 26.4765 33.418 26.4765 30.9845C26.4765 25.854 28.5865 21.1963 31.9843 17.8328C31.6352 17.8095 31.2861 17.7863 30.9293 17.7863C23.9863 17.7863 18.3311 23.1105 17.7803 29.8918" fill="white"/>
</mask>
<g mask="url(#mask5_3839_85)">
<path d="M31.9843 17.771H17.7803V35.379H31.9843V17.771Z" fill="#87CBA0"/>
</g>
<path d="M26.4844 31.0232C26.4844 28.5665 28.4781 26.5747 30.9139 26.5747C36.0494 26.5747 40.766 28.6672 44.1327 32.054C44.1638 31.7052 44.1327 31.372 44.1327 31.0155C44.1327 24.0792 38.78 18.3752 31.9922 17.8172C28.6099 21.1885 26.4844 25.8617 26.4844 31.0155" fill="#87CBA0"/>
<mask id="mask6_3839_85" style="mask-type:luminance" maskUnits="userSpaceOnUse" x="26" y="17" width="19" height="16">
<path d="M26.4844 31.0232C26.4844 28.5665 28.4781 26.5747 30.9139 26.5747C36.0494 26.5747 40.766 28.6672 44.1327 32.054C44.1638 31.7052 44.1327 31.372 44.1327 31.0155C44.1327 24.0792 38.78 18.3752 31.9922 17.8172C28.6099 21.1885 26.4844 25.8617 26.4844 31.0155" fill="white"/>
</mask>
<g mask="url(#mask6_3839_85)">
<path d="M44.1638 17.8325H26.4844V32.0615H44.1638V17.8325Z" fill="#87CBA0"/>
</g>
<path d="M2.20312 42.4235C6.75679 53.8625 17.9121 61.9767 30.937 61.9767H57.4522C59.8958 61.9767 61.8662 60.0005 61.8662 57.567C61.8662 55.1335 59.8958 53.1572 57.4522 53.1572H30.9525L30.937 53.165C27.4771 53.165 24.2035 52.3667 21.2944 50.9562C20.379 50.5145 19.5102 50.0107 18.6723 49.445C18.0517 49.507 17.4234 49.538 16.7873 49.538C10.876 49.538 5.60868 46.748 2.21088 42.4157L2.20312 42.4235Z" fill="#87CBA0"/>
<mask id="mask7_3839_85" style="mask-type:luminance" maskUnits="userSpaceOnUse" x="2" y="42" width="60" height="20">
<path d="M2.20312 42.4235C6.75679 53.8625 17.9121 61.9767 30.937 61.9767H57.4522C59.8958 61.9767 61.8662 60.0005 61.8662 57.567C61.8662 55.1335 59.8958 53.1572 57.4522 53.1572H30.9525L30.937 53.165C27.4771 53.165 24.2035 52.3667 21.2944 50.9562C20.379 50.5145 19.5102 50.0107 18.6723 49.445C18.0517 49.507 17.4234 49.538 16.7873 49.538C10.876 49.538 5.60868 46.748 2.21088 42.4157L2.20312 42.4235Z" fill="white"/>
</mask>
<g mask="url(#mask7_3839_85)">
<path d="M61.8585 42.4234H2.20312V61.9766H61.8585V42.4234Z" fill="#87CBA0"/>
</g>
</g>
<defs>
<clipPath id="clip0_3839_85">
<rect width="280" height="61.9535" fill="white" transform="translate(0 0.0232544)"/>
</clipPath>
</defs>
</svg>
