<svg width="50" height="43" viewBox="0 0 50 43" fill="none" xmlns="http://www.w3.org/2000/svg">
<g clip-path="url(#clip0_131_6738)">
<path d="M36.4026 42.9114H6.83374V42.3415H36.4026C37.8674 42.3415 39.1213 41.3497 39.4519 39.9306L40.0047 40.0617C39.6114 41.743 38.1296 42.9171 36.3969 42.9171L36.4026 42.9114Z" fill="black"/>
<path d="M40.1129 5.08966H39.543V16.5684H40.1129V5.08966Z" fill="black"/>
<path d="M40.1128 5.37461H3.4082V4.80466H39.5429V3.71036C39.5429 1.97772 38.1351 0.569948 36.4025 0.569948H6.83359V0L36.4025 0C38.4486 0 40.1128 1.66425 40.1128 3.71036V5.37461Z" fill="black"/>
<path d="M6.83367 42.9114H3.71036C1.66425 42.9114 0 41.2471 0 39.201V3.71036C0 1.66425 1.66425 0 3.71036 0H6.83367V0.569948C5.10103 0.569948 3.69326 1.97772 3.69326 3.71036V39.201C3.69326 40.9336 5.10103 42.3414 6.83367 42.3414V42.9114ZM3.71036 0.569948C1.97772 0.569948 0.569948 1.97772 0.569948 3.71036V39.201C0.569948 40.9336 1.97772 42.3414 3.71036 42.3414H4.86165C3.81865 41.686 3.12331 40.5233 3.12331 39.201V3.71036C3.12331 2.38808 3.81865 1.22539 4.86165 0.569948H3.71036Z" fill="black"/>
<path d="M3.40823 4.80469H0.284912V5.37464H3.40823V4.80469Z" fill="black"/>
<path d="M13.3483 17.0756H8.85138C8.33843 17.0756 7.92236 16.6595 7.92236 16.1523V11.6497C7.92236 11.1424 8.33843 10.7264 8.85138 10.7264H13.3483C13.8612 10.7264 14.2773 11.1424 14.2773 11.6497V16.1523C14.2773 16.6595 13.8612 17.0756 13.3483 17.0756ZM8.85138 11.2963C8.6519 11.2963 8.49231 11.4559 8.49231 11.6497V16.1523C8.49231 16.3461 8.6519 16.5056 8.85138 16.5056H13.3483C13.5477 16.5056 13.7073 16.3518 13.7073 16.1523V11.6497C13.7073 11.4502 13.5477 11.2963 13.3483 11.2963H8.85138Z" fill="black"/>
<path d="M13.3483 25.9839H8.85138C8.33843 25.9839 7.92236 25.5678 7.92236 25.0606V20.558C7.92236 20.0507 8.33843 19.6347 8.85138 19.6347H13.3483C13.8612 19.6347 14.2773 20.0507 14.2773 20.558V25.0606C14.2773 25.5678 13.8612 25.9839 13.3483 25.9839ZM8.85138 20.2046C8.6519 20.2046 8.49231 20.3642 8.49231 20.558V25.0606C8.49231 25.2544 8.6519 25.4139 8.85138 25.4139H13.3483C13.5477 25.4139 13.7073 25.2601 13.7073 25.0606V20.558C13.7073 20.3585 13.5477 20.2046 13.3483 20.2046H8.85138Z" fill="black"/>
<path d="M13.3483 34.8922H8.85138C8.33843 34.8922 7.92236 34.4761 7.92236 33.9632V29.4663C7.92236 28.9533 8.33843 28.5373 8.85138 28.5373H13.3483C13.8612 28.5373 14.2773 28.9533 14.2773 29.4663V33.9632C14.2773 34.4761 13.8612 34.8922 13.3483 34.8922ZM8.85138 29.1072C8.6576 29.1072 8.49231 29.2725 8.49231 29.4663V33.9632C8.49231 34.1569 8.6576 34.3222 8.85138 34.3222H13.3483C13.5477 34.3222 13.7073 34.1626 13.7073 33.9632V29.4663C13.7073 29.2668 13.5477 29.1072 13.3483 29.1072H8.85138Z" fill="black"/>
<path d="M12.9778 16.2492C12.9037 16.2492 12.8296 16.2207 12.7783 16.1637L9.03373 12.4248C8.91974 12.3108 8.91974 12.1341 9.03373 12.0202C9.14772 11.9062 9.32441 11.9062 9.4384 12.0202L13.183 15.759C13.2969 15.8673 13.2969 16.0497 13.183 16.1637C13.126 16.2207 13.0519 16.2492 12.9835 16.2492H12.9778Z" fill="black"/>
<path d="M9.18182 16.2492C9.10773 16.2492 9.03364 16.2207 8.98234 16.1637C8.87405 16.0497 8.87405 15.873 8.98234 15.759L12.7269 12.0202C12.8409 11.9062 13.0176 11.9062 13.1316 12.0202C13.2455 12.1341 13.2455 12.3108 13.1316 12.4248L9.387 16.1637C9.33001 16.2207 9.25592 16.2492 9.18752 16.2492H9.18182Z" fill="black"/>
<path d="M12.9778 24.9637C12.9037 24.9637 12.8296 24.9352 12.7783 24.8782L9.03373 21.1337C8.91974 21.0197 8.91974 20.843 9.03373 20.729C9.14772 20.615 9.32441 20.615 9.4384 20.729L13.183 24.4735C13.2969 24.5875 13.2969 24.7642 13.183 24.8782C13.126 24.9352 13.0519 24.9637 12.9835 24.9637H12.9778Z" fill="black"/>
<path d="M9.18195 24.9637C9.10785 24.9637 9.03376 24.9352 8.98246 24.8782C8.86848 24.7642 8.86848 24.5875 8.98246 24.4735L12.727 20.729C12.841 20.615 13.0177 20.615 13.1317 20.729C13.2457 20.843 13.2457 21.0197 13.1317 21.1337L9.38713 24.8782C9.33013 24.9352 9.25604 24.9637 9.18765 24.9637H9.18195Z" fill="black"/>
<path d="M29.2325 12.1114H15.6678C15.5082 12.1114 15.3828 11.986 15.3828 11.8264C15.3828 11.6668 15.5082 11.5414 15.6678 11.5414H29.2325C29.3921 11.5414 29.5175 11.6668 29.5175 11.8264C29.5175 11.986 29.3921 12.1114 29.2325 12.1114Z" fill="black"/>
<path d="M29.1584 14.186H15.6678C15.5082 14.186 15.3828 14.0606 15.3828 13.901C15.3828 13.7414 15.5082 13.6161 15.6678 13.6161H29.1584C29.318 13.6161 29.4434 13.7414 29.4434 13.901C29.4434 14.0606 29.318 14.186 29.1584 14.186Z" fill="black"/>
<path d="M26.0921 16.2492H15.6678C15.5082 16.2492 15.3828 16.1238 15.3828 15.9642C15.3828 15.8046 15.5082 15.6793 15.6678 15.6793H26.0921C26.2517 15.6793 26.3771 15.8046 26.3771 15.9642C26.3771 16.1238 26.2517 16.2492 26.0921 16.2492Z" fill="black"/>
<path d="M24.3196 21.0254H15.6678C15.5082 21.0254 15.3828 20.9 15.3828 20.7404C15.3828 20.5808 15.5082 20.4554 15.6678 20.4554H24.3196C24.4792 20.4554 24.6046 20.5808 24.6046 20.7404C24.6046 20.9 24.4792 21.0254 24.3196 21.0254Z" fill="black"/>
<path d="M31.4895 23.1H15.6678C15.5082 23.1 15.3828 22.9746 15.3828 22.815C15.3828 22.6554 15.5082 22.5301 15.6678 22.5301H31.4895C31.6491 22.5301 31.7745 22.6554 31.7745 22.815C31.7745 22.9746 31.6491 23.1 31.4895 23.1Z" fill="black"/>
<path d="M29.0559 25.1632H15.6678C15.5082 25.1632 15.3828 25.0378 15.3828 24.8782C15.3828 24.7187 15.5082 24.5933 15.6678 24.5933H29.0559C29.2154 24.5933 29.3408 24.7187 29.3408 24.8782C29.3408 25.0378 29.2154 25.1632 29.0559 25.1632Z" fill="black"/>
<path d="M32.0367 29.9279H15.6678C15.5082 29.9279 15.3828 29.8026 15.3828 29.643C15.3828 29.4834 15.5082 29.358 15.6678 29.358H32.0367C32.1963 29.358 32.3217 29.4834 32.3217 29.643C32.3217 29.8026 32.1963 29.9279 32.0367 29.9279Z" fill="black"/>
<path d="M23.1056 32.0083H15.6678C15.5082 32.0083 15.3828 31.8829 15.3828 31.7233C15.3828 31.5637 15.5082 31.4383 15.6678 31.4383H23.1056C23.2652 31.4383 23.3906 31.5637 23.3906 31.7233C23.3906 31.8829 23.2652 32.0083 23.1056 32.0083Z" fill="black"/>
<path d="M26.0921 34.0715H15.6678C15.5082 34.0715 15.3828 33.9461 15.3828 33.7865C15.3828 33.6269 15.5082 33.5015 15.6678 33.5015H26.0921C26.2517 33.5015 26.3771 33.6269 26.3771 33.7865C26.3771 33.9461 26.2517 34.0715 26.0921 34.0715Z" fill="black"/>
<path d="M42.5865 42.9113C41.5435 42.9113 40.5347 42.3243 40.0503 41.3212L39.0415 39.2067C39.0415 39.2067 39.0073 39.1611 38.9845 39.1554L38.4544 38.9673C38.2834 38.9103 38.1466 38.7792 38.0726 38.6139C37.9928 38.4714 37.9757 38.2719 38.0441 38.0953L38.1694 37.7305C38.1865 37.6849 38.1523 37.6108 38.101 37.5937L37.7249 37.4569C37.5539 37.4056 37.4057 37.2688 37.3316 37.0865C37.2632 36.9383 37.2518 36.7559 37.3088 36.5906L37.4456 36.2087C37.4627 36.1574 37.4285 36.0948 37.3715 36.072L37.001 35.9409C36.8187 35.8725 36.6762 35.7357 36.6021 35.5647C36.5337 35.4165 36.5223 35.2341 36.5793 35.0688L36.756 34.573C36.756 34.573 36.7617 34.516 36.756 34.4932L29.17 18.6259C28.885 18.0217 28.7425 17.3492 28.7653 16.6766L29.0674 8.3212C29.0788 7.85384 29.3524 7.43778 29.7741 7.2383C30.2016 7.03882 30.6974 7.09011 31.0736 7.38078L37.6622 12.4476C38.1865 12.8523 38.6083 13.3766 38.8876 13.958L40.0788 16.4487L46.4793 29.8367C46.4793 29.8367 46.5135 29.8823 46.5363 29.888L47.0378 30.0647C47.1974 30.1217 47.3285 30.2357 47.4083 30.3896C47.4995 30.5492 47.5166 30.7486 47.4482 30.9367L47.3171 31.3072C47.3 31.3585 47.3342 31.4326 47.3855 31.4497L47.756 31.5808C47.9326 31.6435 48.0694 31.7688 48.1378 31.9284C48.2176 32.0709 48.2347 32.2761 48.1663 32.4528L48.0409 32.8176C48.0295 32.8574 48.0409 32.8859 48.0409 32.903C48.0523 32.9201 48.0694 32.9429 48.1036 32.9543L48.4798 33.0854C48.6508 33.1424 48.799 33.2792 48.8731 33.4559C48.9415 33.5927 48.9529 33.7751 48.8959 33.9517L48.7135 34.4818C48.6964 34.5274 48.7078 34.5559 48.7135 34.5673L49.7223 36.6761C50.0472 37.3486 50.087 38.1124 49.842 38.8191C49.5912 39.5258 49.0839 40.0901 48.4057 40.415L43.7777 42.6321C43.3902 42.8144 42.9798 42.9056 42.5751 42.9056L42.5865 42.9113ZM30.3213 7.68286C30.2244 7.68286 30.1218 7.70565 30.0249 7.75125C29.7912 7.85954 29.6487 8.08182 29.643 8.3383L29.341 16.6937C29.3182 17.2694 29.4378 17.8564 29.6886 18.3808L29.7228 18.4606L37.2689 34.2367C37.3487 34.3906 37.3601 34.573 37.2974 34.7497L37.1207 35.2512C37.1207 35.2512 37.1207 35.3025 37.1264 35.3253C37.1435 35.3652 37.1663 35.3823 37.1948 35.3937L37.5596 35.5248C37.913 35.6502 38.101 36.0321 37.9814 36.3854L37.8446 36.7673C37.8446 36.7673 37.8446 36.8186 37.8503 36.8414C37.8617 36.8642 37.8731 36.8927 37.9073 36.8984L38.2891 37.0409C38.6368 37.1549 38.8249 37.5424 38.7052 37.9015L38.5741 38.2833C38.5741 38.2833 38.557 38.3232 38.5741 38.3517C38.5969 38.3973 38.614 38.4144 38.6368 38.4201L39.1669 38.6082C39.3321 38.6652 39.4689 38.7906 39.5487 38.9502L40.5575 41.0704C41.0933 42.1761 42.4269 42.6491 43.5326 42.1191L48.1606 39.902C48.7021 39.6455 49.1067 39.1953 49.3062 38.631C49.5057 38.0668 49.4715 37.4626 49.2093 36.9269L48.2005 34.8181C48.1207 34.6471 48.115 34.4533 48.1834 34.2823L48.3601 33.7694C48.3715 33.7295 48.3601 33.7067 48.3601 33.6953C48.343 33.6554 48.3259 33.6326 48.3031 33.6269L47.9269 33.4958C47.7617 33.4388 47.6192 33.3191 47.5394 33.1538C47.4596 32.9885 47.4482 32.8005 47.5109 32.6295L47.642 32.259C47.6534 32.2305 47.6534 32.202 47.642 32.1849C47.6249 32.145 47.6021 32.1279 47.5793 32.1222L47.2031 31.9911C46.844 31.86 46.6617 31.4725 46.787 31.1191L46.9181 30.7486C46.9295 30.7144 46.9295 30.6859 46.9181 30.6631C46.901 30.629 46.8782 30.6119 46.8554 30.6062L46.3539 30.4295C46.1886 30.3725 46.0518 30.2471 45.972 30.0875L38.3746 14.2031C38.1352 13.7015 37.7705 13.2512 37.3202 12.8979L30.7316 7.83104C30.6062 7.73415 30.4637 7.68856 30.3156 7.68856L30.3213 7.68286Z" fill="black"/>
<path d="M45.68 28.8151L36.4661 33.2218L36.712 33.736L45.9259 29.3293L45.68 28.8151Z" fill="black"/>
<path d="M39.862 40.2269L39.5999 39.7197L48.7703 35.3311L49.0439 35.8326L49.0211 35.844L39.862 40.2269Z" fill="black"/>
<path d="M36.9327 35.7357H36.87L36.8643 35.445L36.7446 35.1943L47.0436 30.2642L47.2944 30.7772L36.9327 35.7357Z" fill="black"/>
<path d="M38.4486 38.7508L38.3346 38.5057L38.1294 38.2948L38.2092 38.2378L39.7081 37.5254L48.6221 33.285V33.5756L48.7475 33.8264L38.4486 38.7508Z" fill="black"/>
<path d="M37.719 37.2233L37.4683 36.7103L47.8926 31.7575L47.8983 32.0481L48.018 32.2989L37.719 37.2233Z" fill="black"/>
<path d="M34.0828 18.3637C33.3418 18.3637 32.6237 17.9476 32.2817 17.2352L32.7947 16.9844C33.1367 17.6912 33.9859 17.9875 34.6926 17.657C35.3937 17.3207 35.69 16.4715 35.3538 15.7704L35.8667 15.5254C36.3398 16.5114 35.918 17.7026 34.9377 18.1756C34.6641 18.3067 34.3734 18.3694 34.0885 18.3694L34.0828 18.3637Z" fill="black"/>
<path d="M42.4783 30.6632L35.3596 15.7762C35.3596 15.7762 35.3596 15.7762 35.3596 15.7705L35.8726 15.5254C36.0379 15.8674 36.3228 16.1238 36.6819 16.2492C37.041 16.3746 37.4228 16.3518 37.7591 16.1865C38.2835 15.9358 38.5969 15.4057 38.5627 14.8358C38.5627 14.6477 38.5114 14.471 38.4316 14.3L38.9446 14.0492C39.0643 14.2943 39.127 14.5508 39.1327 14.813C39.1783 15.6052 38.7394 16.3518 38.0099 16.6995C37.5368 16.9332 36.9954 16.9617 36.4938 16.785C36.4881 16.785 36.4824 16.785 36.4767 16.7793L42.9969 30.4124L42.484 30.6575L42.4783 30.6632Z" fill="black"/>
<path d="M39.4062 32.1336L32.886 18.5005V18.5119C32.7093 19.0134 32.3502 19.4181 31.8657 19.6461C31.1533 19.9881 30.3041 19.8684 29.7056 19.3497C29.5005 19.173 29.3352 18.9564 29.2212 18.7114L29.7341 18.4663C29.8196 18.643 29.9336 18.7912 30.0818 18.9223C30.5093 19.2984 31.1134 19.3782 31.6264 19.1388C31.9683 18.9735 32.2248 18.6886 32.3502 18.3295C32.4756 17.9761 32.4528 17.5943 32.2932 17.258V17.2466L32.8005 17.0015C32.8005 17.0015 32.8005 17.0129 32.8062 17.0186L39.9248 31.9L39.4119 32.145L39.4062 32.1336Z" fill="black"/>
<path d="M29.3409 10.8575H29.2782L29.2725 10.5668L29.1528 10.3161L32.5383 8.69742L32.7891 9.21037L29.3409 10.8575Z" fill="black"/>
</g>
<defs>
<clipPath id="clip0_131_6738">
<rect width="50" height="43" fill="white"/>
</clipPath>
</defs>
</svg>
