<svg width="186" height="185" viewBox="0 0 186 185" fill="none" xmlns="http://www.w3.org/2000/svg">
<g style="mix-blend-mode:multiply">
<path d="M179.542 77.4668L110.872 6.07415C107.271 2.35266 102.538 0.192491 97.4962 0H89.0384C83.791 0.0641636 78.8727 2.22434 75.1686 6.07415L6.47811 77.4668C2.69169 81.4022 0.613281 86.6422 0.613281 92.203C0.613281 97.7639 2.71227 102.961 6.47811 106.896L75.1686 178.289C78.9139 182.203 83.9144 184.363 89.2854 184.363H96.4261C96.5907 184.363 96.7553 184.363 96.8994 184.363C97.064 184.363 97.2492 184.363 97.3933 184.363C102.456 184.214 107.23 182.075 110.851 178.311L179.521 106.918C183.308 103.004 185.386 97.7853 185.386 92.2244C185.386 86.6636 183.308 81.4235 179.521 77.4882L179.542 77.4668ZM178.081 105.378L109.411 176.771C106.18 180.15 101.879 182.075 97.3109 182.182C97.0228 182.182 96.7759 182.182 96.5084 182.182L96.4467 183.23V182.182C95.3972 182.182 94.3682 182.075 93.2364 181.84C89.7381 181.134 86.5485 179.38 84.0173 176.771L15.3268 105.378C8.33016 98.1061 8.33016 86.2572 15.3268 78.9853L84.0173 7.5713C86.569 4.91921 89.7381 3.1654 93.257 2.4596C94.1625 2.24572 95.0885 2.13879 96.1174 2.1174H97.4344C101.92 2.2885 106.16 4.21341 109.39 7.54991L178.06 78.9426C181.456 82.4716 183.328 87.1769 183.328 92.1603C183.328 97.1436 181.456 101.828 178.06 105.335L178.081 105.378Z" fill="#1D1D1B"/>
<path d="M126.225 57.02C125.135 55.972 123.612 55.7154 122.254 56.3356C120.896 56.9559 120.052 58.3033 120.052 59.8432V66.5804H86.9207C74.0593 66.5804 63.6055 77.4454 63.6055 90.7914V130.231C63.6055 133.589 66.2395 136.326 69.4703 136.326H81.0559C84.2867 136.326 86.9207 133.589 86.9207 130.231V98.213C86.9207 94.1279 90.131 90.7914 94.0614 90.7914H120.052V96.8656C120.052 98.4055 120.896 99.7316 122.233 100.352C123.591 100.972 125.114 100.715 126.225 99.6674L144.375 82.3005C145.446 81.2738 146.042 79.8409 146.042 78.3437C146.042 76.8466 145.425 75.3922 144.375 74.3869L126.225 57.0414V57.02Z" fill="#1D1D1B"/>
</g>
</svg>
