<svg width="240" height="243" viewBox="0 0 240 243" fill="none" xmlns="http://www.w3.org/2000/svg">
<g clip-path="url(#clip0_131_3080)">
<path d="M80.8374 125.704C75.6778 132.51 62.563 133.032 58.6763 133.032C58.0398 133.032 57.5398 133.531 57.5398 134.166C57.5398 134.802 58.0398 135.301 58.6763 135.301C64.0177 135.301 77.0188 134.507 82.6557 127.065C83.0421 126.566 82.9285 125.863 82.4284 125.477C81.9284 125.091 81.2238 125.205 80.8374 125.704Z" fill="#1D1D1B"/>
<path d="M83.8377 87.815H83.8604C84.4741 87.815 84.9741 87.3159 84.9969 86.7033C84.9969 86.0681 84.5195 85.5462 83.8831 85.5462C83.7922 85.5462 73.8367 85.2513 71.2001 80.5549C70.9047 80.0104 70.2001 79.8062 69.6545 80.1238C69.109 80.4188 68.9045 81.1221 69.2227 81.6666C72.473 87.4974 83.3603 87.815 83.8149 87.8377L83.8377 87.815Z" fill="#1D1D1B"/>
<path d="M73.0185 102.698C72.5639 103.152 72.5639 103.855 73.0185 104.309C73.2458 104.536 73.5412 104.649 73.814 104.649C74.0867 104.649 74.405 104.536 74.6095 104.309C74.655 104.264 80.2691 98.9321 85.0196 103.674C85.4741 104.128 86.1788 104.128 86.6333 103.674C87.0879 103.22 87.0879 102.517 86.6333 102.063C81.3374 96.7768 74.8595 100.861 72.9957 102.698H73.0185Z" fill="#1D1D1B"/>
<path d="M218.191 45.3661C215.872 39.921 208.667 37.5161 200.121 38.6959C209.963 31.5492 210.417 23.8807 210.031 20.5456C209.281 14.1023 204.167 8.72524 197.325 7.15978C188.938 5.23131 180.119 8.99749 172.778 17.3466C175.21 8.4303 172.868 4.41455 170.982 2.69027C168.05 0.035797 163.299 0.149236 158.276 2.96253C148.321 8.54374 139.343 23.3816 141.547 43.3242C132.842 32.0483 119.545 26.331 101.93 26.331C86.2697 26.331 74.4504 29.2124 65.7451 35.1112C50.8574 45.1619 48.0617 62.813 47.2661 77.061C47.107 80.1239 47.0161 83.4817 46.9934 87.6109C46.9934 89.2217 46.9934 90.8552 46.9934 92.5795H35.8787L35.7196 93.5324C35.0832 97.6616 35.1741 101.292 36.0151 104.332C37.0834 108.075 39.3109 110.798 42.152 111.773C42.9248 112.046 43.7203 112.182 44.5386 112.182C45.4932 112.182 46.4251 111.978 47.3343 111.615C47.4025 113.135 47.448 114.564 47.5161 115.835C46.0387 118.194 44.6977 120.894 45.4478 123.299C45.8569 124.569 46.8115 125.613 48.2889 126.339C48.7208 136.435 51.221 143.128 56.0851 147.393C61.472 152.112 69.6545 153.837 81.8147 152.838V184.42L67.7225 190.886C66.1997 188.663 64.5177 188.663 63.6085 188.867C56.6079 187.914 48.8344 194.516 43.4931 200.256C31.3101 213.37 19.65 235.286 21.2638 242.115L21.4683 243H183.801L183.915 242.002C185.097 232.155 177.823 214.98 166.959 202.071C158.526 192.043 149.457 186.28 141.388 185.849C141.297 185.849 141.206 185.849 141.093 185.849C139.752 185.849 138.638 187.165 137.797 188.572L126.91 183.331V170.331C127.228 166.542 127.046 163.161 126.864 159.872C126.455 152.271 126.091 145.714 131.842 136.435C148.684 116.22 155.958 89.857 151.344 66.6473C157.572 72.2739 166.845 74.7922 176.346 74.7922C183.597 74.7922 190.938 73.3402 197.166 70.7311C216.622 61.293 220.805 51.4238 218.191 45.3661ZM49.289 88.473C51.1983 87.815 55.7442 85.8185 57.267 81.4625C57.4716 80.8726 57.1534 80.2146 56.5624 80.0104C55.9715 79.8062 55.3123 80.1239 55.1077 80.7138C54.0849 83.6632 51.0847 85.2967 49.289 86.0454C49.3118 82.9372 49.4027 80.2827 49.5163 77.8551C55.926 74.5653 64.4722 69.0068 71.0637 60.7485C74.2458 74.3612 83.0876 85.8866 95.3841 92.6022H62.7448V95.9827C60.2673 95.4835 58.2217 95.4835 56.8124 95.6197C56.6079 95.3701 56.2897 95.1886 55.9487 95.1886C55.4714 95.1886 55.0623 95.4835 54.9032 95.8919H54.8805V95.9146C54.7213 95.96 54.5622 96.0054 54.4031 96.0507C54.4031 95.9146 54.4031 95.8012 54.4031 95.665C54.4031 94.9844 54.4031 94.3265 54.4031 93.7593V92.6022H49.289C49.289 91.2182 49.289 89.857 49.289 88.4957V88.473ZM91.7247 96.323C91.8156 101.246 91.952 107.985 79.0872 109.55C73.3139 109.913 69.4727 109.051 67.3361 106.941C65.4723 105.08 64.745 102.176 65.0177 97.4801L65.0632 96.5726H65.0177V94.871H91.6792C91.6792 95.3474 91.6792 95.8239 91.6792 96.323H91.7247ZM49.63 111.524C49.63 111.115 49.6072 110.707 49.5845 110.276C49.9027 110.004 50.2209 109.754 50.5164 109.459C50.2209 110.163 49.9255 110.866 49.63 111.524ZM54.3804 98.4557C54.3804 98.4557 54.4259 98.4556 54.4486 98.433C54.4259 98.5464 54.3804 98.6825 54.3577 98.796C54.3577 98.6825 54.3577 98.5691 54.3804 98.4557ZM42.9475 109.663C40.811 108.915 39.1063 106.759 38.2426 103.742C37.538 101.246 37.4243 98.2515 37.8562 94.8483H52.1302C52.1302 95.1205 52.1302 95.3928 52.1302 95.665C52.1302 96.3003 52.1302 96.9356 52.1302 97.5708C52.1075 97.707 52.1075 97.8204 52.1302 97.9565C52.0847 99.3178 51.9256 100.588 51.6756 101.768C50.2209 99.885 48.6753 99.4312 47.5843 99.4312C45.0614 99.4312 42.9475 101.587 42.1066 102.857C41.7656 103.379 41.902 104.082 42.4248 104.423C42.6066 104.559 42.8339 104.604 43.0612 104.604C43.4249 104.604 43.7885 104.423 44.0158 104.105C44.6295 103.175 46.1524 101.7 47.6071 101.677C48.5162 101.677 49.3572 102.267 50.1527 103.47C50.38 103.787 50.7437 103.946 51.1074 103.946C50.3573 106.079 49.2208 107.803 47.7889 108.824C46.2888 109.89 44.5841 110.185 42.9703 109.618L42.9475 109.663ZM45.1978 201.799C50.9255 195.65 56.2897 191.998 60.631 191.226C59.8127 192.497 59.3354 194.085 59.3581 195.469C59.3581 195.718 59.3809 195.991 59.4036 196.081V240.731H23.3549C23.173 234.129 33.4694 214.391 45.1978 201.821V201.799ZM165.231 203.523C175.346 215.57 182.278 231.27 181.756 240.708H144.843C144.752 238.78 144.866 233.698 145.002 228.775C145.298 217.499 145.684 202.253 144.661 193.495C144.752 193.404 144.843 193.336 144.889 193.223C145.139 192.678 144.934 192.043 144.411 191.748C144.184 190.364 143.934 189.23 143.616 188.368C150.457 189.683 158.026 194.947 165.209 203.5L165.231 203.523ZM140.934 188.118C140.934 188.118 141.434 188.663 141.866 190.523L139.843 189.547C140.525 188.436 140.934 188.163 140.934 188.118ZM124.591 160.008C124.75 162.912 124.91 165.929 124.705 169.174H104.271L100.271 186.439L94.475 169.174H84.1331V152.748H96.8843C97.5207 152.748 98.0207 152.249 98.0207 151.613C98.0207 150.978 97.5207 150.479 96.8843 150.479H84.1331V150.365L82.883 150.479C70.8592 151.636 62.6084 150.07 57.608 145.714C53.3803 142.016 51.1756 136.095 50.6528 127.247C51.6074 127.496 52.5848 127.632 53.5849 127.632C57.4034 127.632 61.2674 125.999 63.313 124.388C64.6541 123.344 65.1996 122.301 64.995 121.302C64.8586 120.69 64.2449 120.236 63.6312 120.372C63.0176 120.508 62.6312 121.053 62.7675 121.665C62.6766 122.006 61.6992 123.004 59.6763 123.911C56.9488 125.182 52.9712 125.999 49.9936 124.615L49.8345 124.547C48.6072 124.048 47.8798 123.412 47.6298 122.596C47.107 120.985 48.4253 118.625 49.6982 116.651C52.0393 112.136 55.9942 102.29 56.9034 97.8431C58.2217 97.7069 60.2446 97.6843 62.7221 98.2515C62.563 103.107 63.5176 106.283 65.7451 108.506C68.3589 111.115 72.7684 112.182 79.2918 111.773C94.2477 109.958 94.0886 101.382 93.9976 96.2549C93.9976 95.7331 93.9976 95.2567 93.9976 94.8256H100.021C101.248 95.5289 102.294 96.0961 103.203 96.5726C107.158 98.7052 107.749 99.0228 107.794 101.473C107.794 101.609 107.794 101.745 107.794 101.882H110.067C110.067 101.745 110.067 101.632 110.067 101.541C110.067 99.0682 110.363 96.7767 110.908 94.6895C111.272 94.508 111.522 94.145 111.522 93.7139C111.522 93.5324 111.477 93.3509 111.386 93.2148C113.636 86.5899 118.204 83.3002 121.887 82.4607C124.887 81.7801 127.637 82.5288 129.455 84.548C131.183 86.4538 133.547 91.2182 130.046 101.496C129.296 103.47 127.887 105.08 126.523 106.646C124.478 109.005 122.364 111.433 122.796 114.904C123.068 117.218 124.705 128.835 129.569 135.868C123.819 145.442 124.205 152.521 124.614 160.008H124.591ZM104.726 94.871H108.567C108.408 95.5516 108.203 96.2095 108.113 96.9356C107.294 96.2776 106.181 95.665 104.749 94.871H104.726ZM130.978 133.894C126.66 127.065 125.205 115.948 125.046 114.609C124.728 112.136 126.364 110.276 128.251 108.121C129.66 106.487 131.274 104.649 132.183 102.267C136.07 90.8552 133.206 85.3194 131.137 83.0279C128.751 80.3961 125.205 79.3752 121.386 80.26C117.091 81.2356 111.749 85.0244 109.204 92.6022H100.566C86.1106 86.3857 75.7914 73.5671 72.8821 58.2755C72.9503 57.9805 72.8821 57.7083 72.7457 57.4587C71.7002 51.2649 71.9275 44.867 73.473 38.9454C73.6322 38.3329 73.2685 37.7203 72.6548 37.5615C72.0411 37.4027 71.4274 37.7657 71.2683 38.3782C69.6545 44.6174 69.4045 51.333 70.5182 57.8671C64.3586 66.1709 56.1533 71.7747 49.7209 75.2233C50.6301 61.8828 53.6985 46.0921 67.0634 37.0397C75.3823 31.4131 86.7924 28.6905 101.976 28.6679C120.614 28.6679 134.16 35.27 142.275 48.3155V48.4743L142.502 48.6785C145.048 53.3068 146.98 58.2301 148.275 63.3122C154.299 86.3403 147.662 113.248 130.978 133.917V133.894ZM196.234 68.6892C181.301 74.9737 159.299 73.9074 150.344 62.3139C150.185 61.6787 149.98 61.0434 149.798 60.4081C152.389 61.0661 157.39 62.1097 163.118 62.1097C166.822 62.1097 170.8 61.6787 174.619 60.4081C175.21 60.2039 175.528 59.5687 175.346 58.9788C175.164 58.3889 174.505 58.0713 173.914 58.2528C163.481 61.724 151.139 58.457 149.003 57.8217C148.684 56.9142 148.389 56.0067 148.025 55.1219C148.025 55.0992 148.025 55.0765 148.025 55.0538C148.025 54.9177 148.889 42.3486 155.617 38.2648C156.162 37.9472 156.321 37.2439 156.003 36.6993C155.685 36.1548 154.98 35.996 154.435 36.3137C149.184 39.5126 147.093 46.6593 146.275 51.1061C145.73 49.949 145.161 48.8147 144.548 47.7029V47.4988L144.457 47.408C140.57 26.1949 149.457 10.5403 159.413 4.95906C163.549 2.6449 167.3 2.44071 169.482 4.39186C172.687 7.29591 172.187 14.3291 168.095 23.6992L170.095 24.7655C177.573 13.0132 187.574 7.27322 196.825 9.38319C202.735 10.7218 207.144 15.3274 207.781 20.8179C208.644 28.2141 203.053 35.4515 192.461 40.647C190.847 41.2142 189.188 41.9402 187.461 42.8251L188.393 44.8897C190.12 44.2317 191.779 43.5057 193.37 42.7343C204.871 38.5144 213.963 41.2142 216.122 46.2509C218.213 51.1288 214.236 59.9317 196.234 68.6665V68.6892Z" fill="#1D1D1B"/>
</g>
<defs>
<clipPath id="clip0_131_3080">
<rect width="197.791" height="243" fill="white" transform="translate(21.1046)"/>
</clipPath>
</defs>
</svg>
