<svg width="186" height="185" viewBox="0 0 186 185" fill="none" xmlns="http://www.w3.org/2000/svg">
<path d="M71.4947 0C62.266 0 54.5555 6.36325 52.7577 14.8217H46.7651C36.278 14.8217 27.7285 23.1056 27.7285 33.3101V35.0367C19.0192 36.6275 12.4273 44.0578 12.4273 52.9625V84.3907C5.99519 84.9145 0.941406 90.5212 0.941406 97.3112V114.868C0.941406 120.708 4.23735 125.791 9.11136 128.507V135.704C9.11136 145.307 17.1615 153.126 27.0493 153.126H31.9832V159.14C31.9832 167.501 38.9746 174.291 47.584 174.291H54.1959C57.2522 180.596 63.8441 184.981 71.4947 184.981C82.0417 184.981 90.6311 176.639 90.6311 166.395V18.5854C90.6311 8.34207 82.0417 0 71.4947 0ZM2.91897 114.888V97.3306C2.91897 91.5882 7.09384 86.8739 12.4073 86.3501V99.4065C12.4073 99.9497 12.8468 100.376 13.4061 100.376C13.9654 100.376 14.4048 99.9497 14.4048 99.4065V52.9819C14.4048 43.9996 21.9356 36.6663 31.1842 36.6663C40.4328 36.6663 47.9636 43.9802 47.9636 52.9819V66.0188C47.9636 71.121 43.6888 75.2533 38.4553 75.2533C33.2217 75.2533 28.947 71.1016 28.947 66.0188V52.1089C28.947 51.5656 28.5075 51.1388 27.9482 51.1388C27.3889 51.1388 26.9494 51.5656 26.9494 52.1089V66.0188C26.9494 71.8582 31.5837 76.6501 37.4565 77.1545V92.8298C37.4565 100.726 42.2306 107.535 49.1222 110.717H33.3016V102.375C33.3016 101.831 32.8622 101.405 32.3028 101.405C31.7435 101.405 31.3041 101.831 31.3041 102.375V114.907C31.3041 122.512 24.9319 128.701 17.1015 128.701C9.27116 128.701 2.899 122.512 2.899 114.907L2.91897 114.888ZM47.5641 172.37C40.0733 172.37 33.9608 166.453 33.9608 159.159V153.145H48.3831C49.7614 153.145 51.0797 152.951 52.3382 152.582V166.415C52.3382 168.51 52.7177 170.508 53.3569 172.37H47.5441H47.5641ZM88.6336 166.415C88.6336 175.591 80.943 183.06 71.4947 183.06C62.0463 183.06 54.3557 175.591 54.3557 166.415V151.806C58.9301 149.653 62.0862 145.113 62.0862 139.856C62.0862 132.523 55.9338 126.567 48.403 126.567H36.0382C35.4789 126.567 35.0395 126.993 35.0395 127.537C35.0395 128.08 35.4789 128.507 36.0382 128.507H48.403C54.8551 128.507 60.0887 133.609 60.0887 139.856C60.0887 146.103 54.8351 151.205 48.403 151.205H27.0493C18.2601 151.205 11.1089 144.26 11.1089 135.724V129.457C12.9666 130.195 15.0041 130.602 17.1415 130.602C26.0705 130.602 33.3416 123.54 33.3416 114.868V112.618H57.7316C63.5444 112.618 68.2786 117.216 68.2786 122.861V152.175C68.2786 152.718 68.7181 153.145 69.2774 153.145C69.8367 153.145 70.2761 152.718 70.2761 152.175V121.542C70.2761 116.614 74.3911 112.618 79.4648 112.618C84.5386 112.618 88.6535 116.614 88.6535 121.542V166.415H88.6336ZM88.6336 32.8251V115.373C86.6161 112.54 83.2402 110.697 79.4449 110.697C74.6907 110.697 70.6357 113.588 69.0177 117.643C67.7992 115.159 65.7417 113.142 63.1849 111.939C71.8742 109.669 78.3063 101.967 78.3063 92.8104V59.8689C78.3063 54.5339 74.7506 50.0136 69.8167 48.384V32.8251C69.8167 32.2819 69.3773 31.8551 68.8179 31.8551C68.2586 31.8551 67.8192 32.2819 67.8192 32.8251V47.899C67.16 47.802 66.5008 47.7244 65.8216 47.7244C58.9301 47.7244 53.337 53.1759 53.337 59.8495V87.941C53.337 88.4842 53.7764 88.911 54.3357 88.911C54.8951 88.911 55.3345 88.4842 55.3345 87.941V59.8495C55.3345 54.2235 60.0487 49.6644 65.8216 49.6644C71.5945 49.6644 76.3087 54.2429 76.3087 59.8495V92.791C76.3087 102.646 68.0389 110.678 57.8914 110.678C47.7439 110.678 39.474 102.646 39.474 92.791V77.1157C45.3468 76.6307 49.9811 71.8194 49.9811 65.98V52.07C49.9811 51.973 49.9611 51.876 49.9212 51.779C49.3019 42.2536 41.152 34.7069 31.2042 34.7069C30.7048 34.7069 30.2054 34.7457 29.726 34.7845V33.3101C29.726 24.192 37.3766 16.7617 46.7651 16.7617H52.458C52.3981 17.3631 52.3582 17.984 52.3582 18.6048V32.8445C52.3582 33.3877 52.7976 33.8145 53.3569 33.8145C53.9163 33.8145 54.3557 33.3877 54.3557 32.8445V18.6048C54.3557 9.42848 62.0463 1.95942 71.4947 1.95942C80.943 1.95942 88.6336 9.42848 88.6336 18.6048V32.8445V32.8251Z" fill="#1D1D1B"/>
<path d="M173.11 84.3907V52.9625C173.11 44.0578 166.498 36.6275 157.809 35.0367V33.3101C157.809 23.125 149.279 14.8217 138.772 14.8217H132.78C130.982 6.38266 123.251 0 114.043 0C103.496 0 94.9062 8.34207 94.9062 18.5854V166.415C94.9062 176.658 103.496 185 114.043 185C121.693 185 128.285 180.616 131.341 174.311H137.953C146.563 174.311 153.554 167.52 153.554 159.159V153.145H158.488C168.376 153.145 176.426 145.327 176.426 135.724V128.526C181.3 125.81 184.596 120.727 184.596 114.888V97.3306C184.596 90.5212 179.522 84.9339 173.11 84.4101V84.3907ZM96.9038 32.8251V18.5854C96.9038 9.40908 104.594 1.94002 114.043 1.94002C123.491 1.94002 131.182 9.40908 131.182 18.5854V32.8251C131.182 33.3683 131.621 33.7951 132.18 33.7951C132.74 33.7951 133.179 33.3683 133.179 32.8251V18.5854C133.179 17.9646 133.139 17.3631 133.079 16.7423H138.772C148.161 16.7423 155.811 24.1726 155.811 33.2907V34.7651C155.332 34.7263 154.833 34.6875 154.333 34.6875C144.385 34.6875 136.235 42.2536 135.616 51.7596C135.576 51.8566 135.556 51.9536 135.556 52.0506V65.9606C135.556 71.8 140.191 76.5919 146.063 77.0963V92.7716C146.063 102.627 137.794 110.659 127.646 110.659C117.498 110.659 109.229 102.627 109.229 92.7716V59.8301C109.229 54.2041 113.943 49.645 119.716 49.645C125.489 49.645 130.203 54.2235 130.203 59.8301V87.9216C130.203 88.4648 130.642 88.8916 131.202 88.8916C131.761 88.8916 132.2 88.4648 132.2 87.9216V59.8301C132.2 53.1371 126.587 47.705 119.716 47.705C119.037 47.705 118.377 47.7632 117.718 47.8796V32.8057C117.718 32.2625 117.279 31.8357 116.719 31.8357C116.16 31.8357 115.721 32.2625 115.721 32.8057V48.3646C110.787 49.9942 107.231 54.5145 107.231 59.8495V92.791C107.231 101.948 113.663 109.65 122.353 111.92C119.796 113.122 117.738 115.14 116.52 117.623C114.902 113.569 110.847 110.678 106.092 110.678C102.297 110.678 98.9213 112.54 96.9038 115.353V32.8251ZM151.557 159.178C151.557 166.453 145.464 172.39 137.953 172.39H132.14C132.8 170.508 133.159 168.51 133.159 166.434V152.602C134.418 152.97 135.736 153.164 137.114 153.164H151.537V159.178H151.557ZM174.428 135.724C174.428 144.26 167.277 151.205 158.488 151.205H137.134C130.682 151.205 125.449 146.103 125.449 139.856C125.449 133.609 130.702 128.507 137.134 128.507H149.499C150.058 128.507 150.498 128.08 150.498 127.537C150.498 126.993 150.058 126.567 149.499 126.567H137.134C129.584 126.567 123.451 132.542 123.451 139.856C123.451 145.113 126.627 149.653 131.182 151.806V166.415C131.182 175.591 123.491 183.06 114.043 183.06C104.594 183.06 96.9038 175.591 96.9038 166.415V121.542C96.9038 116.614 101.019 112.618 106.092 112.618C111.166 112.618 115.281 116.614 115.281 121.542V152.175C115.281 152.718 115.721 153.145 116.28 153.145C116.839 153.145 117.279 152.718 117.279 152.175V122.861C117.279 117.216 122.013 112.618 127.826 112.618H152.216V114.868C152.216 123.54 159.487 130.602 168.416 130.602C170.553 130.602 172.571 130.195 174.448 129.457V135.724H174.428ZM182.598 114.888C182.598 122.493 176.226 128.681 168.396 128.681C160.566 128.681 154.193 122.493 154.193 114.888V102.355C154.193 101.812 153.754 101.385 153.195 101.385C152.635 101.385 152.196 101.812 152.196 102.355V110.697H136.375C143.267 107.516 148.041 100.706 148.041 92.8104V77.1351C153.914 76.6501 158.548 71.8388 158.548 65.9994V52.0895C158.548 51.5462 158.109 51.1194 157.549 51.1194C156.99 51.1194 156.55 51.5462 156.55 52.0895V65.9994C156.55 71.1016 152.276 75.2338 147.042 75.2338C141.809 75.2338 137.534 71.0822 137.534 65.9994V52.9625C137.534 43.9802 145.065 36.6469 154.333 36.6469C163.602 36.6469 171.113 43.9608 171.113 52.9625V99.3871C171.113 99.9303 171.552 100.357 172.111 100.357C172.671 100.357 173.11 99.9303 173.11 99.3871V86.3307C178.424 86.8546 182.598 91.5882 182.598 97.3112V114.868V114.888Z" fill="#1D1D1B"/>
</svg>
