<svg width="246" height="89" viewBox="0 0 246 89" fill="none" xmlns="http://www.w3.org/2000/svg">
<path d="M143.744 56.8261C146.437 58.1682 149.111 59.4606 151.785 60.7232C136.473 61.9758 118.181 62.7015 98.5414 62.7015C48.7411 62.7015 7.63513 58.0389 1.69141 52.0143C4.61518 49.0418 16.041 46.4072 32.8719 44.4885L35.1801 47.5505L40.0659 54.0026C40.4699 54.5295 41.8933 54.5494 42.3357 54.0325L43.259 52.9289C43.9515 52.1038 45.798 51.7359 47.3753 52.0938L49.4528 52.5611C51.0301 52.919 52.8767 52.5412 53.5691 51.726L54.4732 50.6623C55.1657 49.8371 57.0123 49.4693 58.6088 49.8272L60.667 50.2944C62.2635 50.6523 64.1101 50.2745 64.8026 49.4593L65.7066 48.3856C66.3991 47.5704 68.2457 47.1926 69.823 47.5605L71.9389 48.0277C73.5162 48.3956 75.3628 48.0178 76.0552 47.2026L76.9208 46.1786C77.6133 45.3534 79.4599 44.9856 81.0372 45.3435L83.1916 45.8306C84.1918 46.0493 85.2113 45.5423 84.8073 45.0154L82.1336 41.4861C87.4618 41.3768 92.9439 41.3171 98.5414 41.3171C104.524 41.3171 110.371 41.3867 116.065 41.516C123.99 46.447 133.338 51.6465 143.744 56.8261Z" fill="#1D1D1B"/>
<path d="M79.8829 38.5038V38.5436C79.8829 38.5436 79.729 38.5436 79.6328 38.5436L79.8829 38.4939V38.5038Z" fill="white"/>
<path d="M79.9038 39.0408C79.3845 39.0408 78.9613 38.832 78.9421 38.5636C78.9228 38.2852 79.3268 38.0565 79.8654 38.0466C86.1746 37.8975 92.4645 37.8279 98.5429 37.8279C103.082 37.8279 107.256 37.8577 111.277 37.9273C111.815 37.9273 112.219 38.1659 112.2 38.4443C112.2 38.7127 111.758 38.9215 111.238 38.9215C111.238 38.9215 111.219 38.9215 111.2 38.9215C107.199 38.8519 103.063 38.822 98.5429 38.822C92.4837 38.822 86.2323 38.8916 79.9423 39.0408H79.9038Z" fill="#1D1D1B"/>
<path d="M0.961767 51.0105C0.423178 51.0105 0 50.7918 0 50.5134C0 46.9245 10.8487 43.6338 30.565 41.2478C31.0843 41.1882 31.6037 41.3473 31.7191 41.6157C31.8345 41.8841 31.5267 42.1525 31.0074 42.2122C12.5222 44.449 1.94277 47.4713 1.94277 50.5035C1.94277 50.7818 1.51959 51.0006 0.981003 51.0006L0.961767 51.0105Z" fill="#1D1D1B"/>
<path d="M116.065 42.0132C116.065 42.0132 116.046 42.0132 116.027 42.0132C104.813 41.7547 93.4254 41.7547 82.1728 41.9834C81.6727 42.0033 81.1918 41.7846 81.1725 41.5062C81.1533 41.2278 81.5572 40.9992 82.0958 40.9892C93.387 40.7606 104.832 40.7606 116.104 41.019C116.643 41.029 117.046 41.2676 117.027 41.536C117.008 41.8044 116.585 42.0132 116.065 42.0132Z" fill="#1D1D1B"/>
<path d="M1.69344 52.5019C1.53956 52.5019 1.40491 52.482 1.25103 52.4522C0.770147 52.3229 0.597029 52.0247 0.827853 51.7861C4.63645 47.9188 20.2363 45.4234 32.6623 44.0117C33.1817 43.9521 33.7011 44.1211 33.8165 44.3895C33.9319 44.6579 33.6049 44.9264 33.0855 44.986C16.1007 46.9246 5.27122 49.4995 2.55903 52.2434C2.38592 52.4124 2.05892 52.5118 1.69344 52.5118V52.5019Z" fill="#1D1D1B"/>
<path d="M243.883 76.5208L242.498 75.8348C251.885 70.7944 222.224 49.4994 188.62 32.7677C155.035 16.026 112.756 1.49139 103.35 6.52185L101.965 5.83588C111.506 0.715945 150.169 12.2283 189.967 32.0519C229.745 51.8655 253.443 71.4008 243.883 76.5307V76.5208Z" fill="#1D1D1B"/>
<path d="M224.263 84.633C217.55 84.633 207.355 82.5353 194.487 78.4295L195.506 77.5844C212.664 83.0523 225.456 84.971 229.687 82.7044L238.997 77.7137C236.785 77.8727 234.112 77.7335 230.957 77.316C222.07 76.1429 209.837 72.7528 195.583 67.5235C190.082 65.5054 184.35 63.2287 178.541 60.7632C176.886 60.0673 175.213 59.3515 173.539 58.5959C167.634 56.0012 161.69 53.2076 155.881 50.3146C151.015 47.8988 146.302 45.4233 141.859 42.9578C139.839 41.8543 137.839 40.7209 135.896 39.6075C117.391 28.9103 104.638 19.0383 100.907 12.5265C99.9835 10.916 99.6372 9.53408 99.8488 8.3908L90.5581 13.3815C85.1145 16.3043 93.5204 26.0073 111.986 38.1063C113.525 39.1203 115.141 40.1443 116.795 41.1882C124.951 46.2584 134.222 51.3982 144.398 56.4585C146.956 57.731 149.572 59.0036 152.419 60.3457L151.13 61.0813C148.264 59.7293 145.629 58.4568 143.071 57.1743C132.857 52.0842 123.508 46.9245 115.314 41.8244C113.641 40.7806 112.006 39.7367 110.467 38.7227C90.789 25.8284 82.8255 16.0955 89.154 12.6856L101.945 5.81592L103.33 6.50189C101.388 7.54576 101.176 9.53408 102.734 12.2283C106.389 18.6108 118.988 28.3436 137.3 38.9314C139.224 40.0449 141.205 41.1584 143.225 42.2619C147.649 44.7174 152.342 47.183 157.17 49.5789C162.96 52.462 168.865 55.2357 174.751 57.8205C176.425 58.5661 178.079 59.2819 179.714 59.9679C185.485 62.4235 191.178 64.6802 196.641 66.6884C210.51 71.7686 222.859 75.1984 231.399 76.3218C236.689 77.0277 240.517 76.8487 242.46 75.8049L243.845 76.4909C243.845 76.4909 243.845 76.4908 243.845 76.5008L231.053 83.3605C229.514 84.1857 227.206 84.5933 224.244 84.5933L224.263 84.633Z" fill="#1D1D1B"/>
<path d="M98.5427 88.8284C43.2795 88.8284 0 83.2611 0 76.1429V53.5059C0 53.2275 0.423178 53.0088 0.961767 53.0088C1.50036 53.0088 1.92353 53.2275 1.92353 53.5059V76.1429C1.92353 83.1319 51.8777 87.8343 98.5427 87.8343C145.208 87.8343 185.179 83.6986 193.623 78.1511C182.216 74.4727 169.444 69.4622 156.595 63.6264C156.191 63.4475 156.153 63.1294 156.518 62.9206C156.883 62.7118 157.48 62.6919 157.884 62.8709C170.964 68.816 183.986 73.9061 195.508 77.5745L196.335 77.8429L195.816 78.2704C188.333 84.3945 147.42 88.8284 98.5427 88.8284Z" fill="#1D1D1B"/>
<path d="M98.5427 66.1913C86.0012 66.1913 73.7676 65.903 62.1686 65.3264C16.3308 63.02 0 57.7112 0 53.5059V50.5134H1.92353C1.92353 50.931 2.13512 51.3585 2.5583 51.776L2.65448 51.8854C8.88673 57.7708 49.9542 62.1948 98.5427 62.1948C117.509 62.1948 135.859 61.5089 151.632 60.2264L152.094 60.1866L152.44 60.3457C154.267 61.2106 156.076 62.0457 157.884 62.8609L159.384 63.5369L157.422 63.7159C150.44 64.3621 142.88 64.8989 134.917 65.3065C123.318 65.8832 111.084 66.1715 98.5427 66.1715V66.1913ZM1.92353 53.1082V53.5059C1.92353 58.1585 26.2178 62.5129 62.361 64.3323C73.883 64.9089 86.0589 65.1972 98.5427 65.1972C111.026 65.1972 123.202 64.9089 134.724 64.3323C141.88 63.9744 148.728 63.4972 155.114 62.9404C153.902 62.3937 152.69 61.827 151.478 61.2504C135.705 62.5229 117.413 63.1989 98.5427 63.1989C50.512 63.1989 10.9064 59.0036 1.92353 53.1082Z" fill="#1D1D1B"/>
<path d="M41.2221 54.9075H41.1836C40.2988 54.9075 39.5102 54.6192 39.1832 54.1917L5.84831 10.1802C5.52131 9.75272 5.71366 9.28547 6.34843 8.95739C6.9832 8.63926 7.92573 8.53985 8.75285 8.71879L10.888 9.20593C11.9844 9.45447 13.2732 9.19599 13.754 8.62932L14.6581 7.56557C15.1005 7.0486 15.8892 6.65094 16.9086 6.44216C17.9281 6.23339 19.0438 6.24333 20.044 6.47199L22.1214 6.93925C23.2178 7.18779 24.4874 6.9293 24.9682 6.36263L25.8723 5.28894C26.7764 4.21524 29.1808 3.7281 31.2582 4.19536L33.3356 4.66262C33.855 4.78192 34.4513 4.79186 34.9706 4.69244C35.5092 4.58308 35.9516 4.37431 36.1825 4.09594L37.1058 3.00237C38.0098 1.93861 40.4335 1.44153 42.5109 1.90879L44.4729 2.35616C45.5693 2.6047 46.8581 2.34622 47.339 1.77955L48.2815 0.67603C48.6085 0.268424 49.3971 0 50.282 0H50.3012C51.186 0 51.9747 0.288307 52.3017 0.715796L85.6942 44.8367C86.0212 45.2642 85.8289 45.7314 85.1941 46.0595C84.5593 46.3776 83.6168 46.4671 82.8089 46.2882L80.6353 45.801C80.0967 45.6817 79.5197 45.6718 78.9811 45.7811C78.4425 45.8905 78.0193 46.0993 77.7885 46.3776L76.9229 47.4016C76.4805 47.9186 75.6726 48.3262 74.6532 48.525C73.6337 48.7238 72.518 48.7139 71.537 48.4852L69.4404 48.018C68.9018 47.8887 68.3247 47.8887 67.7861 47.9882C67.2475 48.0975 66.8244 48.3063 66.5743 48.5847L65.6702 49.6584C64.7662 50.7221 62.3425 51.2092 60.2651 50.7519L58.2069 50.2847C57.1105 50.0361 55.8217 50.2946 55.3409 50.8613L54.4368 51.925C53.5327 52.9987 51.1091 53.4859 49.0509 53.0186L46.9735 52.5514C46.4349 52.4321 45.8578 52.4221 45.3192 52.5315C44.7807 52.6408 44.3575 52.8496 44.1267 53.128L43.2034 54.2315C42.8379 54.649 42.0877 54.9075 41.2029 54.9075H41.2221ZM7.90649 9.62348C7.90649 9.62348 7.75261 9.65331 7.71414 9.66325C7.6372 9.70301 7.61796 9.75272 7.65643 9.81237L40.9721 53.8239C41.0298 53.8935 41.1452 53.9134 41.2221 53.9134C41.2798 53.9134 41.4145 53.8835 41.4722 53.8338L42.3955 52.7303C42.8379 52.2133 43.6265 51.8057 44.646 51.6069C45.6655 51.3981 46.7811 51.4081 47.7814 51.6367L49.8588 52.104C50.9552 52.3525 52.2247 52.0941 52.7056 51.5274L53.6097 50.4636C54.5137 49.3999 56.9182 48.9028 59.0148 49.37L61.073 49.8373C62.1694 50.0858 63.4582 49.8274 63.9391 49.2607L64.8431 48.187C65.2855 47.6601 66.0934 47.2624 67.1321 47.0636C68.1516 46.8648 69.248 46.8747 70.2483 47.1133L72.3449 47.5806C72.8835 47.7098 73.4606 47.7098 73.9991 47.6104C74.5377 47.501 74.9609 47.2923 75.211 47.0139L76.0766 45.9899C76.519 45.4729 77.3076 45.0753 78.3271 44.8665C79.3466 44.6577 80.4622 44.6677 81.4625 44.8963L83.6168 45.3835C83.7515 45.4133 83.8476 45.3835 83.9053 45.3536C83.9823 45.3139 84.0015 45.2642 83.9631 45.2045L50.5128 1.08364C50.4551 1.01404 50.3781 0.994161 50.2627 0.994161C50.1473 0.994161 50.0704 1.02399 50.0319 1.07369L49.0894 2.18715C48.2045 3.25091 45.7809 3.73805 43.6842 3.28073L41.7222 2.83336C40.6258 2.58482 39.3371 2.8433 38.8562 3.40997L37.9329 4.50355C37.4905 5.03046 36.6826 5.42812 35.6439 5.62695C34.6244 5.82578 33.528 5.81584 32.5277 5.57724L30.4696 5.10999C29.3731 4.86145 28.1036 5.11993 27.6227 5.6866L26.7187 6.7603C25.8146 7.83399 23.3909 8.32113 21.3328 7.85387L19.2553 7.38662C18.7168 7.26732 18.1397 7.25738 17.6011 7.36673C17.0625 7.47609 16.6393 7.68487 16.4085 7.96323L15.5045 9.02698C14.6004 10.0907 12.1767 10.5779 10.0993 10.1206L7.98344 9.63342C7.98344 9.63342 7.90649 9.62348 7.88726 9.62348H7.90649Z" fill="#1D1D1B"/>
<path d="M53.7244 44.29C53.3397 44.29 52.9742 44.1707 52.8203 43.9719L29.5456 13.2423C29.3532 12.9839 29.6033 12.6956 30.0841 12.5961C30.5843 12.4967 31.1421 12.626 31.3344 12.8745L54.6092 43.614C54.8016 43.8725 54.5515 44.1608 54.0706 44.2602C53.9552 44.2801 53.8398 44.29 53.7244 44.29Z" fill="#1D1D1B"/>
<path d="M60.4758 42.9279C60.1103 42.9279 59.7448 42.8185 59.591 42.6297L59.4755 42.4905L51.8776 32.4594C51.6852 32.2009 51.9353 31.9126 52.4162 31.8132C52.9163 31.7138 53.4741 31.843 53.6665 32.0915L61.3414 42.222C61.553 42.4706 61.3414 42.7688 60.8413 42.8782C60.7066 42.908 60.5912 42.918 60.4566 42.918L60.4758 42.9279Z" fill="#1D1D1B"/>
<path d="M47.9715 26.4247C47.5868 26.4247 47.2213 26.3054 47.0675 26.1066L40.8737 17.9147C40.6813 17.6562 40.9314 17.3679 41.4123 17.2685C41.9124 17.1691 42.4702 17.2983 42.6626 17.5469L48.8563 25.7388C49.0487 25.9972 48.7986 26.2855 48.3178 26.385C48.2023 26.4048 48.0869 26.4148 47.9715 26.4148V26.4247Z" fill="#1D1D1B"/>
<path d="M11.9066 17.2985C11.5219 17.2985 11.1565 17.1792 11.0026 16.9803C10.8102 16.7219 11.0603 16.4335 11.5412 16.3341L38.009 10.9855C38.5091 10.8861 39.067 11.0154 39.2593 11.2639C39.4517 11.5224 39.2016 11.8107 38.7207 11.9101L12.2529 17.2587C12.1375 17.2786 12.0221 17.2885 11.9066 17.2885V17.2985Z" fill="#1D1D1B"/>
<path d="M49.5121 9.693C49.1274 9.693 48.7619 9.5737 48.6081 9.37486C48.4157 9.11638 48.6658 8.82808 49.1466 8.72866L56.2445 7.29707C56.7446 7.19765 57.3024 7.32689 57.4948 7.57543C57.6871 7.82397 57.4371 8.12222 56.9562 8.22164L49.8584 9.65323C49.7429 9.67311 49.6275 9.68305 49.5121 9.68305V9.693Z" fill="#1D1D1B"/>
<path d="M51.8195 44.6777C51.4348 44.6777 51.0693 44.5584 50.9347 44.3596C50.7423 44.1011 50.9732 43.8128 51.4733 43.7134L79.5376 38.0367C80.0378 37.9373 80.5956 38.0665 80.7879 38.325C80.9803 38.5835 80.7302 38.8718 80.2301 38.9712L79.9801 39.0209L52.1658 44.6479C52.0503 44.6678 51.9349 44.6777 51.8195 44.6777Z" fill="#1D1D1B"/>
<path d="M35.1801 48.0479C34.7954 48.0479 34.4299 47.9286 34.276 47.7298C34.0837 47.4713 34.3337 47.183 34.8146 47.0836L42.9512 45.4333C43.432 45.3339 44.0091 45.4631 44.2015 45.7117C44.3938 45.9701 44.1438 46.2585 43.6629 46.3579L35.5263 48.0082C35.4109 48.0281 35.2955 48.038 35.1801 48.038V48.0479Z" fill="#1D1D1B"/>
</svg>
