<svg width="122" height="186" viewBox="0 0 122 186" fill="none" xmlns="http://www.w3.org/2000/svg">
<path d="M120.568 104.699L110.805 92.1603C116.574 87.9189 118.995 80.3771 116.697 73.5292L100.888 26.3809C100.611 25.5326 100.009 24.8386 99.1919 24.4376C98.3745 24.0366 97.4645 23.9749 96.6162 24.2679C93.0689 25.4555 90.2002 27.954 88.5345 31.3008C86.8688 34.6322 86.6066 38.4263 87.8096 41.9582L91.249 52.1991L67.0502 5.25128C65.0606 1.39552 60.4491 -0.131368 56.5162 1.76567C52.9844 3.50848 51.2724 7.64186 52.5525 11.4976C52.6296 11.7135 52.7067 11.9295 52.8147 12.1454L66.8034 43.0686C66.9731 43.4234 66.9885 43.8398 66.8497 44.21C66.7109 44.5955 66.4333 44.904 66.0477 45.0891L65.878 45.1353C65.1994 45.3667 64.4437 45.0736 64.089 44.4413L44.4863 10.1867C42.4041 6.50055 37.8389 5.17417 34.0911 7.1329C30.6672 8.92197 29.0786 12.8857 30.297 16.541C30.4358 16.9574 30.6209 17.3892 30.8523 17.8365L49.4679 50.2095C49.4679 50.2095 49.4216 50.3638 49.4062 50.4409L48.9898 52.5076L27.706 26.165C25.0223 22.8644 20.1332 22.3092 16.8327 24.9311C14.2262 26.967 13.1774 30.4372 14.2416 33.5835C14.4884 34.2775 14.8123 34.9098 15.2287 35.5422L26.6418 52.0294C26.5646 52.3379 26.4721 52.6309 26.4258 52.9394L26.1328 54.8364L17.7272 47.2637C14.6118 44.4413 9.92315 44.2562 6.82312 46.8319C4.2012 49.022 3.1987 52.523 4.29373 55.7464C4.66389 56.8569 5.24996 57.8439 6.03654 58.6922L22.7706 76.7989L18.4213 105.085V94.3349C18.4213 90.5871 16.9561 87.0707 14.3187 84.4333C11.6814 81.8114 8.19577 80.3616 4.47881 80.3616H4.44796C2.58177 80.3616 1.07031 81.8731 1.07031 83.7393V133.463C1.07031 140.681 5.75893 147.066 12.5759 149.256L7.30123 164.248C6.43754 166.731 7.7485 169.461 10.2316 170.34L51.2724 184.776C51.7968 184.961 52.3212 185.053 52.8456 185.053C54.6809 185.053 56.4237 183.989 57.2103 182.246L77.8001 136.409L78.9568 137.658C79.8822 138.661 81.1623 139.185 82.4578 139.185C83.4912 139.185 84.5245 138.861 85.3882 138.183L119.72 111.455C121.771 109.82 122.141 106.797 120.537 104.746L120.568 104.699ZM55.8222 181.583C55.1436 183.11 53.3699 183.866 51.7968 183.295L10.756 168.859C9.07489 168.258 8.19577 166.407 8.76642 164.741L14.5809 148.192L13.7789 147.976C7.20869 146.218 2.61262 140.234 2.61262 133.432V83.7084C2.61262 82.6905 3.3992 81.8422 4.47881 81.8731C7.77935 81.8731 10.8948 83.1532 13.2237 85.4975C15.5834 87.8418 16.879 90.9727 16.879 94.3041V110.884C16.879 111.47 17.3108 111.933 17.8969 111.979C18.4675 112.025 18.9765 111.624 19.069 111.054L24.1124 78.2178L27.5209 56.0394L27.9681 53.1399C28.0298 52.7698 28.107 52.415 28.2149 52.0757C29.1711 49.1916 32.0861 47.4025 35.109 47.7881C38.2553 48.2045 40.6305 50.919 40.6305 54.0961C40.6305 54.2966 40.6305 54.5126 40.5996 54.7439L37.1603 88.505C37.0678 89.307 37.2991 90.109 37.8081 90.7414C38.317 91.3737 39.0419 91.7747 39.8131 91.8518C40.6768 92.006 41.5096 91.7284 42.1574 91.1886C42.1574 91.1886 42.1882 91.1578 42.2036 91.1578C42.3116 91.0652 42.4196 90.9727 42.5121 90.8493C42.5584 90.803 42.6046 90.7414 42.6509 90.6797C42.7126 90.6025 42.7743 90.5254 42.836 90.4329C42.8977 90.3404 42.9439 90.2324 43.0056 90.1244C43.0365 90.0627 43.0673 90.0165 43.0828 89.9548C43.1599 89.7851 43.2061 89.6 43.2524 89.415L50.9485 50.6876C50.9794 50.5488 51.0102 50.41 51.0565 50.2558C51.8893 47.1712 54.9122 45.2279 58.074 45.7214C61.1432 46.215 63.3641 48.8214 63.3641 51.9215C63.3641 52.3225 63.3332 52.6772 63.2715 53.0165L55.5446 91.5125C55.3132 92.7001 56.0536 93.8722 57.2411 94.1807C58.367 94.4583 59.5546 93.826 59.9402 92.7618L71.8468 60.7435C73.0344 57.5509 76.6125 55.8852 79.8051 57.0419C82.3036 57.9211 83.9847 60.2962 83.9847 62.949C83.9847 63.5196 83.9076 64.1211 83.738 64.7072L74.1448 97.6972C73.9752 98.2524 74.2219 98.8076 74.7617 99.039C75.3015 99.2703 75.8876 99.0698 76.1807 98.5608L87.9176 77.7706C89.6141 74.7785 93.1769 73.4058 96.1998 74.578C98.7909 75.5805 100.457 78.0327 100.457 80.7935C100.457 81.7343 100.256 82.6442 99.8705 83.5079L55.8376 181.552L55.8222 181.583Z" fill="#1D1D1B"/>
</svg>
