<svg width="43" height="51" viewBox="0 0 43 51" fill="none" xmlns="http://www.w3.org/2000/svg">
<path d="M10.3085 50.2021H32.6915C35.1603 50.2021 37.5279 49.2214 39.2736 47.4757C41.0193 45.73 42 43.3624 42 40.8936V26.1862C42.0009 23.7177 41.0213 21.35 39.2766 19.6037L23.4016 3.72606C22.5372 2.86171 21.5109 2.17609 20.3815 1.70835C19.2521 1.24061 18.0416 0.999912 16.8191 1H10.3085C7.83974 1 5.47208 1.98072 3.7264 3.7264C1.98072 5.47208 1 7.83974 1 10.3085V40.8936C1 43.3624 1.98072 45.73 3.7264 47.4757C5.47208 49.2214 7.83974 50.2021 10.3085 50.2021Z" stroke="#F8A227" stroke-width="1.5" stroke-linecap="round" stroke-linejoin="round"/>
<path d="M16.5107 10.1179C17.6978 9.73236 19.1393 9.77164 20.2402 10.5281L20.4561 10.6892C22.3522 12.2317 22.5228 14.4666 22.2422 16.4929C22.1236 17.2676 21.966 18.0361 21.7705 18.7947L21.5625 19.5505L21.5605 19.5554L21.3066 20.4548C21.1085 21.1305 20.924 21.8105 20.7539 22.4949L20.583 22.9939L20.4961 23.2439L20.6553 23.4558L24.3564 28.4138L24.5303 28.6453L24.8174 28.6111C26.316 28.4313 27.93 28.3155 29.4668 28.3728L30.1201 28.408H30.1211C32.1291 28.549 34.1757 29.0365 35.5439 30.3289C35.9634 30.7669 36.2673 31.3025 36.4277 31.8875C36.5888 32.4751 36.6003 33.0941 36.4609 33.6873C36.2051 34.7367 35.4936 35.6413 34.4775 36.2351L34.2705 36.3494C32.0607 37.5047 29.9729 36.7441 28.2715 35.5359L27.9365 35.2888H27.9355C26.9053 34.5021 25.8996 33.4765 24.9746 32.4734L24.0781 31.4871L24.0762 31.4851L23.7998 31.1814L23.6191 30.9832L23.3545 31.0242C22.8584 31.1006 22.3759 31.1815 21.9229 31.2615L20.668 31.4919C19.857 31.6435 18.8414 31.834 17.7363 32.0808L17.4629 32.1423L17.3721 32.408L16.9746 33.572C16.755 34.079 16.5456 34.5894 16.3467 35.1033L16.0225 35.9089L16.0215 35.9119C15.7027 36.7196 15.3333 37.5067 14.916 38.2683C14.0935 39.7087 12.8662 41.1107 10.8867 41.3025L10.6924 41.3171C7.90492 41.4725 5.98714 39.0099 6.54004 36.3103L6.53906 36.3093L6.55078 36.2605C6.9975 34.4941 8.49654 33.248 10.1279 32.3601L10.4561 32.1873C11.9974 31.3972 13.8117 30.8064 15.5166 30.3611L15.7773 30.2937L15.8633 30.0388L17.9648 23.8816L18.0498 23.6326L17.8926 23.4216L17.1855 22.4744L17.1152 22.3699C16.8023 21.853 16.4552 21.3387 16.0869 20.7957H16.0879L15.8213 20.3992L15.8184 20.3943L15.4648 19.8669C15.2333 19.5121 15.0108 19.1515 14.7969 18.7859L14.4824 18.2341C13.733 16.8354 13.1661 15.2159 13.498 13.4568L13.5771 13.1023C13.9767 11.5421 15.2239 10.5401 16.5117 10.1189L16.5107 10.1179ZM13.8857 33.1306C13.2408 33.3517 12.6138 33.5925 12.0264 33.8601L11.4531 34.1375C9.85814 34.9526 8.94372 35.8456 8.68848 36.7527L8.68262 36.7742L8.67871 36.7957C8.55126 37.4737 8.70131 38.0819 9.07617 38.5173C9.40105 38.8946 9.86291 39.1043 10.3564 39.1296H10.5703C11.4804 39.0789 12.1962 38.5211 12.8779 37.4089L13.0137 37.1785L13.0176 37.1707C13.3888 36.4937 13.7146 35.7957 13.9951 35.0769L14.2803 34.3699V34.3689L14.5117 33.7888L14.915 32.7771L13.8857 33.1306ZM29.3047 30.5623C28.6466 30.5403 27.9877 30.5479 27.3301 30.5857L26.2568 30.6472L26.9951 31.4285C27.6369 32.1077 28.2904 32.7601 28.9717 33.3162L29.2646 33.5486H29.2656C30.0249 34.1284 30.7162 34.5032 31.377 34.6511C31.9718 34.7843 32.5202 34.7288 33.0361 34.5095L33.2559 34.406V34.405C33.8186 34.1095 34.1397 33.7122 34.2812 33.3337L34.3311 33.1736L34.333 33.1619C34.3701 32.996 34.3772 32.8255 34.3545 32.658L34.3223 32.491C34.2654 32.2714 34.1566 32.0687 34.0059 31.8992L33.9863 31.8767L33.9639 31.8572L33.8057 31.7263C33.0362 31.1313 31.8403 30.7668 30.3008 30.6218L29.9658 30.5945L29.9619 30.5935L29.3047 30.5623ZM19.332 26.658L18.5684 28.9001L18.292 29.7126L19.1357 29.5525L20.2549 29.3396L20.2695 29.3367L20.2783 29.3337L21.2734 29.1511L22.0664 29.0046L21.583 28.3601L20.2061 26.5193L19.6377 25.7605L19.332 26.658ZM19.0703 12.3884C18.7163 12.1008 18.0649 11.964 17.3369 12.1589L17.1904 12.2029C16.4784 12.4353 15.9404 12.9154 15.7373 13.5251L15.7012 13.6472C15.4519 14.622 15.6537 15.6189 16.1748 16.7253L16.418 17.2068V17.2078C16.6785 17.6917 16.9809 18.1769 17.3066 18.6746L17.6396 19.1765L17.6406 19.1775L17.8848 19.5417L17.8857 19.5427L18.2715 20.115L18.876 21.0115L19.167 19.9695L19.2178 19.7898L19.4463 18.9753L19.4453 18.9744C19.6458 18.2923 19.8137 17.6033 19.9473 16.907L20.0703 16.2058L20.0723 16.196C20.3024 14.536 20.0961 13.353 19.248 12.5447L19.0703 12.3884Z" fill="#B23D0B" stroke="#F8A227"/>
</svg>
