<svg width="38" height="37" viewBox="0 0 38 37" fill="none" xmlns="http://www.w3.org/2000/svg">
<path d="M30.0882 36.3122L27.4457 33.1895C24.8968 34.7236 21.9036 35.3388 18.3413 35.3388C7.70134 35.3388 0 27.7773 0 17.0542C0 7.03194 8.80041 0 18.3413 0C28.6773 0 36.6827 6.98522 36.6827 17.7551C36.6827 22.1471 35.186 25.9707 32.4111 29.3971L38 35.0663L30.0804 36.2967L30.0882 36.3122ZM26.1752 22.6922C27.1885 21.2905 27.7186 19.4839 27.7186 17.8174C27.7186 12.8491 23.5873 8.37136 18.3959 8.37136C13.2045 8.37136 8.97969 12.5454 8.97969 17.1165C8.97969 22.8324 13.2435 27.0064 18.3959 27.0064C19.2767 27.0064 20.1497 26.874 21.0383 26.5703L15.7145 21.2983L23.8523 20.2859L26.183 22.7L26.1752 22.6922Z" fill="black"/>
</svg>
