<svg width="50" height="45" viewBox="0 0 50 45" fill="none" xmlns="http://www.w3.org/2000/svg">
<g clip-path="url(#clip0_131_6830)">
<g style="mix-blend-mode:multiply">
<path d="M22.7788 20.9091V23.1012H26.4796V34.5003H29.5486V18.0593H27.292C26.6795 20.3159 24.9 20.8898 22.7788 20.9091Z" fill="black"/>
<path d="M6.01549 3.37845C5.83496 3.37845 5.69312 3.52029 5.69312 3.70082V32.6757C5.69312 32.8562 5.83496 32.998 6.01549 32.998C6.19602 32.998 6.33786 32.8562 6.33786 32.6757V3.70082C6.33786 3.52029 6.19602 3.37845 6.01549 3.37845Z" fill="black"/>
<path d="M44.8291 35.4417V3.99742C44.8291 1.79239 43.0368 0 40.8317 0H7.4597V0.0193424C7.34365 0.00644745 7.2147 0 7.0922 0H3.99742C1.79239 0 0 1.79239 0 3.99742V9.82592H1.61831V44.9581H43.3398V41.8955H47.0922C47.8659 41.8955 48.5945 41.5925 49.1425 41.0445C49.697 40.4965 50 39.7614 50 38.9877V35.4417H44.8291ZM37.3759 35.4417C39.6132 32.9529 40.8511 29.7872 40.8511 26.4152C40.8511 18.9684 34.7905 12.9078 27.3372 12.9078C19.8839 12.9078 13.8298 18.9684 13.8298 26.4152C13.8298 29.7872 15.0677 32.9529 17.305 35.4417H15.6093V38.9877C15.6093 40.2386 14.597 41.2508 13.3527 41.2508C12.7531 41.2508 12.1792 41.0187 11.7537 40.5932C11.3282 40.1612 11.0896 39.5938 11.0896 38.9877V9.82592H44.1844V35.4417H37.3759ZM36.5119 35.4417H18.1689C15.7834 33.0174 14.4745 29.8195 14.4745 26.4152C14.4745 19.323 20.245 13.5525 27.3372 13.5525C34.4294 13.5525 40.2063 19.323 40.2063 26.4152C40.2063 29.8195 38.8975 33.0174 36.5119 35.4417ZM44.1844 3.99742V9.18117H11.0896V3.99742C11.0896 2.58543 10.3546 1.35397 9.24565 0.644745H40.8317C42.6821 0.644745 44.1844 2.147 44.1844 3.99742ZM8.8588 44.3133H7.95616V14.0361C7.95616 13.8556 7.81431 13.7137 7.63378 13.7137C7.45326 13.7137 7.31141 13.8556 7.31141 14.0361V44.3133H4.9323V9.14894C4.9323 8.96841 4.79046 8.82656 4.60993 8.82656C4.4294 8.82656 4.28756 8.96841 4.28756 9.14894V44.3133H3.59768V26.8923C3.59768 26.7118 3.45583 26.57 3.27531 26.57C3.09478 26.57 2.95293 26.7118 2.95293 26.8923V44.3133H2.26306V3.9265C2.26306 3.01096 3.01096 2.26306 3.9265 2.26306H7.19536C8.1109 2.26306 8.8588 3.01096 8.8588 3.9265V44.3133ZM7.19536 1.61831H3.9265C2.65635 1.61831 1.61831 2.65635 1.61831 3.9265V9.18117H0.644745V3.99742C0.644745 2.147 2.147 0.644745 3.99742 0.644745H7.0922C7.20181 0.644745 7.31786 0.644745 7.42747 0.664088C9.14894 0.838169 10.4449 2.2695 10.4449 3.99742V9.18117H9.50355V3.9265C9.50355 2.65635 8.46551 1.61831 7.19536 1.61831ZM42.695 44.3133H9.50355V9.82592H10.4449V38.9877C10.4449 39.7614 10.7479 40.49 11.2959 41.0509C11.8504 41.599 12.579 41.8955 13.3527 41.8955H42.695V44.3133ZM49.3553 38.9877C49.3553 39.5938 49.1167 40.1612 48.6912 40.5932C48.2656 41.0187 47.6983 41.2508 47.0922 41.2508H15.1709C15.8285 40.7157 16.254 39.9033 16.254 38.9877V36.0864H49.3553V38.9877Z" fill="black"/>
<path d="M16.1444 7.46613C17.2727 7.46613 18.1947 6.55059 18.1947 5.42229C18.1947 4.29399 17.2727 3.37845 16.1444 3.37845C15.0161 3.37845 14.1006 4.29399 14.1006 5.42229C14.1006 6.55059 15.0161 7.46613 16.1444 7.46613ZM16.1444 4.02319C16.9181 4.02319 17.55 4.6486 17.55 5.42229C17.55 6.19599 16.9181 6.82139 16.1444 6.82139C15.3707 6.82139 14.7453 6.19599 14.7453 5.42229C14.7453 4.6486 15.3707 4.02319 16.1444 4.02319Z" fill="black"/>
<path d="M38.1947 7.46613C39.323 7.46613 40.245 6.55059 40.245 5.42229C40.245 4.29399 39.323 3.37845 38.1947 3.37845C37.0664 3.37845 36.1509 4.29399 36.1509 5.42229C36.1509 6.55059 37.0664 7.46613 38.1947 7.46613ZM38.1947 4.02319C38.9684 4.02319 39.6003 4.6486 39.6003 5.42229C39.6003 6.19599 38.9684 6.82139 38.1947 6.82139C37.421 6.82139 36.7956 6.19599 36.7956 5.42229C36.7956 4.6486 37.421 4.02319 38.1947 4.02319Z" fill="black"/>
</g>
</g>
<defs>
<clipPath id="clip0_131_6830">
<rect width="50" height="45" fill="white"/>
</clipPath>
</defs>
</svg>
