<svg width="172" height="129" viewBox="0 0 172 129" fill="none" xmlns="http://www.w3.org/2000/svg">
<path d="M134.232 98.9161C133.668 98.9161 133.118 99.0198 132.608 99.1975C132.03 99.39 131.466 99.6861 130.943 100.101C130.325 100.545 129.761 101.123 129.238 101.833C128.539 102.707 127.962 103.729 127.492 104.884C126.445 107.327 125.895 110.2 125.895 113.206C125.895 116.212 126.445 119.085 127.479 121.513C127.962 122.683 128.539 123.705 129.224 124.564C129.734 125.26 130.312 125.837 130.929 126.311C131.48 126.711 132.03 127.007 132.581 127.185C133.118 127.392 133.668 127.481 134.232 127.481C138.837 127.481 142.57 121.084 142.57 113.206C142.57 105.328 138.837 98.9161 134.232 98.9161ZM133.373 103.492L137.32 101.996C137.669 101.863 138.058 102.07 138.166 102.455C138.287 102.84 138.099 103.255 137.75 103.388L133.802 104.884C133.802 104.884 133.655 104.928 133.588 104.928C133.306 104.928 133.051 104.736 132.957 104.425C132.836 104.04 133.024 103.625 133.373 103.492ZM128.459 109.267L132.648 109.237C133.064 109.223 133.319 109.563 133.319 109.978C133.319 110.392 133.024 110.718 132.648 110.718L128.459 110.748C128.096 110.748 127.788 110.422 127.788 110.007C127.788 109.593 128.083 109.267 128.459 109.267ZM129.627 122.417C129.627 122.417 129.506 122.446 129.452 122.446C129.157 122.446 128.889 122.224 128.808 121.898L127.761 117.426C127.667 117.026 127.882 116.627 128.244 116.523C128.593 116.419 128.969 116.656 129.05 117.056L130.11 121.528C130.191 121.913 129.976 122.328 129.627 122.417ZM134.689 118.433C134.554 118.566 134.393 118.626 134.232 118.626C134.058 118.626 133.87 118.552 133.735 118.389L130.916 114.983C130.674 114.672 130.688 114.213 130.956 113.931C131.238 113.665 131.654 113.68 131.909 113.976L134.729 117.382C134.984 117.693 134.957 118.152 134.689 118.433ZM138.582 120.951L136.165 124.712C136.031 124.919 135.83 125.023 135.615 125.023C135.481 125.023 135.346 124.978 135.226 124.889C134.93 124.653 134.85 124.193 135.064 123.853L137.481 120.092C137.696 119.766 138.112 119.677 138.421 119.914C138.73 120.151 138.797 120.61 138.582 120.951ZM140.878 111.977C141.173 112.214 141.254 112.673 141.039 113.013L138.649 116.804C138.515 117.012 138.314 117.115 138.099 117.115C137.964 117.115 137.83 117.071 137.723 116.982C137.414 116.745 137.333 116.286 137.548 115.945L139.938 112.169C140.153 111.829 140.569 111.74 140.878 111.977ZM138.663 110.748L134.877 112.747C134.783 112.806 134.675 112.821 134.581 112.821C134.339 112.821 134.098 112.673 133.977 112.406C133.816 112.036 133.964 111.592 134.299 111.414L138.085 109.415C138.408 109.237 138.81 109.415 138.971 109.756C139.133 110.126 138.998 110.57 138.663 110.748Z" fill="#1D1D1B"/>
<path d="M128.189 125.526C127.438 124.564 126.78 123.409 126.256 122.12C125.142 119.529 124.551 116.434 124.551 113.206C124.551 109.978 125.142 106.898 126.269 104.277C126.78 103.003 127.438 101.848 128.203 100.871C128.78 100.101 129.425 99.4492 130.109 98.9309C129.693 98.9753 129.304 99.0642 128.914 99.1975C128.351 99.39 127.787 99.6861 127.236 100.101C126.632 100.56 126.055 101.137 125.531 101.818C125.343 102.055 125.169 102.337 124.981 102.603L124.954 102.633C124.819 102.855 124.739 103.003 124.658 103.136C124.336 103.684 124.041 104.277 123.745 104.958C123.745 104.958 123.719 105.047 123.705 105.076C123.638 105.239 123.571 105.417 123.517 105.58C123.168 106.483 122.9 107.416 122.698 108.408C122.604 108.867 122.51 109.341 122.457 109.815C122.416 110.111 122.376 110.422 122.349 110.733C122.309 111.014 122.295 111.266 122.282 111.503V111.577C122.282 111.577 122.269 111.666 122.269 111.695C122.269 111.888 122.242 112.036 122.242 112.184C122.228 112.554 122.215 112.88 122.215 113.206C122.215 115.368 122.483 117.426 123.02 119.322L121.732 119.766C121.168 117.708 120.872 115.516 120.872 113.206C120.872 112.865 120.886 112.525 120.899 112.184V112.154C120.899 111.977 120.913 111.814 120.926 111.636V111.592C120.926 111.592 120.939 111.459 120.953 111.399C120.953 111.148 120.98 110.866 121.007 110.6C121.007 110.585 121.007 110.555 121.007 110.54C121.007 110.481 121.02 110.422 121.02 110.348C121.047 110.096 121.074 109.844 121.114 109.608C121.181 109.089 121.275 108.571 121.369 108.082C121.597 107.031 121.893 105.994 122.242 105.061C122.242 105.061 122.242 105.061 122.242 105.032C122.322 104.81 122.403 104.573 122.51 104.336C122.819 103.581 123.155 102.929 123.49 102.366C123.571 102.203 123.665 102.055 123.759 101.893L123.853 101.744C124.068 101.433 124.269 101.152 124.484 100.871C125.075 100.086 125.706 99.4344 126.404 98.9309C125.988 98.9753 125.585 99.0642 125.209 99.1975C124.632 99.39 124.068 99.6861 123.544 100.101C122.067 101.197 120.819 102.974 119.919 105.239L118.684 104.647C119.677 102.159 121.074 100.175 122.725 98.9309C122.309 98.9753 121.906 99.0642 121.53 99.1975H121.503L121.409 99.2419C121.221 99.3159 121.047 99.39 120.859 99.4936H120.845C120.631 99.5973 120.469 99.6861 120.308 99.8046C120.295 99.8194 120.268 99.8194 120.255 99.8342C120.161 99.8786 120.12 99.9082 120.08 99.9379C119.892 100.086 119.798 100.13 119.718 100.204C119.57 100.323 119.53 100.352 119.476 100.397C119.234 100.619 119.06 100.767 118.912 100.93C118.724 101.123 118.536 101.33 118.362 101.537C118.026 101.937 117.731 102.366 117.462 102.781C115.784 105.491 114.817 109.282 114.817 113.206C114.817 117.13 115.676 120.565 117.247 123.261L116.119 124.06C114.414 121.143 113.475 117.278 113.475 113.206C113.475 109.134 114.495 104.943 116.361 101.952C116.656 101.478 116.992 101.004 117.368 100.545C117.462 100.397 117.569 100.278 117.677 100.175C117.771 100.056 117.878 99.9527 117.986 99.849C118.16 99.6713 118.335 99.4936 118.523 99.3603C118.523 99.3307 118.55 99.3307 118.563 99.3159C118.59 99.3159 118.603 99.2715 118.63 99.2567C118.63 99.2567 118.764 99.1382 118.832 99.079C118.764 99.1382 118.711 99.1826 118.67 99.2123C118.67 99.2123 118.67 99.2123 118.684 99.1975C118.724 99.153 118.778 99.1234 118.832 99.079C118.885 99.0346 118.939 98.9901 118.979 98.9605C118.979 98.9457 118.993 98.9457 118.993 98.9457C118.966 98.9457 118.939 98.9457 118.912 98.9605H118.832L118.764 98.9753C118.63 98.9901 118.509 99.0198 118.375 99.0346L118.241 99.079L117.959 99.153C117.959 99.153 117.959 99.153 117.932 99.1678C117.811 99.1975 117.704 99.2271 117.61 99.2715C117.596 99.2715 117.583 99.2863 117.569 99.2863C117.368 99.3752 117.22 99.4344 117.086 99.5232C117.019 99.5677 116.952 99.5973 116.885 99.6269C116.71 99.7305 116.576 99.8046 116.442 99.8934C116.039 100.16 115.65 100.486 115.233 100.9L114.763 101.419C114.455 101.774 114.119 102.233 113.797 102.737C113.797 102.737 113.783 102.737 113.783 102.766C113.716 102.87 113.663 102.988 113.595 103.077C113.555 103.136 113.528 103.181 113.501 103.225C113.381 103.433 113.273 103.61 113.193 103.803C113.193 103.818 113.193 103.832 113.179 103.847L113.099 103.966C113.099 103.966 113.058 104.069 113.045 104.114H113.031C113.031 104.114 113.018 104.173 113.005 104.188C112.911 104.395 112.844 104.558 112.776 104.721C112.723 104.825 112.682 104.899 112.656 104.973C112.642 105.002 112.629 105.047 112.615 105.076C112.602 105.091 112.602 105.121 112.588 105.135C112.588 105.135 112.588 105.135 112.588 105.165C112.414 105.609 112.266 106.024 112.119 106.453C112.011 106.809 111.904 107.164 111.823 107.549C111.756 107.757 111.716 107.905 111.689 108.053C111.635 108.29 111.581 108.527 111.541 108.763L111.514 108.912C111.514 108.912 111.488 109.045 111.474 109.119C111.461 109.148 111.461 109.193 111.447 109.223C111.434 109.341 111.42 109.474 111.394 109.593C111.367 109.815 111.34 110.052 111.313 110.274C111.273 110.57 111.232 110.851 111.219 111.133C111.192 111.414 111.179 111.636 111.165 111.858C111.138 112.303 111.125 112.747 111.125 113.206C111.125 113.665 111.138 114.124 111.165 114.568C111.179 114.79 111.192 115.012 111.219 115.205C111.246 115.708 111.3 116.153 111.367 116.582C111.367 116.597 111.367 116.627 111.38 116.641C111.407 116.908 111.434 117.13 111.488 117.352L111.528 117.559C111.528 117.559 111.541 117.619 111.541 117.648C111.635 118.107 111.702 118.492 111.81 118.848C111.917 119.292 112.051 119.707 112.172 120.121L112.213 120.24C112.347 120.61 112.468 120.965 112.615 121.291C112.696 121.498 112.763 121.676 112.844 121.854C112.87 121.928 112.911 122.002 112.938 122.076C112.964 122.12 112.991 122.165 113.005 122.209C113.005 122.254 113.045 122.283 113.072 122.328C113.085 122.357 113.099 122.372 113.112 122.402C113.193 122.579 113.273 122.727 113.354 122.876C113.448 123.068 113.542 123.231 113.649 123.409C113.77 123.616 113.837 123.72 113.904 123.823C113.904 123.823 113.913 123.833 113.931 123.853C114.092 124.09 114.253 124.327 114.414 124.534C114.495 124.652 114.575 124.741 114.656 124.845C114.737 124.949 114.817 125.038 114.898 125.141H114.911C115.032 125.274 115.126 125.378 115.233 125.497C115.3 125.571 115.354 125.63 115.421 125.674C115.475 125.733 115.529 125.778 115.582 125.822C116.106 126.296 116.616 126.666 117.207 126.948H117.22C117.355 127.022 117.462 127.066 117.556 127.096C117.932 127.259 118.241 127.333 118.523 127.392H118.536C118.67 127.422 118.832 127.436 118.979 127.451C119.14 127.466 119.301 127.481 119.463 127.481H121.799C122.228 127.481 122.295 127.422 122.685 127.466C122.457 127.274 122.255 127.096 122.04 126.918C121.879 126.77 121.705 126.607 121.57 126.429C121.57 126.429 121.561 126.425 121.544 126.415C121.544 126.415 121.423 126.311 121.315 126.163C121.248 126.089 121.154 125.985 121.074 125.882V125.852C121.02 125.808 120.993 125.763 120.966 125.733C120.939 125.689 120.913 125.659 120.899 125.645C120.819 125.541 120.671 125.363 120.537 125.171C120.282 124.83 120.053 124.46 119.838 124.09C119.463 123.438 119.1 122.713 118.791 121.943C118.778 121.898 118.764 121.854 118.738 121.809C118.563 121.41 118.415 120.98 118.268 120.536L118.053 119.81C117.959 119.484 117.865 119.129 117.784 118.774C117.717 118.448 117.65 118.107 117.583 117.767V117.663L117.543 117.53C117.516 117.426 117.502 117.293 117.475 117.13C117.449 116.967 117.422 116.804 117.408 116.641C117.355 116.33 117.314 116.064 117.288 115.768C117.261 115.546 117.247 115.309 117.234 115.057V115.027C117.207 114.82 117.194 114.583 117.194 114.331V114.302C117.18 113.976 117.167 113.591 117.167 113.206H118.509C118.509 113.561 118.523 113.931 118.536 114.272C118.536 114.509 118.55 114.701 118.576 114.879V114.938C118.59 115.205 118.603 115.397 118.63 115.575C118.657 115.886 118.684 116.138 118.724 116.39C118.724 116.404 118.724 116.434 118.724 116.449C118.764 116.804 118.805 117.1 118.858 117.397V117.441C118.858 117.441 118.885 117.515 118.899 117.545C118.939 117.737 118.966 117.93 119.006 118.107C119.033 118.211 119.046 118.315 119.073 118.418C119.1 118.552 119.14 118.685 119.167 118.818C119.221 119.011 119.275 119.188 119.328 119.381L119.516 120.047C119.65 120.432 119.785 120.817 119.946 121.187C119.946 121.202 119.959 121.202 119.959 121.217C120.174 121.795 120.416 122.313 120.684 122.801C120.765 122.964 120.859 123.112 120.953 123.275C121.141 123.631 121.342 123.942 121.557 124.223C121.678 124.401 121.812 124.564 121.946 124.727L122.067 124.875L122.107 124.934C122.107 124.934 122.201 125.052 122.255 125.097L122.363 125.23C122.363 125.23 122.416 125.304 122.47 125.348C122.483 125.363 122.497 125.378 122.51 125.393C122.658 125.556 122.779 125.659 122.886 125.763H122.9C123.128 125.97 123.329 126.148 123.544 126.311C124.081 126.711 124.632 127.007 125.182 127.185C125.571 127.348 125.974 127.436 126.377 127.466C125.692 126.933 125.061 126.296 124.484 125.556L125.504 124.593C126.028 125.26 126.605 125.852 127.223 126.311C127.773 126.711 128.324 127.007 128.861 127.185C129.263 127.333 129.653 127.422 130.056 127.466C129.371 126.918 128.726 126.281 128.163 125.526H128.189Z" fill="#1D1D1B"/>
<path d="M130.136 98.9161C130.136 98.9161 130.123 98.9309 130.109 98.9309C130.257 98.9161 130.405 98.9161 130.552 98.9161H130.136Z" fill="#1D1D1B"/>
<path d="M118.9 128.932C118.712 128.932 118.511 128.888 118.336 128.843C117.987 128.769 117.611 128.695 117.209 128.517C117.195 128.517 117.168 128.517 117.155 128.503C117.074 128.473 116.954 128.429 116.833 128.369C116.779 128.34 116.725 128.325 116.685 128.295C116.229 128.073 115.799 127.807 115.383 127.481H49.676C45.0844 127.481 41.3385 121.084 41.3385 113.206C41.3385 105.328 45.0709 98.9309 49.6626 98.9161H49.676H115.383C115.517 98.8125 115.651 98.7088 115.785 98.6199C116.014 98.4719 116.229 98.3386 116.457 98.2349C116.484 98.2201 116.497 98.2053 116.524 98.1905C116.779 98.0572 116.967 97.9684 117.182 97.8943C117.303 97.8351 117.464 97.7759 117.638 97.7315H117.652L117.96 97.6426L118.175 97.5834C118.323 97.5538 118.457 97.5241 118.605 97.5093H118.672L118.86 97.4797C119.008 97.4501 119.249 97.4353 119.491 97.4353H49.676C49.676 97.4353 49.6761 97.4353 49.6626 97.4353H9.68012C4.33659 97.4353 0 104.514 0 113.206C0 121.898 4.33659 128.962 9.68012 128.962H49.676H119.491C119.303 128.962 119.102 128.947 118.9 128.932ZM1.3426 113.206C1.3426 105.328 5.08844 98.9161 9.68012 98.9161H45.5946C42.2918 101.433 39.9959 106.898 39.9959 113.206C39.9959 119.514 42.2918 124.978 45.5946 127.481H9.68012C5.08844 127.481 1.3426 121.084 1.3426 113.206Z" fill="#1D1D1B"/>
<path d="M167.662 8.12779C159.257 -0.742228 141.723 -0.00182554 141.011 0.0277905H85.2127C61.4891 0.0277905 48.9492 12.4814 48.9492 36.0558C48.9492 43.6819 51.2853 50.0346 55.877 54.9508C67.0071 66.8565 87.3877 66.3086 88.2201 66.279H106.963C110.292 66.279 112.279 66.8121 113.018 67.9227C113.85 69.1517 113.246 71.3433 112.548 73.8903C111.944 76.1263 111.246 78.6585 111.246 81.3684C111.246 90.4901 122.228 92.0302 122.336 92.045L124.457 92.3115L122.859 90.7567C120.805 88.7428 119.999 86.6104 120.536 84.6113C121.449 81.2203 125.907 78.392 131.922 77.3998C146.771 74.9121 149.886 65.894 149.886 58.7565C149.886 53.7958 148.342 49.768 145.294 46.7768C138.5 40.1132 126.363 40.5722 122.725 40.8684C123.92 39.047 128.417 38.4695 130.109 38.4102H145.992C146.757 38.4102 147.563 38.4102 148.395 38.4399C154.813 38.5435 162.801 38.6768 167.702 33.3459C170.562 30.251 171.998 25.5865 171.998 19.5004C171.998 14.9987 170.535 11.1782 167.662 8.12779ZM166.762 32.2797C162.264 37.1812 154.585 37.0627 148.422 36.959C147.576 36.9442 146.757 36.9294 145.992 36.9294H130.096C129.196 36.9591 121.302 37.3293 121.087 41.668L121.047 42.5565L121.839 42.4528C121.986 42.4232 136.97 40.587 144.408 47.8874C147.147 50.5825 148.543 54.24 148.543 58.7565C148.543 68.2929 142.877 74.068 131.72 75.9338C125.195 77.0148 120.308 80.2578 119.248 84.1967C118.858 85.6479 118.831 87.7358 120.469 90.1051C117.569 89.2315 112.588 86.9362 112.588 81.3684C112.588 78.8806 113.246 76.4521 113.837 74.3197C114.629 71.3878 115.327 68.8556 114.092 67.0342C113.058 65.4942 110.856 64.7982 106.963 64.7982H88.2067C87.9919 64.7982 67.5307 65.3609 56.8034 53.8846C52.4802 49.2645 50.2918 43.2673 50.2918 36.0558C50.2918 13.1329 62.0395 1.50859 85.2127 1.50859H141.038C141.212 1.49379 158.747 0.768193 166.735 9.20878C169.34 11.9483 170.656 15.4133 170.656 19.5004C170.656 25.2607 169.38 29.4366 166.762 32.2797Z" fill="#1D1D1B"/>
</svg>
