<svg width="301" height="293" viewBox="0 0 301 293" fill="none" xmlns="http://www.w3.org/2000/svg">
<g clip-path="url(#clip0_141_19871)">
<path d="M172.128 107.609C172.128 107.609 172.208 107.689 172.234 107.715C172.128 107.795 172.022 107.848 171.942 107.928C171.571 108.167 171.119 108.485 170.695 108.884C170.164 109.415 170.164 110.238 170.695 110.769C170.96 111.034 171.305 111.167 171.624 111.167C171.942 111.167 172.314 111.034 172.553 110.769C172.765 110.556 173.084 110.344 173.376 110.158C174.066 109.707 174.943 109.149 175.049 108.06C175.155 106.919 174.279 106.043 173.987 105.751C172.288 104.051 167.27 98.2633 167.216 98.2102C166.739 97.6527 165.889 97.5996 165.331 98.0775C164.774 98.5554 164.721 99.405 165.199 99.9626C165.411 100.202 170.323 105.883 172.075 107.662L172.128 107.609Z" fill="#1D1D1B"/>
<path d="M170.164 119.981C170.987 119.981 171.677 119.981 172.208 119.981C172.951 119.981 173.536 119.371 173.509 118.627C173.509 117.884 172.978 117.273 172.155 117.326C165.677 117.433 158.057 116.875 157.021 115.866C156.49 115.335 155.667 115.335 155.136 115.866C154.605 116.397 154.605 117.22 155.136 117.751C157.127 119.743 165.57 120.008 170.164 120.008V119.981Z" fill="#1D1D1B"/>
<path d="M166.287 174.782C165.756 175.286 165.729 176.109 166.207 176.64C167.057 177.596 175.288 191.11 171.438 199.527C171.119 200.191 171.438 200.987 172.101 201.279C172.287 201.359 172.473 201.412 172.659 201.412C173.163 201.412 173.641 201.12 173.854 200.642C178.42 190.712 169.048 175.764 168.119 174.808C167.614 174.277 166.791 174.277 166.287 174.782Z" fill="#1D1D1B"/>
<path d="M299.89 161.613C294.129 141.116 277.136 134.292 272.463 132.779C272.755 131.319 272.994 129.805 273.127 128.265L278.862 65.2876L277.773 64.9955C272.702 63.668 267.631 62.6856 262.746 62.0484C262.082 56.1011 263.834 43.3569 266.782 33.2146C269.038 25.3822 273.286 15.4523 275.623 10.2218C276.871 7.38091 275.649 4.08865 272.888 2.73457C272.437 2.49561 271.959 2.30976 271.454 2.09736C270.95 1.9115 270.419 1.6991 269.835 1.51325C267.366 0.716731 264.1 0.849483 260.675 1.83185C256.772 2.92042 253.108 5.04446 250.373 7.77917C246.338 11.8148 242.78 24.4794 240.921 32.0994C239.514 28.1434 237.576 23.1785 236.063 20.7624C235.133 19.2755 233.089 17.656 228.628 18.3463C227.195 18.5321 225.947 19.3817 225.203 20.6562C224.46 21.9571 224.354 23.4971 224.938 24.8777C231.257 40.0911 235.001 49.4104 235.505 51.1362C236.169 53.2602 235.824 59.1279 235.558 62.1812C227.407 63.4291 222.787 65.3938 222.601 65.4734L221.885 65.792L218.114 108.91C218.088 109.335 217.955 109.76 217.902 110.185C202.397 109.149 185.378 100.016 177.439 91.4398C176.961 89.8999 176.483 88.3865 176.005 86.9794C176.005 86.7139 175.899 86.4749 175.74 86.289C174.28 81.9613 172.846 78.6159 171.704 76.8371C167.828 70.757 157.5 54.6143 139.498 59.7651C122.187 64.7035 113.187 75.4564 114.196 90.0592L114.302 91.4664C115.178 103.945 115.868 113.795 112.311 117.353C110.957 118.707 107.452 118.468 103.761 118.203C98.7433 117.858 93.1412 117.486 89.3179 120.592L71.5821 87.0856L70.5467 87.3511C65.8207 88.6255 61.1743 90.3247 56.7138 92.3426C55.3067 87.59 50.7931 71.5004 51.5365 61.0661C51.6427 59.5792 51.0055 58.172 49.7842 57.2693C48.6159 56.3932 47.1291 56.2073 45.8016 56.7118C42.4031 58.0393 38.394 61.6502 38.1816 71.1818C34.0662 64.2521 26.4728 53.3664 18.4811 51.561C15.8526 50.9769 13.171 51.0565 10.5159 51.8265C8.1264 52.5168 5.7634 53.7647 3.48006 55.4904C2.76319 56.048 2.07288 56.6056 1.48877 57.1631C0.453298 58.1455 -0.0777122 59.5527 0.0284898 60.9864C0.134692 62.367 0.851556 63.5884 1.96668 64.3583C13.3568 72.1907 29.8713 101.529 33.0042 107.211C26.0745 112.946 22.2247 117.539 22.0654 117.725L21.5079 118.389L37.4382 150.17C32.2077 152.718 12.1355 163.498 3.10835 181.738C2.78974 182.402 3.05525 183.198 3.71901 183.517C3.90487 183.623 4.11727 183.65 4.30312 183.65C4.78103 183.65 5.25894 183.384 5.4979 182.906C14.0472 165.649 33.6945 155.002 38.6329 152.533L40.8101 156.86C35.1017 160.949 7.94054 183.756 21.8265 238.477L21.9858 239.114L22.5699 239.379C22.7823 239.486 38.3674 246.15 59.2361 246.15C66.7765 246.15 74.9806 245.274 83.4237 242.911C84.1405 242.725 84.5388 241.981 84.3529 241.264C84.1671 240.548 83.4237 240.149 82.7068 240.335C54.3243 248.3 28.4375 238.822 24.2426 237.149C16.7022 206.828 22.1982 187.075 28.172 175.817C33.2432 166.259 39.4826 161.082 42.0314 159.223L45.244 165.649C49.1204 173.401 55.5722 179.641 63.4577 183.225L95.6635 197.961L96.8848 198.518C98.4778 199.235 99.5929 200.748 99.8053 202.501L110.718 292.719L112.072 292.507C112.258 292.507 131.108 289.666 148.791 284.117H148.844C167.854 280.108 186.599 279.258 198.998 278.727C202.874 278.541 206.246 278.409 208.769 278.196C217.849 277.426 234.762 272.966 241.426 264.257C243.948 260.938 244.877 257.301 244.187 253.398C244.187 253.371 244.187 253.345 244.16 253.318L236.567 222.812C243.337 221.59 271.932 215.032 286.004 190.181C286.376 189.544 286.137 188.747 285.5 188.376C284.862 188.004 284.066 188.243 283.694 188.88C270.021 213.015 241.957 219.174 235.93 220.236L227.274 185.429C227.035 184.446 227.354 183.411 228.124 182.774L229 182.03C230.779 186.677 236.063 199.049 244.293 205.766C244.532 205.979 244.824 206.058 245.143 206.058C245.515 206.058 245.913 205.899 246.178 205.581C246.63 205.023 246.55 204.173 245.992 203.722C237.762 197.031 232.478 183.703 231.177 180.251L257.117 158.692C264.392 152.665 269.596 144.355 271.932 135.222C276.393 136.708 292.058 143.134 297.421 162.197C297.58 162.781 298.111 163.179 298.695 163.179C298.801 163.179 298.934 163.179 299.04 163.126C299.757 162.914 300.156 162.197 299.97 161.48L299.89 161.613ZM227.354 23.8688C227.089 23.2581 227.142 22.5678 227.487 22.0102C227.805 21.4527 228.336 21.081 229 21.0013C230.699 20.7358 232.903 20.7358 233.806 22.1961C235.346 24.6653 237.47 30.4268 238.611 33.6128C238.983 34.6748 239.965 35.3917 241.054 35.2855C242.169 35.2324 243.072 34.4624 243.337 33.4004C246.258 21.2137 249.577 12.3724 252.232 9.71735C253.347 8.60223 254.648 7.61986 256.055 6.7968C253.772 10.5404 251.037 17.1249 248.993 28.5417C248.86 29.2585 249.338 29.9488 250.055 30.0816C250.134 30.0816 250.214 30.0816 250.294 30.0816C250.931 30.0816 251.488 29.6302 251.595 28.993C255.126 9.15979 260.781 4.88516 261.525 4.40725C264.047 3.69039 266.436 3.53109 268.295 3.92934C265.613 6.61094 260.861 12.7972 258.843 24.4529C258.71 25.1698 259.188 25.8601 259.931 25.9928C260.011 25.9928 260.091 25.9928 260.17 25.9928C260.808 25.9928 261.365 25.5415 261.471 24.9042C263.675 12.16 269.41 6.39854 271.162 4.88516C271.348 4.96481 271.534 5.04446 271.72 5.12412C273.233 5.84098 273.871 7.61986 273.207 9.15979C270.844 14.4433 266.569 24.4794 264.259 32.4711C261.286 42.7196 259.533 55.1718 260.091 61.7564C252.55 60.9599 245.249 60.9864 238.266 61.836C238.505 58.8889 238.877 52.9681 238.054 50.3662C237.364 48.0829 231.868 34.7014 227.381 23.8688H227.354ZM134.879 143.532C134.879 144.647 134.852 145.709 134.825 146.612C134.825 147.727 134.799 148.656 134.799 149.267C134.799 150.01 135.383 150.594 136.126 150.594C136.87 150.594 137.454 150.01 137.454 149.267C137.454 148.683 137.454 147.78 137.481 146.665C137.481 145.364 137.534 143.797 137.56 142.098C137.64 134.85 137.427 130.336 136.87 127.894C136.286 125.345 134.109 122.292 131.799 119.026C129.489 115.787 127.126 112.441 126.674 109.999C125.878 105.724 127.896 103.786 128.905 102.803C129.144 102.591 130.232 102.113 131.56 102.352C133.259 102.671 134.799 104.131 136.02 106.574L136.79 108.114C139.684 114.008 141.144 116.981 145.791 116.981H147.888L141.675 103.972C145.26 102.06 155.216 96.4844 157.287 92.1302C158.349 89.9265 159.252 86.2625 159.278 82.4392C162.544 84.2181 168.996 87.4573 173.589 88.2803C174.041 89.6344 174.492 91.0681 174.943 92.5284C178.713 104.928 180.891 116.822 179.935 119.583C178.952 122.451 176.696 126.46 171.571 129.195C171.571 129.195 171.518 129.221 171.518 129.248C169.5 130.283 167.244 131.053 164.801 131.531C156.305 133.124 150.596 128.876 150.543 128.823C149.959 128.372 149.136 128.504 148.685 129.062C148.233 129.646 148.34 130.469 148.924 130.92C149.136 131.106 153.703 134.531 160.951 134.531C162.305 134.531 163.766 134.399 165.305 134.133C167.35 133.735 169.235 133.098 171.014 132.328L171.863 144.859C171.917 145.55 172.501 146.107 173.191 146.107C173.217 146.107 173.244 146.107 173.297 146.107C174.041 146.054 174.572 145.417 174.518 144.7L174.439 143.373H176.881C181.74 143.373 188.882 146.453 188.882 149.214C188.882 149.718 188.537 161.374 157.42 161.374C132.383 161.374 123.462 156.276 123.462 151.497C123.462 147.408 129.728 144.382 132.887 143.744C133.312 143.665 134.162 143.559 134.932 143.505L134.879 143.532ZM176.483 140.744H174.2L173.536 131.106C178.873 127.973 181.342 123.646 182.404 120.46C183.732 116.663 181.209 105.193 178.846 96.5375C187.767 104.237 202.582 111.671 217.079 112.786C215.911 115.866 213.76 118.521 210.919 120.221L176.483 140.718V140.744ZM103.522 120.858C107.85 121.15 111.912 121.442 114.116 119.238C118.55 114.831 117.86 104.954 116.877 91.2805L116.771 89.8734C115.868 76.4919 123.94 66.9603 140.162 62.3139C154.446 58.2251 163.288 68.7126 169.394 78.2708C170.27 79.6249 171.359 82.1472 172.527 85.3598C167.695 84.0588 160.978 80.3948 159.066 79.3063C158.509 74.7661 156.305 69.1109 149.242 66.5355C148.552 66.2965 147.782 66.6417 147.543 67.332C147.304 68.0223 147.649 68.7923 148.34 69.0312C153.252 70.8366 156.013 74.6334 156.517 80.2886C156.915 84.404 155.933 88.7317 154.871 91.015C153.145 94.5994 143.056 100.334 139.286 102.246L138.144 102.83L143.348 113.742C142.074 112.866 141.065 110.901 139.127 106.998L138.357 105.459C136.259 101.264 133.631 100.042 131.772 99.7767C129.489 99.4315 127.604 100.361 126.887 101.104C125.904 102.034 122.931 104.848 124.019 110.556C124.577 113.556 127.126 117.141 129.595 120.619C131.639 123.513 133.763 126.487 134.241 128.531C134.879 131.292 134.905 137.266 134.879 140.585L96.4334 128.345C93.9642 127.495 91.9198 125.77 90.6985 123.433L90.5126 123.088C93.5394 120.247 98.7964 120.566 103.496 120.911L103.522 120.858ZM3.42696 62.2343C2.81629 61.8095 2.65699 61.1988 2.63044 60.8537C2.57734 60.2164 2.81629 59.6058 3.26765 59.181C3.71901 58.7562 4.25002 58.3313 4.78103 57.88C6.32096 57.7472 13.702 57.8003 20.5255 71.049C20.7644 71.5004 21.2158 71.7659 21.6937 71.7659C21.9061 71.7659 22.1185 71.7128 22.3044 71.6066C22.9681 71.2615 23.2071 70.4649 22.8885 69.8277C17.7377 59.8182 12.0559 56.6056 8.25915 55.5966C9.10877 55.1718 9.95838 54.8001 10.8345 54.5346C12.5338 55.1187 19.4369 57.8269 22.5699 63.907C22.8088 64.3583 23.2602 64.6238 23.7381 64.6238C23.9505 64.6238 24.1629 64.5707 24.3488 64.4645C25.0125 64.1194 25.2515 63.3228 24.9063 62.6856C22.6761 58.3579 18.9325 55.5701 15.9057 53.924C16.5429 53.9771 17.1801 54.0567 17.7908 54.1895C25.3842 55.9153 33.2432 68.1816 36.2699 73.412C36.8275 74.3413 37.9161 74.7661 38.925 74.4741C39.987 74.182 40.6773 73.2527 40.6773 72.1642C40.6773 65.2345 42.7217 60.7474 46.6246 59.2075C47.315 58.942 47.8725 59.2606 48.0584 59.4199C48.5363 59.7651 48.7752 60.2961 48.7221 60.8802C47.8991 72.1907 52.7844 89.1299 54.1119 93.5108C47.4477 96.7499 41.0225 100.812 34.969 105.565C31.2784 98.874 15.1092 70.3056 3.32075 62.2077L3.42696 62.2343ZM255.338 156.781L226.345 180.862C224.779 182.189 224.115 184.234 224.619 186.199L239.434 245.805C238.16 244.689 236.7 243.84 235.054 243.256C220.345 238.131 194.299 255.761 177.041 267.417C174.306 269.275 171.837 270.921 169.766 272.275C164.589 275.594 157.314 278.754 148.074 281.648C148.074 281.648 148.074 281.648 148.048 281.648C133.232 286.294 117.541 289.029 112.921 289.772L102.328 202.262C102.009 199.58 100.31 197.244 97.8937 196.182L64.4931 180.889C57.1652 177.543 51.1648 171.729 47.5539 164.533L40.4118 150.276L24.6408 118.813C25.9949 117.3 29.7385 113.238 35.5 108.591C42.058 103.281 49.0673 98.8209 56.3952 95.3693C60.8292 93.2718 65.4755 91.5195 70.1749 90.192L87.7248 123.407L88.3886 124.628C89.9285 127.522 92.5039 129.726 95.6369 130.788L130.153 141.78C126.17 143.187 120.78 146.453 120.78 151.497C120.78 156.17 125.533 164.029 157.393 164.029C189.254 164.029 191.511 150.727 191.511 149.214C191.511 145.125 185.829 142.284 180.864 141.196L212.3 122.504C216.229 120.167 219.123 116.318 220.238 111.937C220.477 111.008 220.637 110.078 220.716 109.149L224.354 67.624C226 67.0134 230.354 65.5531 236.939 64.6238C244.665 63.5087 252.896 63.4822 261.392 64.5176C266.144 65.0752 271.056 66.0044 275.995 67.2523L270.472 128C270.313 129.832 270.021 131.637 269.622 133.363C267.578 142.47 262.507 150.78 255.338 156.728V156.781Z" fill="#1D1D1B"/>
<path d="M263.834 163.896C263.17 163.604 262.374 163.923 262.082 164.587C261.79 165.25 262.082 166.047 262.772 166.339C262.958 166.418 281.172 174.251 289.854 184.951C290.119 185.269 290.491 185.429 290.889 185.429C291.181 185.429 291.473 185.322 291.739 185.137C292.296 184.685 292.403 183.836 291.925 183.278C282.818 172.074 264.604 164.241 263.834 163.923V163.896Z" fill="#1D1D1B"/>
<path d="M274.719 160.551C278.118 161.905 283.8 164.162 285.207 166.365C285.472 166.764 285.897 166.976 286.322 166.976C286.561 166.976 286.826 166.896 287.039 166.764C287.65 166.365 287.835 165.542 287.437 164.932C285.579 162.011 279.87 159.728 275.702 158.082C274.242 157.498 272.994 156.993 272.436 156.674C271.799 156.303 271.002 156.515 270.631 157.152C270.259 157.79 270.471 158.586 271.109 158.958C271.852 159.383 273.1 159.887 274.719 160.524V160.551Z" fill="#1D1D1B"/>
<path d="M86.1045 219.944C86.3434 219.254 85.9717 218.51 85.2549 218.271C84.5646 218.033 83.8212 218.404 83.5822 219.121C81.113 226.555 83.9539 240.123 84.0867 240.68C84.2194 241.291 84.777 241.742 85.3876 241.742C85.4938 241.742 85.5735 241.742 85.6797 241.716C86.3965 241.556 86.8479 240.866 86.6886 240.149C86.6621 240.016 83.8743 226.715 86.131 219.971L86.1045 219.944Z" fill="#1D1D1B"/>
<path d="M93.274 202.713C92.5571 202.501 91.8403 202.899 91.6278 203.589C90.38 207.651 89.6631 213.041 89.4773 219.652C89.1586 230.644 90.5127 241.291 90.5127 241.397C90.5924 242.061 91.1765 242.565 91.8402 242.565C91.8933 242.565 91.9465 242.565 91.9996 242.565C92.7164 242.459 93.2474 241.795 93.1412 241.079C93.1412 240.972 91.8137 230.538 92.1058 219.759C92.2916 213.386 92.9819 208.209 94.1501 204.386C94.3626 203.695 93.9643 202.952 93.274 202.74V202.713Z" fill="#1D1D1B"/>
</g>
<defs>
<clipPath id="clip0_141_19871">
<rect width="301" height="293" fill="white"/>
</clipPath>
</defs>
</svg>
