<svg width="82" height="185" viewBox="0 0 82 185" fill="none" xmlns="http://www.w3.org/2000/svg">
<path d="M37.1956 184.985H36.2812C36.2812 180.266 38.5488 176.417 41.3285 176.417H44.4648V173.173C44.4648 171.062 43.4499 169.339 42.2063 169.339H31.307C25.5007 169.339 20.7734 161.314 20.7734 151.458V138.172C20.7734 123.783 27.6678 112.08 36.144 112.08H57.2935C57.6775 112.08 57.9792 111.553 57.9792 110.916C57.9792 110.28 57.6684 109.752 57.2935 109.752H37.4242C36.8938 109.752 36.5555 109.752 36.4824 109.752V108.2H37.1681C39.5089 108.153 47.4091 107.595 50.5363 102.286L51.2403 101.091C54.5321 95.4569 55.8945 93.1287 62.1396 93.1287C66.2452 93.1287 69.5826 98.794 69.5826 105.763V128.921C69.5826 140.764 63.9044 150.403 56.9277 150.403H33.09C30.9321 150.403 29.1857 153.383 29.1857 157.03C29.1857 161.625 31.3893 165.35 34.0867 165.35H42.7184C45.1049 165.35 46.8422 168.547 46.8422 172.94V174.166C46.8422 176.168 46.2844 177.565 45.3975 177.907V177.984H41.3468C39.07 177.984 37.2139 181.135 37.2139 185L37.1956 184.985ZM36.144 113.617C28.1707 113.617 21.6878 124.622 21.6878 138.156V151.443C21.6878 160.445 26.0036 167.771 31.307 167.771H42.2063C43.9619 167.771 45.3792 170.193 45.3792 173.157V176.23C45.8364 175.827 45.9095 174.802 45.9095 174.135V172.909C45.9095 169.417 44.5563 166.871 42.7001 166.871H34.0684C30.859 166.871 28.253 162.447 28.253 156.999C28.253 152.483 30.4201 148.82 33.0717 148.82H56.9094C63.3832 148.82 68.65 139.879 68.65 128.89V105.732C68.65 99.6166 65.724 94.6498 62.1213 94.6498C56.2602 94.6498 55.1538 96.5434 51.8712 102.162L51.1672 103.357C49.7682 105.732 47.5554 107.238 45.2695 108.169H57.2752C58.1621 108.169 58.8753 109.395 58.8753 110.885C58.8753 112.375 58.153 113.601 57.2752 113.601H36.1257L36.144 113.617Z" fill="#1D1D1B"/>
<path d="M40.3047 102.379V100.827C48.3603 100.827 51.2589 96.7142 53.179 93.9979L53.4168 93.6564C55.4375 90.816 59.4608 90.5987 59.6254 90.5987H73.3318C76.3218 90.5987 78.7449 86.47 78.7449 81.41C78.7449 76.35 76.3127 72.2213 73.3318 72.2213H70.0766V70.6692H73.3318C76.8247 70.6692 79.6593 75.4964 79.6593 81.41C79.6593 87.3237 76.8156 92.1509 73.3318 92.1509H59.6437C59.6437 92.1509 55.785 92.3682 54.002 94.8671L53.7642 95.1931C51.7435 98.049 48.6895 102.379 40.3047 102.379Z" fill="#1D1D1B"/>
<path d="M40.7682 107.16C40.5945 107.16 40.4848 107.16 40.4574 107.144H16.1625C7.42108 107.144 0.316406 95.0842 0.316406 80.2457V75.8686C0.316406 62.2253 6.85417 51.1274 14.8915 51.1274H49.1165C55.1696 51.1274 60.1072 59.4935 60.1072 69.7842V74.8908C60.1072 83.4431 56.0108 90.3967 50.9726 90.3967H40.2562C39.0309 90.3967 38.0434 92.0885 38.0434 94.1529V96.9778C38.0434 99.1042 39.0675 100.843 40.3202 100.843V102.395C38.5646 102.395 37.129 99.9734 37.129 96.9778V94.1529C37.129 91.2193 38.5372 88.8445 40.2562 88.8445H50.9726C55.5079 88.8445 59.1928 82.5894 59.1928 74.8908V69.7842C59.1928 60.3627 54.6758 52.6796 49.1165 52.6796H14.8824C7.34793 52.6796 1.22163 63.079 1.22163 75.8686V80.2457C1.22163 94.2305 7.92398 105.592 16.1533 105.592H40.4848C40.5854 105.592 46.7574 106.229 53.5694 93.3613C61.177 78.9884 66.3432 70.6689 70.2567 70.6689V72.2211C66.6998 72.2211 61.4971 80.7113 54.2552 94.4012C47.9186 106.368 42.1672 107.16 40.7682 107.16Z" fill="#1D1D1B"/>
<path d="M25.5547 51.9347C25.5547 51.9347 25.5547 51.7019 25.5547 51.3759C25.6187 49.234 26.0667 47.4801 26.8988 46.1607C28.7184 43.2738 31.7084 43.5997 31.8364 43.6152H36.5363C41.3916 43.6152 45.3326 36.91 45.3326 28.6681V24.8653C45.3326 11.1444 51.9069 0 59.9808 0H69.8377C76.2566 0 81.4777 8.86274 81.4777 19.7588V28.0162C81.4777 38.9122 76.2566 47.775 69.8377 47.775H29.267C28.2795 47.775 27.548 48.2096 27.0725 49.0477C26.6154 49.8704 26.5056 50.9258 26.4782 51.4691C26.4782 51.6088 26.4782 51.7329 26.4782 51.8726L25.5638 51.9192L25.5547 51.9347ZM31.5072 45.1674C30.8946 45.1674 29.4865 45.2916 28.3252 46.3625C28.6178 46.2694 28.9379 46.2384 29.2762 46.2384H69.8652C75.7811 46.2384 80.5907 38.0741 80.5907 28.0317V19.7743C80.5907 9.73194 75.7811 1.56766 69.8652 1.56766H60.0082C52.4372 1.56766 46.2744 12.0291 46.2744 24.8809V28.6836C46.2744 37.7792 41.9128 45.1674 36.5637 45.1674H31.8273C31.8273 45.1674 31.6993 45.1674 31.5164 45.1674H31.5072Z" fill="#1D1D1B"/>
</svg>
