<svg width="190" height="185" viewBox="0 0 190 185" fill="none" xmlns="http://www.w3.org/2000/svg">
<path d="M172.221 45.4491C173.17 42.8266 173.645 40.0803 173.645 37.2719V35.1038C173.645 28.6819 171.147 22.611 166.583 18.0475C162.04 13.5046 155.97 10.9854 149.527 10.9854C147.73 10.9854 145.913 11.2126 144.137 11.6049C143.415 11.4397 142.733 11.3365 142.073 11.2539C138.562 4.41895 131.438 0 123.695 0H77.7501C72.2367 0 67.0331 2.14753 63.1097 6.07089C59.9091 9.29218 57.8648 13.5046 57.266 17.9649H42.1507C31.4337 17.9649 22.6991 26.6995 22.6991 37.4165V45.6556C17.4542 46.7913 12.6842 49.3931 8.86406 53.2338C3.5572 58.5407 0.625 65.6028 0.625 73.0985C0.625 86.5618 9.99977 97.9808 23.0708 100.624C23.0088 101.181 22.9675 101.76 22.9675 102.338C22.9675 110.845 29.9057 117.784 38.4132 117.784H65.2985C66.9298 124.391 72.8768 129.12 79.815 129.12H106.535C110.562 129.12 114.32 127.551 117.128 124.722C119.069 122.781 120.411 120.406 121.052 117.784H135.919C139.822 117.784 143.497 116.255 146.285 113.488C147.958 111.816 149.197 109.772 149.899 107.521H162.164C176.825 107.521 188.761 95.5855 188.761 80.9245V70.0837C188.761 59.2841 182.153 49.5376 172.241 45.4491H172.221ZM186.675 80.9245C186.675 94.4498 175.669 105.456 162.144 105.456H148.288L148.102 106.241C147.565 108.429 146.43 110.432 144.819 112.022C142.424 114.397 139.264 115.719 135.898 115.719H119.338L119.173 116.565C118.698 119.105 117.479 121.418 115.641 123.276C113.226 125.713 109.984 127.055 106.494 127.055H90.5939C84.3785 127.055 79.051 122.636 77.9153 116.565L77.7501 115.719H49.1715C41.7997 115.719 35.7907 109.71 35.7907 102.338C35.7907 101.533 35.8733 100.748 36.0179 100.004L36.2244 98.9513L35.1712 98.7862C22.5752 96.7006 13.4482 85.901 13.4482 73.0985C13.4482 66.1396 16.1533 59.6145 21.0678 54.6793C24.8053 50.9418 29.5133 48.4639 34.6757 47.514L35.5223 47.3488V37.3958C35.5223 27.8146 43.3277 20.0092 52.909 20.0092H69.8827L69.9653 19.0593C70.337 14.7229 72.2574 10.6137 75.3341 7.49569C78.8651 3.96466 83.5525 2.04428 88.529 2.04428H123.653C130.777 2.04428 137.365 6.19478 140.441 12.6167C140.606 12.9677 140.772 13.3188 140.916 13.6905L141.288 14.5784L142.196 14.2687C142.899 14.0209 143.58 13.8144 144.323 13.6285C151.86 11.832 159.707 14.1035 165.055 19.4723C169.206 23.6641 171.498 29.1981 171.498 35.0831V37.2513C171.498 40.1422 170.94 42.9712 169.846 45.6349L169.433 46.6261L170.445 46.9978C180.109 50.5081 186.592 59.7797 186.592 70.063V80.9039L186.675 80.9245Z" fill="#1D1D1B"/>
<path d="M112.131 133.208H87.1249C83.821 133.208 80.703 134.489 78.349 136.843C76.0156 139.197 74.7354 142.315 74.7354 145.619C74.7354 152.454 80.3107 158.029 87.1456 158.029H112.152C115.476 158.029 118.594 156.728 120.907 154.395C123.261 152.061 124.562 148.943 124.562 145.619C124.562 138.784 118.987 133.208 112.152 133.208H112.131ZM119.42 152.929C117.479 154.89 114.898 155.964 112.131 155.964H87.1249C81.4257 155.964 76.7796 151.318 76.7796 145.619C76.7796 142.872 77.8534 140.271 79.7944 138.309C81.7768 136.347 84.3579 135.273 87.1249 135.273H112.131C117.83 135.273 122.476 139.919 122.476 145.619C122.476 148.386 121.403 150.988 119.42 152.929Z" fill="#1D1D1B"/>
<path d="M78.6794 161.002H66.1866C63.0892 161.002 60.1776 162.2 57.9682 164.41C55.7793 166.598 54.561 169.531 54.561 172.628C54.561 179.029 59.7853 184.254 66.1866 184.254H78.6794C81.7768 184.254 84.6883 183.056 86.9185 180.846C89.1073 178.637 90.3049 175.725 90.3049 172.628C90.3049 166.227 85.0807 161.002 78.6794 161.002ZM85.4524 179.38C83.6352 181.177 81.2193 182.189 78.6794 182.189H66.1866C60.921 182.189 56.626 177.894 56.626 172.628C56.626 170.067 57.6171 167.672 59.4136 165.876C61.2308 164.079 63.6467 163.067 66.1866 163.067H78.6794C83.945 163.067 88.24 167.362 88.24 172.628C88.24 175.168 87.2488 177.584 85.4524 179.38Z" fill="#1D1D1B"/>
<path d="M35.5224 165.277C32.9412 165.277 30.5046 166.289 28.6875 168.126C26.8704 169.964 25.8379 172.401 25.8379 174.982C25.8379 180.33 30.1742 184.667 35.5224 184.667C38.1242 184.667 40.5608 183.655 42.378 181.817C44.2157 179.979 45.2276 177.543 45.2276 174.982C45.2276 172.422 44.2157 169.944 42.378 168.126C40.5402 166.289 38.1036 165.277 35.5224 165.277ZM40.9325 180.371C39.4871 181.817 37.5667 182.602 35.5224 182.602C31.3099 182.602 27.9028 179.174 27.9028 174.982C27.9028 172.938 28.6875 171.017 30.1329 169.572C31.5784 168.126 33.4781 167.342 35.5224 167.342C37.5667 167.342 39.4871 168.126 40.9325 169.572C42.378 171.017 43.1626 172.938 43.1626 174.982C43.1626 177.026 42.378 178.926 40.9325 180.371Z" fill="#1D1D1B"/>
</svg>
