<svg width="50" height="49" viewBox="0 0 50 49" fill="none" xmlns="http://www.w3.org/2000/svg">
<g clip-path="url(#clip0_131_6715)">
<path d="M45.4544 12.0387C45.706 11.344 45.8318 10.6166 45.8318 9.8727V9.29839C45.8318 7.59733 45.17 5.98926 43.9612 4.78047C42.7579 3.57714 41.1498 2.90985 39.4433 2.90985C38.9674 2.90985 38.4861 2.97001 38.0157 3.07394C37.8243 3.03018 37.6438 3.00283 37.4687 2.98095C36.5389 1.1705 34.6519 0 32.6008 0H20.4308C18.9704 0 17.5921 0.568843 16.5528 1.60807C15.705 2.46134 15.1635 3.57714 15.0049 4.75859H11.0012C8.16241 4.75859 5.84875 7.07224 5.84875 9.91099V12.0934C4.45947 12.3942 3.19598 13.0834 2.1841 14.1007C0.778398 15.5064 0.00170898 17.377 0.00170898 19.3625C0.00170898 22.9287 2.48493 25.9534 5.94721 26.6536C5.9308 26.8012 5.91986 26.9544 5.91986 27.1075C5.91986 29.361 7.75766 31.1988 10.0111 31.1988H17.1326C17.5647 32.9491 19.14 34.2017 20.9778 34.2017H28.0555C29.1221 34.2017 30.1175 33.786 30.8614 33.0366C31.3756 32.5225 31.7311 31.8935 31.9006 31.1988H35.8388C36.8725 31.1988 37.8461 30.7941 38.5845 30.0611C39.0276 29.6181 39.3558 29.0766 39.5417 28.4804H42.7907C46.6741 28.4804 49.8356 25.319 49.8356 21.4355V18.564C49.8356 15.7033 48.0853 13.1217 45.4599 12.0387H45.4544ZM49.2832 21.4355C49.2832 25.0181 46.3678 27.9335 42.7852 27.9335H39.1151L39.0659 28.1413C38.9237 28.7211 38.6228 29.2516 38.1962 29.6728C37.5617 30.3018 36.7249 30.6519 35.8333 30.6519H31.4467L31.4029 30.8761C31.2771 31.5489 30.9544 32.1615 30.4676 32.6538C29.8277 33.2992 28.9689 33.6547 28.0445 33.6547H23.8329C22.1866 33.6547 20.7754 32.4842 20.4746 30.8761L20.4308 30.6519H12.8608C10.9082 30.6519 9.31651 29.0602 9.31651 27.1075C9.31651 26.8942 9.33838 26.6864 9.37667 26.4895L9.43137 26.2105L9.15242 26.1668C5.81594 25.6143 3.39835 22.7537 3.39835 19.3625C3.39835 17.5193 4.11488 15.7909 5.41665 14.4836C6.40666 13.4936 7.65373 12.8372 9.02114 12.5856L9.2454 12.5419V9.90552C9.2454 7.36761 11.3129 5.30008 13.8508 5.30008H18.3469L18.3688 5.04848C18.4672 3.89985 18.9759 2.81139 19.7909 1.98548C20.7262 1.05017 21.9678 0.541494 23.286 0.541494H32.5898C34.4768 0.541494 36.2217 1.64089 37.0366 3.34195C37.0804 3.43493 37.1241 3.52792 37.1624 3.62637L37.2609 3.86157L37.5016 3.77952C37.6875 3.71389 37.868 3.65919 38.0649 3.60996C40.0613 3.1341 42.1398 3.73576 43.5564 5.15787C44.6558 6.26821 45.263 7.73407 45.263 9.29292V9.86723C45.263 10.633 45.1153 11.3823 44.8254 12.0879L44.716 12.3504L44.984 12.4489C47.5438 13.3787 49.2613 15.8346 49.2613 18.5585V21.43L49.2832 21.4355Z" fill="#1D1D1B"/>
<path d="M29.5378 35.2846H22.9141C22.039 35.2846 21.2131 35.6238 20.5895 36.2473C19.9714 36.8708 19.6323 37.6967 19.6323 38.5719C19.6323 40.3823 21.1091 41.8591 22.9196 41.8591H29.5433C30.4239 41.8591 31.2498 41.5146 31.8624 40.8965C32.486 40.2784 32.8306 39.4525 32.8306 38.5719C32.8306 36.7614 31.3538 35.2846 29.5433 35.2846H29.5378ZM31.4686 40.5081C30.9545 41.0278 30.2708 41.3122 29.5378 41.3122H22.9141C21.4045 41.3122 20.1738 40.0815 20.1738 38.5719C20.1738 37.8444 20.4582 37.1553 20.9724 36.6356C21.4975 36.116 22.1812 35.8316 22.9141 35.8316H29.5378C31.0475 35.8316 32.2781 37.0623 32.2781 38.5719C32.2781 39.3048 31.9937 39.994 31.4686 40.5081Z" fill="#1D1D1B"/>
<path d="M20.6769 42.6468H17.3677C16.5473 42.6468 15.7761 42.964 15.1908 43.5493C14.611 44.129 14.2883 44.9057 14.2883 45.7262C14.2883 47.4218 15.6721 48.8056 17.3677 48.8056H20.6769C21.4973 48.8056 22.2685 48.4883 22.8593 47.9031C23.439 47.3178 23.7563 46.5466 23.7563 45.7262C23.7563 44.0306 22.3725 42.6468 20.6769 42.6468ZM22.4709 47.5147C21.9896 47.9906 21.3496 48.2586 20.6769 48.2586H17.3677C15.973 48.2586 14.8353 47.1209 14.8353 45.7262C14.8353 45.0479 15.0978 44.4135 15.5737 43.9376C16.055 43.4617 16.695 43.1937 17.3677 43.1937H20.6769C22.0716 43.1937 23.2093 44.3314 23.2093 45.7262C23.2093 46.3989 22.9468 47.0389 22.4709 47.5147Z" fill="#1D1D1B"/>
<path d="M9.24544 43.779C8.56173 43.779 7.91631 44.047 7.43499 44.5338C6.95366 45.0206 6.68018 45.666 6.68018 46.3498C6.68018 47.7664 7.8288 48.915 9.24544 48.915C9.93461 48.915 10.58 48.647 11.0614 48.1602C11.5482 47.6734 11.8162 47.028 11.8162 46.3498C11.8162 45.6715 11.5482 45.0152 11.0614 44.5338C10.5746 44.047 9.92914 43.779 9.24544 43.779ZM10.6785 47.7773C10.2956 48.1602 9.78693 48.368 9.24544 48.368C8.12963 48.368 7.22714 47.4601 7.22714 46.3498C7.22714 45.8083 7.43499 45.2996 7.81786 44.9167C8.20074 44.5338 8.70394 44.326 9.24544 44.326C9.78693 44.326 10.2956 44.5338 10.6785 44.9167C11.0614 45.2996 11.2692 45.8083 11.2692 46.3498C11.2692 46.8912 11.0614 47.3945 10.6785 47.7773Z" fill="#1D1D1B"/>
</g>
<defs>
<clipPath id="clip0_131_6715">
<rect width="50" height="49.0033" fill="white"/>
</clipPath>
</defs>
</svg>
