<svg width="194" height="167" viewBox="0 0 194 167" fill="none" xmlns="http://www.w3.org/2000/svg">
<g style="mix-blend-mode:multiply">
<path d="M187.241 76.6879H82.262C78.5318 76.6879 75.5042 81.5745 75.5042 87.5951V106.143H57.7401C54.8129 106.143 52.17 110.382 50.5642 117.482H39.0226C36.2125 117.482 34.707 125.015 34.707 132.088C34.707 139.162 36.2125 146.694 39.0226 146.694H50.5642C52.17 153.795 54.8129 158.033 57.7401 158.033H75.6715C76.2737 163.055 79.0169 166.862 82.262 166.862H187.241C190.971 166.862 193.998 161.948 193.998 155.928V87.5951C193.998 81.5745 190.971 76.6879 187.241 76.6879ZM86.3935 103.011C91.6124 103.011 96.0283 116.24 96.0283 131.899C96.0283 147.558 91.6124 160.787 86.3935 160.787C84.9717 160.787 83.6001 159.842 82.3121 158.033H85.4568C90.3244 158.033 94.1381 146.64 94.1381 132.088C94.1381 117.536 90.3244 106.143 85.4568 106.143H82.0612C83.3994 104.091 84.8714 103.011 86.3935 103.011ZM43.3214 132.088C43.3214 127.633 42.7193 123.017 41.5818 120.182H57.7401C58.8107 120.182 60.383 124.826 60.383 132.088C60.383 139.351 58.8107 143.994 57.7401 143.994H41.5818C42.7193 141.16 43.3214 136.543 43.3214 132.088ZM57.7401 155.334C55.666 155.334 53.6922 152.121 52.3373 146.694H57.7401C60.5503 146.694 62.0557 139.162 62.0557 132.088C62.0557 125.015 60.5503 117.482 57.7401 117.482H52.3373C53.6922 112.055 55.666 108.843 57.7401 108.843C61.5372 108.843 64.7488 119.48 64.7488 132.088C64.7488 144.696 61.5372 155.334 57.7401 155.334ZM66.4215 132.088C66.4215 121.775 64.5146 113.054 61.6543 108.843H85.4568C89.2538 108.843 92.4654 119.48 92.4654 132.088C92.4654 144.696 89.2538 155.334 85.4568 155.334H61.6543C64.4979 151.122 66.4215 142.401 66.4215 132.088ZM192.326 155.928C192.326 160.463 190.051 164.162 187.241 164.162H100.946C102.385 162.164 103.305 159.221 103.305 155.928V87.5951C103.305 84.3014 102.385 81.3856 100.946 79.3877H187.241C190.051 79.3877 192.326 83.0594 192.326 87.5951V155.928Z" fill="#1D1D1B"/>
<path d="M12.4282 103.363C12.4282 89.8095 20.7917 82.9249 37.2678 82.9249C39.2583 82.9249 41.3994 82.9789 43.6241 83.0329C57.4239 83.4109 74.6192 83.8699 82.6817 71.0727C85.7093 66.267 87.2481 59.8955 87.2481 52.093V46.0724L85.6591 51.526C85.4918 52.093 81.5442 65.1871 71.4913 65.1871C60.8864 65.1871 42.6874 64.5931 42.5034 64.5931H42.4866C42.1019 64.5931 41.4997 64.5661 40.7303 64.5122C34.1566 64.1072 14.1845 62.8383 4.91774 77.2283C1.65598 82.277 0 88.8105 0 96.586C0 106.386 1.95706 114.216 5.821 119.912C11.9765 128.984 21.26 130.172 25.7931 130.172C27.3152 130.172 28.3021 130.037 28.4527 130.01L33.0526 129.335L28.6032 127.364C28.4359 127.283 12.4282 120.047 12.4282 103.309V103.363ZM6.94171 117.942C3.44577 112.785 1.6727 105.603 1.6727 96.613C1.6727 89.5935 3.14468 83.7349 6.07191 79.1992C12.8965 68.6159 26.2112 67.023 34.7755 67.023C37.2009 67.023 39.2583 67.158 40.6634 67.239C41.4663 67.293 42.0852 67.32 42.4699 67.32C42.9383 67.32 60.9533 67.9139 71.4913 67.9139C78.6672 67.9139 83.0831 61.6773 85.3245 57.1956C84.8227 61.9743 83.5682 65.9161 81.5108 69.1828C73.9502 81.197 57.1395 80.7381 43.6408 80.3601C41.3994 80.3061 39.2583 80.2521 37.2511 80.2521C15.3387 80.2521 10.7387 92.8333 10.7387 103.39C10.7387 116.214 18.5001 123.8 23.6687 127.418C19.0019 127.013 11.7926 125.123 6.94171 117.969V117.942Z" fill="#1D1D1B"/>
<path d="M42.0673 39.6469H70.5366C74.8522 39.6469 77.746 40.9698 78.6994 43.3996C79.2849 44.8845 79.1845 46.9904 78.3983 49.6362C75.9897 57.8707 65.0502 58.6536 64.9331 58.6536L64.8996 61.3534C65 61.3534 65.6858 61.4614 66.7563 61.4614C70.1687 61.4614 77.4616 60.5165 82.0783 53.092C86.0593 46.6934 86.5444 33.4643 83.2994 20.1272C79.8703 6.08814 69.3323 0.0405456 64.7156 0.0405456H41.1306C37.9524 -0.0674471 32.0645 -0.229437 28.3846 5.62917C26.2435 9.03094 25.1562 13.9716 25.1562 20.2892C25.1562 26.0128 26.3104 30.6025 28.602 33.9233C33.503 41.0508 41.7996 39.7009 42.0673 39.6469ZM29.5555 7.54604C32.7503 2.49738 37.9691 2.63237 41.0971 2.71337H64.7156C68.3956 2.71337 78.5322 8.00501 81.727 21.0991C84.7379 33.4373 84.3866 45.5055 80.8739 51.1481C80.0543 52.471 79.1343 53.551 78.1642 54.4689C78.8834 53.416 79.4856 52.201 79.8871 50.7701C80.9241 47.2334 81.0078 44.2636 80.0878 41.9417C78.7831 38.621 75.5715 36.9471 70.5199 36.9471H41.9669C41.9669 36.9471 34.0383 38.216 29.706 31.8984C27.7991 29.1176 26.829 25.2029 26.829 20.2892C26.829 14.7006 27.7489 10.4079 29.5555 7.54604Z" fill="#1D1D1B"/>
</g>
</svg>
