<svg width="196" height="186" viewBox="0 0 196 186" fill="none" xmlns="http://www.w3.org/2000/svg">
<g style="mix-blend-mode:multiply">
<path d="M195.711 106.946V51.6965C195.711 43.779 189.266 37.345 181.352 37.345H120.358C117.145 37.345 114.536 39.9496 114.536 43.158V65.772C114.536 68.7044 116.937 71.1021 119.875 71.1021H125.991V71.0158C127.65 70.8433 129.205 70.1879 130.467 69.0839C131.417 68.2387 132.523 67.635 133.715 67.2555C137.067 68.2387 139.607 71.1711 140.056 74.621C140.626 78.9851 137.914 83.1249 133.749 84.3669C132.557 83.9874 131.469 83.4009 130.518 82.5902C128.981 81.262 127.063 80.5375 125.127 80.5375H119.875C118.458 80.5375 117.11 81.0895 116.108 82.1072C115.106 83.1077 114.536 84.4531 114.536 85.8676V107.257C114.605 108.637 115.175 109.879 116.056 110.827C116.021 110.827 116.004 110.827 115.97 110.827H94.5959C93.6283 110.827 92.7125 110.465 92.0386 109.775C91.3647 109.12 90.9846 108.223 90.9846 107.291C90.9846 105.808 91.5721 104.324 92.6088 103.134C94.3021 101.22 95.2524 98.7701 95.2524 96.2345C95.2524 90.5939 90.7773 85.9711 85.0407 85.7123H83.0364H80.4964H79.4942C79.2523 85.7123 79.0277 85.7123 78.7685 85.7123H78.423V85.7468C78.2329 85.7468 78.0601 85.7641 77.87 85.7986C73.0493 86.4196 69.1788 90.3007 68.6605 95.0443C68.3149 98.0629 69.2307 100.978 71.2523 103.203C72.2717 104.342 72.8246 105.791 72.8246 107.309C72.8246 109.258 71.2004 110.845 69.2134 110.845H48.2197C45.0232 110.845 42.4141 113.415 42.4141 116.554V170.907C42.4141 178.704 48.859 185.034 56.7727 185.034H115.952C116.764 185.034 117.559 184.827 118.285 184.517C119.011 184.827 119.806 185.034 120.6 185.034H181.197C189.128 185.034 195.573 178.6 195.573 170.7V116.865C195.573 114.553 194.208 112.57 192.238 111.621C194.156 110.586 195.711 108.947 195.711 106.981V106.946ZM120.047 179.273C120.047 180.739 119.218 182.102 117.87 182.809C117.283 183.12 116.626 183.275 115.952 183.275H62.0254C55.0621 183.275 49.3947 177.703 49.3947 170.873V116.52C49.3947 114.329 51.2262 112.535 53.4725 112.535H74.4661C77.4035 112.535 79.8053 110.172 79.8053 107.274C79.8053 105.342 79.0968 103.479 77.7836 102.03C76.0903 100.167 75.3301 97.7524 75.6238 95.2168C76.0039 91.6979 78.6303 88.6792 82.1552 87.7305C82.5353 87.627 82.9327 87.5408 83.3647 87.489C83.5547 87.4545 83.7621 87.4373 83.9522 87.4373H84.9889C89.7751 87.6615 93.5073 91.5254 93.5073 96.2345C93.5073 98.3562 92.7298 100.392 91.3129 101.996C89.9824 103.514 89.2394 105.377 89.2394 107.291C89.2394 108.706 89.7924 110.017 90.8118 111C91.814 112 93.1444 112.552 94.5786 112.552H115.952C116.695 112.552 117.404 112.742 118.009 113.122H118.043C119.287 113.846 120.03 115.123 120.03 116.537V138.168C120.03 138.409 119.996 138.634 119.961 138.858C119.823 139.565 119.477 140.221 118.976 140.721C118.164 141.531 117.041 141.842 115.918 141.756L115.486 141.704C115.365 141.704 115.244 141.687 115.088 141.635C114.656 141.549 114.276 141.411 113.879 141.221L113.793 141.186C113.205 140.928 112.669 140.583 112.168 140.152C110.216 138.461 107.728 137.53 105.153 137.53C104.877 137.53 104.566 137.547 104.255 137.564C103.961 137.581 103.684 137.616 103.408 137.685C103.062 137.737 102.734 137.806 102.406 137.892C102.216 137.926 102.043 137.978 101.957 138.013C101.818 138.047 101.697 138.099 101.542 138.151C101.542 138.151 101.542 138.151 101.525 138.151H101.473C101.075 138.306 100.713 138.478 100.281 138.685L100.108 138.789C99.9695 138.858 99.8313 138.944 99.7276 139.013L99.5203 139.151C99.2784 139.289 99.0365 139.444 98.8983 139.548C98.7255 139.651 98.5527 139.789 98.3972 139.927L98.138 140.134C97.9998 140.255 97.8443 140.393 97.706 140.514L96.7384 141.48L96.7903 141.531C96.6693 141.687 96.5484 141.825 96.4274 141.98L96.4965 142.049L96.4447 142.083L96.3928 142.049C96.3928 142.049 96.341 142.135 96.3065 142.17C96.1509 142.411 95.9954 142.67 95.8572 142.911L95.6671 143.239C95.5462 143.429 95.4425 143.619 95.408 143.757C95.2179 144.171 95.0451 144.602 94.9242 145.016C94.8032 145.378 94.7168 145.723 94.665 146.051C94.4231 147.155 94.3712 148.345 94.5267 149.587C94.5959 150.156 94.7168 150.725 94.9069 151.329C95.0624 151.829 95.2525 152.33 95.4598 152.761C95.5289 152.916 95.6153 153.071 95.7017 153.227L96.0991 153.917C96.0991 153.917 96.1855 154.037 96.2201 154.072L96.2892 154.175C96.3756 154.313 96.4792 154.434 96.652 154.658L97.0667 155.124L97.1186 155.09L97.1531 155.141L97.2568 155.296L97.3086 155.365C97.5332 155.607 97.7752 155.848 97.9825 156.021C98.2071 156.228 98.4317 156.435 98.7082 156.642C98.9501 156.832 99.2093 157.004 99.4857 157.177C99.7449 157.349 100.004 157.487 100.332 157.677L100.557 157.798C100.661 157.849 100.764 157.901 100.972 157.987L101.732 158.281C101.939 158.367 102.129 158.419 102.354 158.488H102.406L102.613 158.557C103.045 158.677 103.512 158.746 103.978 158.798C107.037 159.109 109.991 158.212 112.255 156.211C112.376 156.107 112.479 156.021 112.687 155.866H112.756C112.825 155.779 112.894 155.728 113.032 155.641C113.171 155.555 113.309 155.486 113.482 155.365C113.602 155.296 113.706 155.245 113.827 155.193L113.913 155.158H113.948C114.086 155.089 114.259 155.038 114.397 154.969C114.743 154.848 115.106 154.762 115.469 154.693L115.97 154.641C116.142 154.641 116.298 154.607 116.471 154.607C118.199 154.607 119.685 155.831 120.013 157.522C120.047 157.746 120.082 157.97 120.082 158.212V179.29L120.047 179.273ZM120.6 183.275C120.445 183.275 120.289 183.275 120.134 183.258C120.428 182.947 120.687 182.62 120.911 182.257C121.136 182.62 121.412 182.965 121.723 183.275H120.6ZM193.845 116.83V170.666C193.845 177.617 188.178 183.275 181.197 183.275H125.853C123.624 183.275 121.81 181.481 121.775 179.256V158.194C121.775 157.849 121.741 157.522 121.672 157.194C121.188 154.693 118.993 152.864 116.436 152.864C116.212 152.864 116.021 152.864 115.693 152.899L115.192 152.951C114.708 153.02 114.242 153.14 113.793 153.313C113.568 153.399 113.361 153.468 113.153 153.572H113.136L113.171 153.641H113.136L113.119 153.589C112.963 153.658 112.808 153.744 112.583 153.865C112.41 153.968 112.237 154.055 112.117 154.141C111.944 154.227 111.805 154.348 111.633 154.486L111.581 154.503C111.425 154.624 111.27 154.727 111.114 154.883C109.214 156.556 106.743 157.332 104.168 157.056C103.788 157.004 103.391 156.952 103.045 156.849H102.907L102.786 156.814V156.78C102.648 156.728 102.492 156.694 102.354 156.642L101.836 156.435C101.732 156.4 101.611 156.349 101.576 156.349L101.352 156.228C101.248 156.176 101.145 156.124 101.075 156.09C100.833 155.969 100.609 155.831 100.384 155.693C100.16 155.555 99.935 155.417 99.6931 155.21C99.5203 155.072 99.3475 154.934 99.1229 154.727C98.9155 154.555 98.7428 154.382 98.5527 154.175L97.9825 153.503C97.9134 153.399 97.827 153.296 97.7579 153.192C97.7579 153.192 97.6888 153.089 97.6196 153.002L97.2395 152.364C97.1704 152.243 97.1186 152.14 97.0494 152.002C96.8594 151.605 96.7039 151.208 96.5829 150.794C96.4274 150.277 96.3237 149.811 96.2719 149.328C96.1509 148.293 96.1855 147.293 96.3928 146.327C96.4447 146.051 96.5138 145.775 96.6002 145.499C96.7039 145.137 96.8594 144.774 97.0322 144.378C97.0667 144.309 97.1013 144.222 97.2049 144.05L97.3086 143.86L97.395 143.739C97.5505 143.481 97.706 143.222 97.8615 142.98C97.9998 142.791 98.1553 142.618 98.3972 142.325L98.9847 141.704C99.0883 141.6 99.192 141.497 99.313 141.411L99.4685 141.273L99.5549 141.221C99.6413 141.152 99.7449 141.066 99.935 140.945C100.09 140.824 100.263 140.721 100.436 140.617L100.713 140.445C100.713 140.445 100.868 140.341 100.954 140.307L101.127 140.203C101.438 140.048 101.749 139.91 102.078 139.772L102.181 139.738C102.268 139.703 102.337 139.686 102.561 139.582L102.648 139.548L102.89 139.513C103.149 139.444 103.408 139.393 103.719 139.341C103.944 139.306 104.151 139.272 104.393 139.255C106.812 139.117 109.214 139.841 111.028 141.428C111.65 141.963 112.324 142.411 113.084 142.739L113.119 142.67H113.171L113.136 142.756C113.672 143.015 114.19 143.187 114.656 143.274C114.864 143.343 115.071 143.377 115.261 143.394C115.417 143.429 115.607 143.463 115.797 143.463C116.004 143.463 116.212 143.498 116.436 143.498C117.853 143.498 119.201 142.946 120.203 141.928C120.963 141.169 121.464 140.22 121.672 139.168C121.741 138.841 121.775 138.513 121.775 138.168V116.796C121.81 114.571 123.624 112.759 125.853 112.759H146.968C147.935 112.759 148.834 113.139 149.525 113.812C150.216 114.484 150.579 115.399 150.579 116.365C150.579 117.882 149.992 119.383 148.938 120.608C147.244 122.557 146.311 125.041 146.311 127.611C146.311 132.424 149.56 136.667 154.19 137.909C155.555 138.289 156.989 138.392 158.441 138.202C163.262 137.581 167.132 133.631 167.65 128.819C167.996 125.748 167.08 122.816 165.059 120.539C164.039 119.383 163.469 117.9 163.469 116.347C163.469 114.364 165.093 112.742 167.08 112.742H189.733C191.996 112.742 193.828 114.571 193.828 116.83H193.845ZM193.983 106.946C193.983 108.965 190.562 111.017 188.091 111.017H167.097C164.16 111.017 161.758 113.415 161.758 116.347C161.758 118.314 162.467 120.211 163.78 121.677C165.473 123.575 166.234 126.041 165.957 128.612C165.508 132.648 162.277 135.96 158.233 136.477C157.007 136.633 155.814 136.546 154.657 136.219C150.769 135.166 148.039 131.613 148.039 127.577C148.039 125.42 148.817 123.333 150.251 121.712C151.581 120.177 152.307 118.262 152.307 116.33C152.307 114.916 151.754 113.57 150.734 112.57C149.715 111.569 148.385 111 146.968 111H125.369C123.279 110.879 121.62 109.223 121.516 107.188V85.8503C121.516 84.8844 121.896 83.9874 122.57 83.2974C122.795 83.0732 123.019 82.9007 123.261 82.7627C123.831 82.4177 124.454 82.228 125.127 82.228C126.648 82.228 128.151 82.8144 129.378 83.8666C130.587 84.9016 131.97 85.6433 133.49 86.0918L134.32 86.3333V86.2643C134.734 86.3333 135.132 86.4023 135.529 86.4196V86.4713H137.257V86.4196C140.004 86.1953 142.596 84.9189 144.428 82.8317C146.467 80.5203 147.4 77.4326 147.002 74.3622C146.415 69.8429 142.89 66.2033 138.449 65.3408V65.2718L137.603 65.1683L136.739 65.082V65.1165C135.927 65.082 135.115 65.151 134.32 65.3063V65.2718L133.508 65.496C133.508 65.496 133.508 65.496 133.49 65.496C131.952 65.9273 130.553 66.6862 129.326 67.7729C128.168 68.7907 126.682 69.3599 125.127 69.3599C124.454 69.3599 123.831 69.1874 123.261 68.8424C122.173 68.2042 121.516 67.014 121.516 65.7548V43.1408C121.516 40.8811 123.348 39.0527 125.611 39.0527H181.352C188.316 39.0527 193.983 44.7105 193.983 51.6792V106.929V106.946Z" fill="#1D1D1B"/>
<path d="M47.8747 101.599H54.0087C55.5638 101.599 57.067 100.978 58.1556 99.8914L74.173 83.9012C75.1751 82.9007 75.728 81.5552 75.728 80.1408C75.728 78.7263 75.1751 77.3809 74.1384 76.3459C72.7388 74.966 70.89 74.138 68.9548 74.0345C66.3975 73.862 64.0994 72.6718 62.4925 70.6536C59.9525 67.497 59.918 62.8569 62.3888 59.6485C63.4601 58.234 64.8943 57.2336 66.5358 56.6643C67.7625 57.0956 68.9375 57.8028 69.8878 58.7515C71.4256 60.2867 72.3241 62.2531 72.4796 64.4611C72.6179 66.4793 73.4472 68.3594 74.8123 69.7221C75.7108 70.6364 76.9376 71.1883 78.3544 71.2746L84.0391 71.2401C84.2292 71.2573 84.4192 71.2746 84.6093 71.2746C86.0434 71.2746 87.3912 70.7226 88.3761 69.7221L103.53 54.5944C105.603 52.3002 105.517 48.7814 103.305 46.6079L88.2033 31.5147C87.5121 30.8247 87.1493 29.9277 87.1493 28.9618C87.1493 27.9958 87.5294 27.0988 88.2033 26.4089C89.2746 25.3394 90.7605 24.6839 92.3675 24.5804C94.942 24.3907 97.361 23.2867 99.1753 21.4928C101.352 19.3193 102.493 16.3179 102.285 13.2476C102.078 10.1772 100.558 7.31375 98.0867 5.41632C96.2379 3.98462 93.8189 3.26014 91.469 3.24289H85.5078C83.1061 3.26014 80.7561 4.08811 78.9246 5.55431C76.5229 7.48625 75.0887 10.2117 74.8814 13.2476C74.8123 14.5585 74.3112 15.8005 73.4645 16.8354L59.1404 2.50117C57.6718 1.03497 55.1318 0 52.9719 0H52.9201L52.9719 1.72494C54.6653 1.72494 56.7905 2.58741 57.9309 3.70862L72.1859 17.9394H72.1513L72.7561 18.5259L72.7906 18.5604C72.7906 18.5604 72.8252 18.5949 72.8425 18.5949L72.9462 18.6984C72.9462 18.6984 72.9807 18.7329 72.998 18.7501C72.998 18.7501 73.0153 18.7674 73.0326 18.7674C74.0347 19.6471 75.2788 20.0956 76.5401 20.0956C77.9052 20.0956 79.2702 19.5781 80.3069 18.5259C81.7238 17.1114 82.5531 15.2485 82.6568 13.3166C82.8123 10.7981 84.0218 8.50396 86.0262 6.88252C86.8728 6.20979 87.8404 5.69231 88.9117 5.36457C89.6893 5.10583 90.5705 4.96783 91.5208 4.93333H91.5899C93.6115 4.93333 95.5467 5.57156 97.0673 6.76177C99.1407 8.34872 100.419 10.7464 100.592 13.3338C100.765 15.904 99.8146 18.4396 97.9831 20.2508C96.4453 21.786 94.4755 22.683 92.2811 22.8382C90.2595 22.9762 88.3933 23.8042 87.0111 25.1842C86.0089 26.2019 85.4387 27.5301 85.4387 28.9445C85.4387 30.359 85.9916 31.7044 87.0111 32.7049L102.113 47.7981C103.65 49.3333 103.72 51.7828 102.303 53.3697L87.1838 68.4629C86.4063 69.2392 85.3005 69.5842 84.1773 69.4634C83.4516 69.3772 82.7605 69.0667 82.2248 68.5837L82.0866 68.4629C81.0153 67.3935 80.3587 65.91 80.2378 64.3058C80.065 61.7184 78.9592 59.3035 77.1449 57.4923C74.2766 54.6634 70.1297 53.6629 66.2766 54.8876L63.6675 55.7156L64.134 55.8536C62.959 56.5436 61.905 57.4406 61.0411 58.5618C58.0864 62.4084 58.1556 67.9282 61.1793 71.7058C63.0973 74.1035 65.8273 75.5352 68.8857 75.7422C70.4062 75.8284 71.8576 76.4839 72.9807 77.5879C74.3803 78.9851 74.3803 81.2793 72.9807 82.6765L56.9633 98.6667C56.2031 99.4256 55.1491 99.8569 54.0432 99.8569H53.9914C53.1274 99.8569 52.2808 99.5464 51.5551 98.9944C51.4169 98.9082 51.2959 98.7874 51.1749 98.6667L11.7276 59.338C6.80315 54.4392 6.80315 46.4354 11.7276 41.5021L50.9676 2.32867C51.3996 1.93193 52.0562 1.74219 52.9374 1.72494V0H46.6998C45.4384 0.0689977 44.3671 0.465734 43.6414 1.20746L4.4878 40.2774C-1.11052 45.8834 -1.11052 54.9911 4.4878 60.5627L43.9006 99.9086C44.9546 100.961 46.3715 101.565 47.8747 101.616V101.599Z" fill="#1D1D1B"/>
</g>
</svg>
