<svg width="40" height="40" viewBox="0 0 40 40" fill="none" xmlns="http://www.w3.org/2000/svg">
<path d="M34.136 8.78709L8.78692 34.1362C7.97371 34.9494 6.6676 34.952 5.85767 34.1421C5.04774 33.3322 5.05037 32.0261 5.86358 31.2129L31.2127 5.86375C32.0259 5.05054 33.332 5.0479 34.1419 5.85783C34.9519 6.66776 34.9492 7.97388 34.136 8.78709Z" fill="#83D6A4"/>
<path d="M31.2132 34.1362L5.86406 8.78707C5.05086 7.97386 5.04822 6.66775 5.85815 5.85782C6.66808 5.04789 7.9742 5.05052 8.7874 5.86373L34.1365 31.2128C34.9497 32.026 34.9524 33.3322 34.1424 34.1421C33.3325 34.952 32.0264 34.9494 31.2132 34.1362Z" fill="#83D6A4"/>
</svg>
