<svg width="301" height="254" viewBox="0 0 301 254" fill="none" xmlns="http://www.w3.org/2000/svg">
<g clip-path="url(#clip0_141_19829)">
<path d="M297.348 109.492L201.314 5.42205C197.949 1.75549 193.027 0.24869 188.18 1.35368L188.004 1.42902C186.723 1.70527 185.468 2.23265 184.212 2.98605L178.863 5.1458C175.648 6.15034 172.961 8.31009 171.253 11.2484L158.42 33.8504C157.441 35.5832 155.984 37.0147 154.226 37.969L9.32216 117.327C6.23321 119.01 4.02323 121.772 2.99358 125.339H2.96847C2.96847 125.339 2.96847 125.439 2.94336 125.489C2.642 126.67 2.51643 127.85 2.51643 129.03L1.00963 140.733C0.833832 144.374 2.11462 147.84 4.57573 150.552L96.6163 249.122C99.2783 252.01 102.945 253.517 106.662 253.517C108.897 253.517 111.157 252.965 113.241 251.835L276.554 161.276C278.789 160.07 280.622 158.262 281.903 156.052L299.206 125.59C302.144 120.391 301.416 113.937 297.348 109.517V109.492ZM10.5276 119.537L155.206 40.2794L160.932 46.4573C161.183 46.7336 161.509 46.8592 161.861 46.8592C162.162 46.8592 162.464 46.7587 162.715 46.5327C163.217 46.0555 163.242 45.277 162.79 44.7496L157.341 38.8731C158.672 37.8183 159.802 36.5375 160.63 35.0559L173.463 12.4538C174.87 10.0178 177.029 8.28498 179.691 7.48135C180.721 7.2051 181.65 7.07953 182.554 7.07953C185.543 7.00419 188.531 8.23475 190.616 10.495L282.757 110.371C285.921 113.811 286.524 118.834 284.188 122.877L267.588 152.084C266.609 153.817 265.152 155.223 263.419 156.203L113.241 238.424C108.922 240.785 103.573 239.906 100.258 236.315L7.79024 136.112C6.98661 135.233 6.33367 134.229 5.90674 133.199C5.32913 131.968 5.02777 130.637 5.00266 129.231L5.37936 125.991C5.37936 125.991 5.37936 125.991 5.37936 125.966C6.15787 123.179 7.99115 120.893 10.5276 119.537Z" fill="black"/>
<path d="M47.5701 137.895C49.2024 139.678 51.4375 140.607 53.6977 140.607C55.0539 140.607 56.4351 140.281 57.6908 139.578L75.7724 129.683C78.0326 128.453 79.5645 126.268 79.9664 123.706C80.3933 121.145 79.6399 118.608 77.8819 116.7L66.8823 104.796C64.2956 101.933 60.1268 101.255 56.7365 103.138L38.6799 113.033C36.4197 114.264 34.8627 116.448 34.4609 118.985C34.034 121.521 34.8125 124.083 36.5704 125.991L47.545 137.895H47.5701ZM36.9471 119.387C37.2485 117.604 38.3032 116.097 39.8854 115.243L57.9419 105.348C58.846 104.846 59.8003 104.62 60.7797 104.62C62.3619 104.62 63.9189 105.273 65.049 106.503L76.0487 118.407C77.2541 119.738 77.7815 121.521 77.5052 123.304C77.2039 125.087 76.1491 126.619 74.567 127.473L56.4853 137.368C54.1498 138.649 51.2366 138.171 49.4285 136.188L38.4539 124.284C37.2234 122.953 36.6709 121.17 36.9722 119.387H36.9471Z" fill="black"/>
<path d="M104.853 150.879C105.255 148.317 104.501 145.781 102.744 143.897L91.7941 131.994C89.1823 129.181 85.0135 128.503 81.6483 130.336L63.5918 140.231C61.3316 141.487 59.7996 143.646 59.3727 146.208C58.9709 148.744 59.7243 151.306 61.4822 153.189L72.4317 165.093C74.0641 166.851 76.2991 167.78 78.5594 167.78C79.9155 167.78 81.2967 167.454 82.5775 166.751L100.634 156.856C102.894 155.625 104.451 153.441 104.853 150.879ZM99.4286 154.646L81.3721 164.541C79.0114 165.821 76.0982 165.344 74.2901 163.385L63.3406 151.482C62.1101 150.151 61.5827 148.393 61.8589 146.61C62.1352 144.827 63.2151 143.32 64.7972 142.441L82.8537 132.546C83.7327 132.069 84.7121 131.818 85.6664 131.818C87.2486 131.818 88.8056 132.471 89.9608 133.701L100.91 145.605C102.141 146.911 102.668 148.694 102.392 150.477C102.091 152.26 101.036 153.767 99.4537 154.646H99.4286Z" fill="black"/>
<path d="M129.741 178.102C130.168 175.565 129.389 173.004 127.656 171.095L116.657 159.191C114.07 156.353 109.901 155.675 106.536 157.509L88.4795 167.403C86.2193 168.634 84.6874 170.819 84.2604 173.38C83.8335 175.942 84.5869 178.503 86.3448 180.387L97.3445 192.291C98.9769 194.049 101.212 194.978 103.472 194.978C104.828 194.978 106.21 194.651 107.49 193.948L125.547 184.053C127.807 182.823 129.339 180.638 129.766 178.102H129.741ZM124.316 181.843L106.26 191.738C103.899 193.019 100.986 192.542 99.1778 190.583L88.1781 178.679C86.9727 177.348 86.4453 175.565 86.7467 173.782C87.048 171.999 88.1279 170.467 89.71 169.613L107.767 159.719C108.646 159.241 109.6 159.015 110.554 159.015C112.136 159.015 113.693 159.668 114.849 160.899L125.848 172.803C127.079 174.134 127.606 175.917 127.305 177.7C127.003 179.483 125.949 180.99 124.367 181.843H124.316Z" fill="black"/>
<path d="M84.9638 117.428C86.5711 119.186 88.7811 120.115 91.0664 120.115C92.4476 120.115 93.8289 119.788 95.1097 119.085L113.141 109.216C115.401 107.96 116.958 105.775 117.36 103.214C117.762 100.677 117.009 98.1156 115.251 96.2572L104.276 84.3534C101.664 81.5156 97.5205 80.8125 94.1553 82.6709L76.0737 92.5655C73.8135 93.8212 72.2816 96.0061 71.8547 98.5425C71.4528 101.079 72.2062 103.641 73.9642 105.524L84.9638 117.428ZM74.3409 98.9443C74.6422 97.1613 75.697 95.6294 77.3043 94.7504L95.3859 84.8557C96.2649 84.3786 97.2192 84.1525 98.1735 84.1525C99.7556 84.1525 101.313 84.8055 102.468 86.036L113.442 97.9398C114.648 99.2457 115.2 101.029 114.899 102.812C114.623 104.595 113.543 106.127 111.936 107.006L93.9042 116.875C91.5184 118.181 88.6053 117.704 86.8222 115.72L75.8226 103.816C74.592 102.485 74.0646 100.702 74.366 98.9192L74.3409 98.9443Z" fill="black"/>
<path d="M129.163 111.526C126.576 108.713 122.408 108.01 119.017 109.869L100.936 119.763C98.6754 120.994 97.1435 123.179 96.7416 125.715C96.3147 128.252 97.0932 130.813 98.8512 132.722L109.826 144.601C111.458 146.384 113.693 147.313 115.953 147.313C117.31 147.313 118.691 146.986 119.946 146.283L138.028 136.388C140.288 135.158 141.82 132.973 142.247 130.437C142.674 127.875 141.896 125.313 140.163 123.405L129.188 111.526H129.163ZM139.761 130.035C139.46 131.818 138.405 133.325 136.823 134.204L118.741 144.098C116.405 145.379 113.492 144.902 111.684 142.918L100.71 131.039C99.479 129.708 98.9516 127.925 99.253 126.142C99.5543 124.359 100.609 122.852 102.191 121.998L116.004 114.439L120.273 112.104C122.634 110.823 125.547 111.275 127.355 113.259L138.329 125.138C139.56 126.469 140.087 128.252 139.786 130.06L139.761 130.035Z" fill="black"/>
<path d="M143.879 137.041L125.823 146.936C123.537 148.192 122.006 150.377 121.604 152.938C121.202 155.5 121.98 158.036 123.713 159.895L134.663 171.823C136.295 173.581 138.555 174.485 140.815 174.485C142.172 174.485 143.553 174.159 144.809 173.456L162.89 163.561C165.15 162.305 166.682 160.146 167.109 157.584C167.536 155.023 166.758 152.486 165.025 150.578L154.025 138.674C151.413 135.886 147.245 135.208 143.879 137.016V137.041ZM164.648 157.207C164.347 158.991 163.292 160.522 161.71 161.376L143.628 171.271C141.293 172.552 138.379 172.075 136.546 170.116L125.597 158.187C124.366 156.881 123.839 155.123 124.115 153.34C124.391 151.557 125.471 150.025 127.053 149.146L145.11 139.251C145.989 138.774 146.943 138.548 147.897 138.548C149.48 138.548 151.062 139.201 152.192 140.407L163.192 152.31C164.422 153.641 164.949 155.424 164.648 157.207Z" fill="black"/>
<path d="M183.358 168.734C178.838 163.862 171.63 162.682 165.804 165.871L120.148 190.859C116.707 192.743 114.246 195.832 113.166 199.574C112.112 203.265 112.564 207.133 114.372 210.448C114.899 211.427 115.577 212.381 116.456 213.311C119.269 216.349 123.136 217.957 127.079 217.957C129.44 217.957 131.826 217.379 134.01 216.174L179.667 191.186C183.057 189.327 185.518 186.264 186.598 182.572C187.678 178.855 187.251 174.962 185.418 171.622C184.89 170.593 184.187 169.638 183.333 168.734H183.358ZM184.212 181.869C183.333 184.932 181.299 187.444 178.486 189.001L132.83 213.989C128.033 216.626 122.056 215.646 118.34 211.628C117.637 210.875 117.059 210.096 116.632 209.292C115.125 206.53 114.774 203.341 115.627 200.302C116.506 197.213 118.541 194.651 121.378 193.094L167.035 168.107C168.843 167.102 170.802 166.625 172.76 166.625C176 166.625 179.189 167.956 181.525 170.467C182.203 171.195 182.781 171.974 183.233 172.828C184.765 175.59 185.116 178.805 184.212 181.869Z" fill="black"/>
<path d="M122.332 96.9604C123.964 98.6932 126.2 99.6224 128.485 99.6224C129.841 99.6224 131.222 99.2959 132.478 98.6179L150.534 88.7232C152.795 87.4927 154.352 85.3078 154.753 82.7462C155.18 80.1847 154.402 77.6482 152.669 75.7647L141.695 63.8358C139.083 61.0231 134.914 60.3451 131.549 62.1784L113.492 72.073C111.207 73.3287 109.675 75.4885 109.248 78.05C108.821 80.6116 109.6 83.148 111.358 85.0567L122.332 96.9604ZM111.734 78.4518C112.036 76.6688 113.115 75.1369 114.698 74.2579L132.754 64.3632C133.633 63.8861 134.613 63.6349 135.567 63.6349C137.149 63.6349 138.706 64.2879 139.861 65.5184L150.836 77.4473C152.066 78.7532 152.594 80.5362 152.292 82.3193C151.991 84.1023 150.936 85.6091 149.354 86.4881L131.298 96.3828C128.962 97.6636 126.049 97.1864 124.216 95.2276L113.241 83.3238C112.01 81.9928 111.483 80.2098 111.759 78.4267L111.734 78.4518Z" fill="black"/>
<path d="M134.135 105.273C133.734 107.809 134.487 110.371 136.245 112.254L147.219 124.133C148.827 125.916 151.062 126.845 153.322 126.845C154.703 126.845 156.085 126.494 157.365 125.79L175.422 115.896C177.682 114.665 179.214 112.48 179.616 109.944C180.043 107.407 179.264 104.846 177.506 102.937L166.532 91.0585C163.945 88.2207 159.801 87.5175 156.411 89.3759L138.354 99.2706C136.069 100.526 134.512 102.711 134.11 105.273H134.135ZM139.585 101.481L157.642 91.5859C158.521 91.1088 159.475 90.8576 160.429 90.8576C162.011 90.8576 163.568 91.5106 164.698 92.7662L175.673 104.645C176.904 105.976 177.431 107.759 177.13 109.542C176.828 111.325 175.773 112.832 174.191 113.686L156.135 123.58C153.774 124.886 150.861 124.409 149.053 122.425L138.078 110.547C136.848 109.216 136.295 107.432 136.597 105.675C136.873 103.891 137.978 102.36 139.56 101.481H139.585Z" fill="black"/>
<path d="M158.998 132.445C158.571 134.982 159.35 137.543 161.083 139.427L172.082 151.331C173.689 153.114 175.925 154.043 178.21 154.043C179.566 154.043 180.947 153.716 182.203 153.013L200.259 143.119C202.52 141.888 204.052 139.703 204.478 137.167C204.905 134.605 204.127 132.044 202.394 130.135L191.42 118.231C188.833 115.419 184.664 114.74 181.274 116.574L163.217 126.468C160.957 127.699 159.4 129.884 158.998 132.445ZM164.448 128.678L182.504 118.784C183.383 118.307 184.363 118.055 185.317 118.055C186.899 118.055 188.456 118.708 189.586 119.939L200.561 131.843C201.791 133.174 202.319 134.957 202.017 136.765C201.716 138.548 200.661 140.055 199.079 140.934L181.023 150.828C178.662 152.109 175.774 151.632 173.966 149.648L162.966 137.744C161.735 136.413 161.208 134.655 161.509 132.872C161.811 131.089 162.866 129.557 164.473 128.704L164.448 128.678Z" fill="black"/>
<path d="M222.133 151.507C221.581 150.502 220.878 149.548 220.074 148.644C215.528 143.772 208.296 142.591 202.545 145.781L194.96 149.924C191.545 151.783 189.084 154.872 188.004 158.614C186.949 162.28 187.376 166.148 189.21 169.488C189.812 170.568 190.49 171.522 191.269 172.351C194.082 175.415 197.974 177.022 201.892 177.022C204.252 177.022 206.638 176.444 208.823 175.239L216.407 171.095C223.389 167.253 225.95 158.488 222.158 151.507H222.133ZM215.202 168.885L207.618 173.029C202.821 175.666 196.844 174.686 193.127 170.643C192.499 169.965 191.922 169.161 191.42 168.282C189.913 165.545 189.561 162.356 190.44 159.317C191.319 156.228 193.353 153.691 196.166 152.134L203.75 147.991C205.533 146.986 207.517 146.509 209.451 146.509C212.691 146.509 215.88 147.84 218.215 150.351C218.894 151.08 219.471 151.883 219.923 152.712C223.062 158.463 220.928 165.721 215.177 168.885H215.202Z" fill="black"/>
<path d="M255.409 136.439C256.79 137.895 258.648 138.699 260.607 138.699C260.908 138.699 261.21 138.699 261.486 138.649C263.746 138.372 265.705 137.067 266.81 135.083L276.127 118.709C277.684 115.996 277.257 112.531 275.123 110.271L188.858 18.5313C187.276 16.8738 185.091 16.0702 182.806 16.3465C180.545 16.6227 178.587 17.9035 177.457 19.9126L168.139 36.3116C166.582 39.0239 167.009 42.4895 169.144 44.7246L255.409 136.464V136.439ZM170.324 37.5422L179.641 21.1431C180.37 19.8623 181.625 19.0085 183.107 18.8327C183.308 18.8327 183.484 18.8076 183.685 18.8076C184.94 18.8076 186.146 19.3098 187.025 20.2641L273.314 112.003C274.696 113.46 274.972 115.72 273.967 117.478L264.65 133.852C263.922 135.133 262.666 135.987 261.185 136.162C259.703 136.363 258.271 135.811 257.242 134.731L170.977 42.9918C169.596 41.5352 169.32 39.3001 170.324 37.5422Z" fill="black"/>
<path d="M199.582 87.3672C199.883 87.3672 200.185 87.2667 200.436 87.0407C200.938 86.5635 200.988 85.785 200.511 85.2576L169.697 51.8317C169.22 51.3294 168.441 51.3043 167.914 51.7564C167.412 52.2335 167.361 53.012 167.838 53.5394L198.653 86.9654C198.904 87.2416 199.23 87.3672 199.582 87.3672Z" fill="black"/>
<path d="M209.726 95.3027C209.249 94.8005 208.446 94.8005 207.943 95.2776C207.441 95.7548 207.441 96.5584 207.918 97.0607L249.707 140.256C249.958 140.507 250.285 140.632 250.611 140.632C250.938 140.632 251.239 140.507 251.49 140.281C251.992 139.804 251.992 139 251.515 138.498L209.726 95.3027Z" fill="black"/>
</g>
<defs>
<clipPath id="clip0_141_19829">
<rect width="301" height="254" fill="white"/>
</clipPath>
</defs>
</svg>
