<svg width="24" height="25" viewBox="0 0 24 25" fill="none" xmlns="http://www.w3.org/2000/svg">
<g clip-path="url(#clip0_264_19900)">
<path fill-rule="evenodd" clip-rule="evenodd" d="M12.5931 24.0431L12.582 24.0451L12.511 24.0801L12.491 24.0841L12.477 24.0801L12.406 24.0451C12.3954 24.0418 12.3874 24.0434 12.382 24.0501L12.378 24.0601L12.361 24.4881L12.366 24.5081L12.376 24.5211L12.48 24.5951L12.495 24.5991L12.507 24.5951L12.611 24.5211L12.623 24.5051L12.627 24.4881L12.61 24.0611C12.6074 24.0504 12.6017 24.0444 12.5931 24.0431ZM12.858 23.9301L12.845 23.9321L12.66 24.0251L12.65 24.0351L12.647 24.0461L12.665 24.4761L12.67 24.4881L12.6781 24.4951L12.879 24.5881C12.8917 24.5914 12.9014 24.5888 12.908 24.5801L12.912 24.5661L12.878 23.9521C12.8747 23.9401 12.868 23.9328 12.858 23.9301ZM12.143 23.9321C12.1386 23.9294 12.1334 23.9286 12.1283 23.9297C12.1233 23.9308 12.1189 23.9338 12.116 23.9381L12.11 23.9521L12.076 24.5661C12.0767 24.5781 12.0824 24.5861 12.0931 24.5901L12.108 24.5881L12.309 24.4951L12.319 24.4871L12.323 24.4761L12.34 24.0461L12.337 24.0341L12.327 24.0241L12.143 23.9321Z" fill="#535862"/>
<path fill-rule="evenodd" clip-rule="evenodd" d="M8.993 19.6222C9.162 18.1992 8.931 16.7152 8.417 15.3832C7.848 13.9092 7.092 12.3132 6.998 10.7262C6.919 9.38918 7.222 7.80718 8.03 6.72418C8.915 5.53818 10.368 4.78518 11.967 4.78518H13.479C14.7333 4.78512 15.9418 5.25647 16.8648 6.10576C17.7878 6.95505 18.3579 8.12022 18.462 9.37018L18.823 13.7022C18.8345 13.8401 18.8172 13.9788 18.7723 14.1097C18.7274 14.2406 18.6559 14.3607 18.5622 14.4625C18.4685 14.5643 18.3546 14.6455 18.2279 14.701C18.1012 14.7566 17.9644 14.7852 17.826 14.7852H12.5C11.669 14.7852 11.005 15.4582 10.999 16.2772C10.991 17.2472 11.052 18.4442 10.606 19.3372C10.206 20.1372 9.832 20.2852 9.5 20.2852C9.2 20.2852 8.96 19.8922 8.993 19.6222ZM9.5 22.2852C10.856 22.2852 11.794 21.4332 12.395 20.2322C12.917 19.1882 12.966 17.9322 12.992 16.7852H17.826C18.2411 16.7852 18.6516 16.6992 19.0317 16.5324C19.4118 16.3656 19.7532 16.1218 20.0342 15.8163C20.3153 15.5109 20.5298 15.1504 20.6644 14.7578C20.799 14.3651 20.8506 13.9488 20.816 13.5352L20.455 9.20418C20.3093 7.45427 19.5112 5.82306 18.219 4.63406C16.9268 3.44506 15.235 2.78514 13.479 2.78518H11.967C11.0183 2.78278 10.0792 2.9749 9.20773 3.34968C8.33622 3.72446 7.55081 4.27394 6.9 4.96418C6.443 4.8443 5.97246 4.7838 5.5 4.78418C4.392 4.78418 3.472 5.40618 2.876 6.39418C2.296 7.35418 2 8.67818 2 10.2842C2 11.8902 2.297 13.2162 2.876 14.1762C3.472 15.1652 4.392 15.7852 5.5 15.7852C5.781 15.7852 6.079 15.7352 6.377 15.6512C6.835 16.8512 7.161 18.0882 7.007 19.3862C6.835 20.8312 8.016 22.2852 9.5 22.2852ZM5.696 13.7612C5.211 13.8612 4.831 13.5452 4.589 13.1432C4.263 12.6032 4 11.6792 4 10.2852C4 8.89118 4.263 7.96618 4.588 7.42618C4.898 6.91418 5.228 6.78518 5.5 6.78518C5.564 6.78518 5.62733 6.78685 5.69 6.79018C5.154 7.99818 4.924 9.53018 5.002 10.8442C5.049 11.6492 5.363 12.7622 5.696 13.7612Z" fill="#535862"/>
</g>
<defs>
<clipPath id="clip0_264_19900">
<rect width="24" height="24" fill="white" transform="translate(0 0.785156)"/>
</clipPath>
</defs>
</svg>
