<svg width="24" height="25" viewBox="0 0 24 25" fill="none" xmlns="http://www.w3.org/2000/svg">
<g clip-path="url(#clip0_264_19715)">
<path fill-rule="evenodd" clip-rule="evenodd" d="M12.5931 24.0431L12.582 24.0451L12.511 24.0801L12.491 24.0841L12.477 24.0801L12.406 24.0451C12.3954 24.0418 12.3874 24.0434 12.382 24.0501L12.378 24.0601L12.361 24.4881L12.366 24.5081L12.376 24.5211L12.48 24.5951L12.495 24.5991L12.507 24.5951L12.611 24.5211L12.623 24.5051L12.627 24.4881L12.61 24.0611C12.6074 24.0504 12.6017 24.0444 12.5931 24.0431ZM12.858 23.9301L12.845 23.9321L12.66 24.0251L12.65 24.0351L12.647 24.0461L12.665 24.4761L12.67 24.4881L12.6781 24.4951L12.879 24.5881C12.8917 24.5914 12.9014 24.5888 12.908 24.5801L12.912 24.5661L12.878 23.9521C12.8747 23.9401 12.868 23.9328 12.858 23.9301ZM12.143 23.9321C12.1386 23.9294 12.1334 23.9286 12.1283 23.9297C12.1233 23.9308 12.1189 23.9338 12.116 23.9381L12.11 23.9521L12.076 24.5661C12.0767 24.5781 12.0824 24.5861 12.0931 24.5901L12.108 24.5881L12.309 24.4951L12.319 24.4871L12.323 24.4761L12.34 24.0461L12.337 24.0341L12.327 24.0241L12.143 23.9321Z" fill="#535862"/>
<path fill-rule="evenodd" clip-rule="evenodd" d="M8.993 5.94816C9.162 7.37116 8.931 8.85516 8.417 10.1872C7.848 11.6612 7.092 13.2572 6.998 14.8442C6.919 16.1812 7.222 17.7632 8.03 18.8462C8.915 20.0322 10.368 20.7852 11.967 20.7852H13.479C14.7333 20.7852 15.9418 20.3139 16.8648 19.4646C17.7878 18.6153 18.3579 17.4501 18.462 16.2002L18.823 11.8682C18.8345 11.7303 18.8172 11.5915 18.7723 11.4606C18.7274 11.3298 18.6559 11.2097 18.5622 11.1079C18.4685 11.0061 18.3546 10.9248 18.2279 10.8693C18.1012 10.8137 17.9644 10.7851 17.826 10.7852H12.5C12.1036 10.7846 11.7235 10.6276 11.4424 10.3481C11.1613 10.0687 11.0019 9.68952 10.999 9.29316C10.991 8.32316 11.052 7.12616 10.606 6.23316C10.206 5.43316 9.832 5.28516 9.5 5.28516C9.2 5.28516 8.96 5.67816 8.993 5.94816ZM9.5 3.28516C10.856 3.28516 11.794 4.13716 12.395 5.33816C12.917 6.38316 12.966 7.63816 12.992 8.78516H17.826C18.2411 8.7851 18.6516 8.87117 19.0317 9.03793C19.4118 9.2047 19.7532 9.44852 20.0342 9.75399C20.3153 10.0595 20.5298 10.4199 20.6644 10.8126C20.799 11.2052 20.8506 11.6215 20.816 12.0352L20.455 16.3662C20.3093 18.1161 19.5112 19.7473 18.219 20.9363C16.9268 22.1253 15.235 22.7852 13.479 22.7852H11.967C11.0184 22.7877 10.0794 22.5957 9.20785 22.2211C8.33635 21.8465 7.5509 21.2972 6.9 20.6072C6.44291 20.7264 5.97237 20.7862 5.5 20.7852C4.392 20.7852 3.472 20.1652 2.876 19.1772C2.296 18.2172 2 16.8922 2 15.2852C2 13.6782 2.297 12.3542 2.876 11.3942C3.472 10.4052 4.392 9.78516 5.5 9.78516C5.781 9.78516 6.079 9.83516 6.377 9.91916C6.835 8.71916 7.161 7.48216 7.007 6.18416C6.835 4.73916 8.016 3.28516 9.5 3.28516ZM5.696 11.8092C5.211 11.7092 4.831 12.0252 4.589 12.4272C4.263 12.9672 4 13.8912 4 15.2852C4 16.6792 4.263 17.6042 4.588 18.1442C4.898 18.6562 5.228 18.7852 5.5 18.7852C5.564 18.7852 5.62733 18.7835 5.69 18.7802C5.154 17.5722 4.924 16.0402 5.002 14.7262C5.049 13.9212 5.363 12.8082 5.696 11.8092Z" fill="#535862"/>
</g>
<defs>
<clipPath id="clip0_264_19715">
<rect width="24" height="24" fill="white" transform="translate(0 0.785156)"/>
</clipPath>
</defs>
</svg>
