<svg width="244" height="211" viewBox="0 0 244 211" fill="none" xmlns="http://www.w3.org/2000/svg">
<g clip-path="url(#clip0_131_3094)">
<path d="M108.167 39.9593C107.664 40.1334 107.412 40.6946 107.586 41.1977C107.78 41.7008 108.322 41.9524 108.825 41.7782C109.773 41.4299 114.34 40.9655 116.294 42.9199C116.488 43.1134 116.739 43.2102 116.971 43.2102C117.204 43.2102 117.474 43.1134 117.649 42.9199C118.036 42.5329 118.036 41.933 117.649 41.546C114.862 38.7595 109.367 39.4949 108.128 39.9399L108.167 39.9593Z" fill="#1D1D1B"/>
<path d="M109.173 68.5016C109.56 68.1146 109.56 67.5147 109.173 67.1277C108.786 66.7406 108.186 66.7406 107.799 67.1277C105.787 69.1401 101.162 68.8499 99.4203 68.7338C99.072 68.7144 98.8205 68.6951 98.6463 68.6951C98.1045 68.6951 97.6788 69.1208 97.6788 69.6626C97.6788 70.2044 98.1045 70.6301 98.6463 70.6301C98.7818 70.6301 99.014 70.6301 99.3042 70.6688C99.9041 70.7075 100.717 70.7656 101.646 70.7656C104.084 70.7656 107.257 70.4173 109.173 68.5016Z" fill="#1D1D1B"/>
<path d="M120.996 34.9085C120.996 34.3667 120.59 33.941 120.048 33.941C119.042 33.8443 110.45 30.7094 109.367 30.0515C108.902 29.7806 108.322 29.9354 108.031 30.3805C107.761 30.8449 107.915 31.4254 108.36 31.7157C109.483 32.3929 118.771 35.8761 120.01 35.8761C120.551 35.8761 120.996 35.4504 120.996 34.9085Z" fill="#1D1D1B"/>
<path d="M184.68 97.4501C166.587 83.924 158.421 83.4789 137.503 82.8403V78.3123C137.425 77.306 137.503 74.4228 138.741 73.1456C140.773 71.1332 148.687 58.9229 148.687 46.7706C148.687 34.6184 148.358 21.7308 144.546 15.3451C140.076 7.91443 133.748 0 115.269 0C96.7887 0 86.2619 13.9519 86.2619 27.091V60.1226C86.2619 60.7031 86.3199 61.3998 86.4167 62.1544C85.5265 63.5477 85.1589 64.7474 85.1395 64.8055L84.7912 65.9472L85.991 66.0439C85.991 66.0439 86.4747 66.0826 87.2488 66.1213C88.3517 70.0108 91.4479 77.7124 98.9366 80.9053V82.8984C85.8555 83.9627 63.041 91.9545 52.4949 104.861C44.8901 114.13 42.5099 137.932 42.0649 143.253H42.0262L41.9875 144.279L41.1167 168.719C41.1167 169.357 41.2135 184.277 50.1922 191.262C54.7589 194.784 59.1322 196.835 64.2214 197.88C63.4861 203.956 63.1184 207.962 63.1184 210.032V211H202.231V148.884C202.269 148.536 206.043 113.453 184.66 97.4501H184.68ZM89.2999 66.1794C89.8611 66.1794 90.4223 66.1987 90.9834 66.1987C94.215 66.1987 97.6014 65.9665 99.3623 65.1151C100.272 64.6894 100.949 64.0315 101.413 63.18C102.091 64.2443 103.039 65.2312 104.374 65.6182C105.38 65.9085 107.354 66.0052 109.521 66.0052C113.353 66.0052 117.765 65.6956 118.5 65.6569L119.816 65.5602L119.332 64.3411C119.216 64.0702 116.526 57.4909 109.309 57.4909H101.839C101.839 57.4909 101.742 57.4716 101.684 57.4909C101.684 57.4909 101.413 57.4909 101.026 57.4909H100.717C98.685 57.4522 97.137 57.0265 96.6919 56.4073C96.6338 56.3105 96.4597 56.0783 96.6532 55.4784C97.9303 51.7051 99.8654 42.0878 99.9622 41.6814C100.059 41.1589 99.73 40.6558 99.2075 40.5397C98.685 40.4236 98.1819 40.7719 98.0658 41.2944C98.0465 41.3911 96.0727 51.2019 94.8342 54.8592C94.4279 56.0977 94.7375 56.9684 95.1051 57.4909H94.6214C91.7575 57.4909 89.687 58.652 88.2356 60.0065V43.481C88.5646 42.9585 89.7837 41.4105 92.6476 41.7588C93.1701 41.7975 93.6538 41.4298 93.7119 40.9074C93.7699 40.3849 93.4023 39.9011 92.8605 39.8237C90.7319 39.5722 89.2419 40.1333 88.2163 40.8106V35.7988C90.519 35.0441 95.8211 32.6833 96.9628 31.5416C97.3498 31.1546 97.3498 30.5548 96.9628 30.1677C96.5758 29.7807 95.9759 29.7807 95.5889 30.1677C94.6988 31.0579 90.2481 32.9929 88.1969 33.7863V29.3163C92.0671 29.1228 106.948 28.2714 113.043 25.8138C116.043 24.6141 119.042 22.6016 121.983 19.9312C122.448 22.3114 123.686 26.375 126.86 29.7807C131.039 34.3088 129.646 40.4817 128.175 43.423C126.511 46.7513 126.976 47.6608 128.698 49.3636L129.588 50.2538L136.438 43.9067L136.612 43.6745C137.193 42.6489 139.109 39.9979 140.908 39.9979C142.282 39.9979 143.211 40.3656 143.83 41.1589C144.798 42.3974 145.572 45.358 143.83 52.5178C142.534 57.8392 140.444 60.8192 137.948 60.9353C136.941 61.0127 136.148 60.5483 136.148 60.5483C135.703 60.2581 135.103 60.3935 134.813 60.8386C134.523 61.2837 134.658 61.8835 135.103 62.1738C135.2 62.2318 135.954 62.6576 137.038 62.8124V72.1781C135.297 74.4228 135.548 78.2542 135.567 78.351V85.859C135.509 85.9751 135.471 86.1106 135.471 86.2461C135.471 86.7879 135.819 87.2136 136.361 87.2136C136.4 87.2136 140.405 88.0457 140.405 90.9289C140.405 96.8889 119.003 100.101 110.257 100.101C98.3561 100.101 91.8155 98.05 91.8155 94.3153C91.8155 90.3291 96.7113 87.678 99.0333 86.6524C99.1881 87.0007 99.5171 87.2329 99.9235 87.2329C100.465 87.2329 100.891 86.8072 100.891 86.2654V81.5632C102.458 82.0276 104.123 82.2792 105.864 82.3179C106.58 82.3179 107.277 82.3372 107.954 82.3372C121.383 82.3372 125.137 79.3185 125.292 79.183C125.699 78.8347 125.757 78.2542 125.408 77.8285C125.079 77.4221 124.479 77.3641 124.054 77.6931C124.015 77.7318 120.068 80.6731 105.883 80.3828C103.871 80.3441 101.975 79.9958 100.252 79.3185C93.4797 76.7449 90.4803 69.9721 89.2999 66.1407V66.1794ZM54.0043 106.081C64.0086 93.8509 85.4685 86.1686 98.298 84.8915C95.647 86.0525 89.8611 89.1874 89.8611 94.354C89.8611 99.5206 96.7113 102.075 110.237 102.075C117.32 102.075 142.321 99.4045 142.321 90.9676C142.321 87.4845 139.031 86.0526 137.503 85.5688V84.7754C158.498 85.4333 165.929 85.859 183.518 98.9982C203.101 113.647 200.644 145.343 200.334 148.497H158.305V126.05C158.305 125.509 157.879 125.083 157.337 125.083C156.795 125.083 156.369 125.509 156.369 126.05V150.432L156.389 172.318C152.557 171.234 147.933 170.228 146.501 169.918C145.378 168.061 143.172 166.745 139.805 165.139C135.896 163.281 120.861 158.482 98.5496 158.482C87.6551 158.482 78.0572 159.45 71.5553 160.321L74.0516 144.395C75.8512 133.113 77.1864 125.006 77.1864 125.006C77.2638 124.483 76.9155 123.98 76.393 123.903C75.8512 123.806 75.3674 124.173 75.29 124.696C75.29 124.696 74.0129 132.456 72.2713 143.331C57.3326 144.55 47.0187 143.756 44.0387 143.466C44.4644 138.512 46.8445 114.846 54.043 106.061L54.0043 106.081ZM43.0518 168.757L43.8838 145.42C47.0767 145.73 57.2745 146.485 71.923 145.324L69.5429 160.63C63.9505 161.424 60.4674 162.159 60.4287 162.159C59.9062 162.275 59.5773 162.778 59.6934 163.301C59.7901 163.765 60.1965 164.075 60.6416 164.075C60.6996 164.075 60.777 164.075 60.8351 164.055C60.8738 164.055 64.4343 163.301 70.1427 162.488L70.5298 162.43C76.9542 161.52 87.0166 160.417 98.5496 160.417C120.513 160.417 135.18 165.081 138.993 166.88C142.727 168.661 144.353 169.822 145.03 171.196C145.223 171.583 145.359 172.047 145.417 172.55C145.475 173.034 145.901 173.402 146.384 173.402C146.423 173.402 146.462 173.402 146.501 173.402C147.023 173.324 147.41 172.84 147.333 172.318C147.333 172.241 147.294 172.163 147.275 172.066C149.558 172.57 153.835 173.556 157.085 174.524C158.227 174.872 159.814 175.375 160.627 175.82C165.464 178.471 166.703 179.574 166.703 183.657C166.703 184.702 166.335 185.534 165.561 186.192C164.013 187.489 161.226 187.721 159.833 187.47C159.311 187.373 158.459 187.083 157.763 186.812C157.763 186.812 157.743 186.812 157.724 186.812L157.027 186.56C154.396 185.573 150.874 184.277 147.081 184.044C147.275 182.651 147.352 181.587 147.352 181.529C147.391 180.987 146.984 180.542 146.443 180.503C145.92 180.465 145.456 180.871 145.417 181.413C145.417 181.413 145.32 182.845 145.049 184.509C144.972 184.644 144.933 184.78 144.933 184.954C144.933 184.993 144.933 185.012 144.933 185.051C144.391 187.837 143.733 188.843 143.385 189.192C143.056 189.521 142.766 189.888 142.418 190.295C141.295 191.688 139.921 193.313 136.516 194.204C136.999 193.623 137.425 192.907 137.696 192.075C137.87 191.572 137.599 191.03 137.077 190.856C136.574 190.682 136.032 190.972 135.858 191.475C135.18 193.526 133.187 194.552 132.665 194.784C132.046 194.823 131.388 194.862 130.672 194.862C129.104 194.862 127.634 194.707 126.26 194.455C128.195 193.352 129.801 191.882 129.898 191.785C130.285 191.417 130.304 190.817 129.936 190.411C129.569 190.024 128.969 190.005 128.562 190.353C127.711 191.146 125.157 193.217 123.241 193.604C120.319 192.501 118.558 190.895 117.475 189.792C118.907 189.269 120.261 188.805 120.59 188.785C121.132 188.785 121.558 188.36 121.558 187.818C121.558 187.276 121.132 186.85 120.59 186.85C119.893 186.85 117.61 187.663 115.985 188.282L115.926 188.224L115.327 188.534C115.191 188.611 101.994 195.268 85.1395 196.526C76.1802 197.184 70.2976 197.087 65.4405 196.197C60.1965 195.268 55.978 193.333 51.3532 189.772C43.1098 183.367 43.0131 168.912 43.0131 168.796L43.0518 168.757ZM66.1372 198.209C68.7688 198.616 71.6714 198.848 75.1546 198.848C78.0765 198.848 81.4049 198.712 85.2943 198.422C100.407 197.3 112.656 191.92 115.559 190.546C116.604 191.688 118.79 194.049 122.815 195.481C125.118 196.313 127.75 196.739 130.633 196.739C131.465 196.739 132.22 196.719 132.897 196.661C140.018 196.177 142.321 193.352 143.85 191.475C144.14 191.127 144.391 190.798 144.682 190.527C145.514 189.695 146.172 188.186 146.655 185.921C150.255 186.115 153.699 187.392 156.273 188.34H156.35V209.065H65.0922C65.1696 206.898 65.5179 203.318 66.1372 198.209ZM158.324 209.065V189.076C158.788 189.23 159.156 189.327 159.466 189.385C161.149 189.676 164.632 189.482 166.78 187.682C167.98 186.676 168.618 185.283 168.618 183.677C168.618 178.51 166.567 176.885 161.536 174.137C160.898 173.789 159.872 173.382 158.324 172.898V150.452H200.315V209.084H158.324V209.065Z" fill="#1D1D1B"/>
<path d="M189.885 167.984H178.313C173.205 167.984 169.044 172.144 169.044 177.253V193.256C169.044 198.364 173.205 202.525 178.313 202.525H189.885C194.994 202.525 199.154 198.364 199.154 193.256V177.253C199.154 172.144 194.994 167.984 189.885 167.984ZM197.219 193.256C197.219 197.3 193.929 200.589 189.885 200.589H178.313C174.269 200.589 170.979 197.3 170.979 193.256V177.253C170.979 173.208 174.269 169.919 178.313 169.919H189.885C193.929 169.919 197.219 173.208 197.219 177.253V193.256Z" fill="#1D1D1B"/>
<path d="M176.9 179.42C176.359 179.42 175.933 179.845 175.933 180.387V189.172C175.933 189.714 176.359 190.14 176.9 190.14C177.442 190.14 177.868 189.714 177.868 189.172V180.387C177.868 179.845 177.442 179.42 176.9 179.42Z" fill="#1D1D1B"/>
<path d="M188.937 192.752H179.107C178.565 192.752 178.139 193.178 178.139 193.72C178.139 194.262 178.565 194.687 179.107 194.687H188.937C189.479 194.687 189.904 194.262 189.904 193.72C189.904 193.178 189.479 192.752 188.937 192.752Z" fill="#1D1D1B"/>
<path d="M181.1 177.91H185.918C186.46 177.91 186.886 177.484 186.886 176.943C186.886 176.401 186.46 175.975 185.918 175.975H181.1C180.558 175.975 180.132 176.401 180.132 176.943C180.132 177.484 180.558 177.91 181.1 177.91Z" fill="#1D1D1B"/>
<path d="M192.013 179.536C191.472 179.536 191.046 179.962 191.046 180.503V183.348C191.046 183.89 191.472 184.316 192.013 184.316C192.555 184.316 192.981 183.89 192.981 183.348V180.503C192.981 179.962 192.555 179.536 192.013 179.536Z" fill="#1D1D1B"/>
<path d="M192.013 185.399C191.472 185.399 191.046 185.825 191.046 186.367V189.211C191.046 189.753 191.472 190.179 192.013 190.179C192.555 190.179 192.981 189.753 192.981 189.211V186.367C192.981 185.825 192.555 185.399 192.013 185.399Z" fill="#1D1D1B"/>
</g>
<defs>
<clipPath id="clip0_131_3094">
<rect width="161.767" height="211" fill="white" transform="translate(41.1167)"/>
</clipPath>
</defs>
</svg>
