<svg width="40" height="40" viewBox="0 0 40 40" fill="none" xmlns="http://www.w3.org/2000/svg">
<g clip-path="url(#clip0_3944_2727)">
<path d="M27.1159 4.13423H2.07547C0.925427 4.13423 0 3.20358 0 2.06711C0 0.930649 0.925427 0 2.07547 0H27.1249C28.2749 0 29.2004 0.9217 29.2004 2.06711C29.2004 3.21253 28.2749 4.13423 27.1249 4.13423H27.1159Z" fill="black"/>
<path d="M37.9245 22.0671H2.07547C0.925427 22.0671 0 21.1454 0 20C0 18.8546 0.925427 17.9329 2.07547 17.9329H37.9245C39.0746 17.9329 40 18.8546 40 20C40 21.1454 39.0746 22.0671 37.9245 22.0671Z" fill="black"/>
<path d="M27.1159 40H2.07547C0.925427 40 0 39.0783 0 37.9329C0 36.7875 0.925427 35.8658 2.07547 35.8658H27.1249C28.2749 35.8658 29.2004 36.7875 29.2004 37.9329C29.2004 39.0783 28.2749 40 27.1249 40H27.1159Z" fill="black"/>
</g>
<defs>
<clipPath id="clip0_3944_2727">
<rect width="40" height="40" fill="white"/>
</clipPath>
</defs>
</svg>
