<svg width="245" height="301" viewBox="0 0 245 301" fill="none" xmlns="http://www.w3.org/2000/svg">
<g clip-path="url(#clip0_141_19326)">
<path d="M73.9899 155.707C67.5988 164.138 51.3537 164.785 46.5393 164.785C45.751 164.785 45.1316 165.403 45.1316 166.19C45.1316 166.977 45.751 167.595 46.5393 167.595C53.1556 167.595 69.26 166.611 76.2423 157.393C76.7209 156.775 76.5801 155.904 75.9607 155.426C75.3413 154.948 74.4685 155.089 73.9899 155.707Z" fill="#1D1D1B"/>
<path d="M77.7063 108.775H77.7345C78.4946 108.775 79.114 108.157 79.1422 107.398C79.1422 106.611 78.5509 105.965 77.7626 105.965C77.65 105.965 65.3184 105.599 62.0524 99.782C61.6864 99.1075 60.8136 98.8546 60.1379 99.248C59.4622 99.6134 59.2088 100.485 59.603 101.159C63.6291 108.382 77.1151 108.775 77.6782 108.803L77.7063 108.775Z" fill="#1D1D1B"/>
<path d="M64.3048 127.211C63.7417 127.773 63.7417 128.644 64.3048 129.206C64.5863 129.487 64.9523 129.628 65.2902 129.628C65.628 129.628 66.0222 129.487 66.2756 129.206C66.3319 129.15 73.286 122.546 79.1703 128.419C79.7334 128.981 80.6062 128.981 81.1693 128.419C81.7324 127.857 81.7324 126.986 81.1693 126.424C74.6093 119.876 66.5853 124.934 64.2766 127.211H64.3048Z" fill="#1D1D1B"/>
<path d="M244.127 56.1942C241.255 49.4495 232.331 46.4705 221.744 47.9319C233.935 39.0794 234.498 29.5806 234.02 25.4495C233.091 17.4682 226.756 10.8078 218.281 8.86866C207.892 6.4799 196.969 11.145 187.875 21.4869C190.887 10.4424 187.987 5.46819 185.65 3.33236C182.019 0.044305 176.134 0.18482 169.912 3.6696C157.58 10.5829 146.459 28.9623 149.19 53.6649C138.407 39.6977 121.937 32.6157 100.117 32.6157C80.7188 32.6157 66.0785 36.1848 55.2953 43.4916C36.8542 55.9413 33.3912 77.8054 32.4058 95.4541C32.2087 99.248 32.0961 103.407 32.0679 108.522C32.0679 110.517 32.0679 112.541 32.0679 114.677H18.3004L18.1033 115.857C17.315 120.972 17.4276 125.468 18.4693 129.234C19.7926 133.871 22.5517 137.243 26.071 138.452C27.0283 138.789 28.0137 138.958 29.0272 138.958C30.2097 138.958 31.3641 138.705 32.4902 138.255C32.5747 140.138 32.631 141.908 32.7155 143.482C30.8854 146.405 29.2243 149.749 30.1534 152.728C30.6602 154.302 31.8427 155.595 33.6727 156.494C34.2077 169 37.3047 177.29 43.3297 182.574C50.0023 188.419 60.1379 190.555 75.2005 189.318V228.438L57.7448 236.447C55.8584 233.693 53.775 233.693 52.6488 233.946C43.9773 232.766 34.3484 240.944 27.7321 248.054C12.6414 264.297 -1.80188 291.445 0.19709 299.904L0.45048 301H201.53L201.67 299.763C203.134 287.567 194.125 266.293 180.667 250.302C170.222 237.88 158.988 230.742 148.993 230.208C148.881 230.208 148.768 230.208 148.627 230.208C146.966 230.208 145.587 231.838 144.545 233.581L131.059 227.089V210.986C131.453 206.293 131.228 202.105 131.003 198.03C130.496 188.616 130.045 180.494 137.168 169C158.031 143.96 167.04 111.304 161.325 82.5548C169.039 89.5244 180.526 92.6438 192.295 92.6438C201.276 92.6438 210.37 90.8452 218.084 87.6134C242.185 75.9225 247.365 63.6977 244.127 56.1942ZM34.9115 109.59C37.2765 108.775 42.9074 106.302 44.7937 100.906C45.0471 100.175 44.653 99.3605 43.9209 99.1075C43.1889 98.8546 42.3725 99.2481 42.1191 99.9787C40.8521 103.632 37.1357 105.656 34.9115 106.583C34.9397 102.733 35.0523 99.4448 35.1931 96.4377C43.1326 92.3628 53.7187 85.4776 61.8835 75.248C65.8251 92.1099 76.7772 106.386 92.0088 114.705H51.579V118.892C48.5101 118.274 45.9762 118.274 44.2306 118.442C43.9773 118.133 43.5831 117.908 43.1608 117.908C42.5695 117.908 42.0628 118.274 41.8657 118.78H41.8375V118.808C41.6404 118.864 41.4434 118.92 41.2463 118.976C41.2463 118.808 41.2463 118.667 41.2463 118.499C41.2463 117.656 41.2463 116.841 41.2463 116.138V114.705H34.9115C34.9115 112.99 34.9115 111.304 34.9115 109.618V109.59ZM87.4759 119.314C87.5885 125.412 87.7574 133.759 71.822 135.698C64.6708 136.147 59.9127 135.079 57.2662 132.466C54.9575 130.161 54.0565 126.564 54.3944 120.747L54.4507 119.623H54.3944V117.515H87.4196C87.4196 118.105 87.4196 118.695 87.4196 119.314H87.4759ZM35.3338 138.143C35.3338 137.637 35.3057 137.131 35.2775 136.597C35.6717 136.26 36.0659 135.951 36.4319 135.585C36.0659 136.456 35.6998 137.328 35.3338 138.143ZM41.2181 121.955C41.2181 121.955 41.2744 121.955 41.3026 121.927C41.2744 122.068 41.2181 122.236 41.19 122.377C41.19 122.236 41.19 122.096 41.2181 121.955ZM27.0564 135.838C24.4099 134.911 22.2983 132.241 21.2285 128.503C20.3557 125.412 20.2149 121.702 20.7498 117.487H38.4308C38.4308 117.824 38.4308 118.161 38.4308 118.499C38.4308 119.286 38.4308 120.072 38.4308 120.859C38.4027 121.028 38.4027 121.168 38.4308 121.337C38.3745 123.023 38.1774 124.597 37.8677 126.058C36.0659 123.726 34.1514 123.164 32.7999 123.164C29.6748 123.164 27.0564 125.834 26.0147 127.407C25.5924 128.054 25.7613 128.925 26.4089 129.346C26.6341 129.515 26.9157 129.571 27.1972 129.571C27.6477 129.571 28.0981 129.346 28.3797 128.953C29.1399 127.801 31.0262 125.974 32.8281 125.946C33.9543 125.946 34.996 126.677 35.9814 128.166C36.2629 128.56 36.7134 128.756 37.1639 128.756C36.2348 131.398 34.8271 133.534 33.0533 134.798C31.1951 136.119 29.0836 136.485 27.0846 135.782L27.0564 135.838ZM29.8437 249.965C36.9386 242.349 43.5831 237.824 48.9606 236.869C47.947 238.442 47.3558 240.41 47.3839 242.124C47.3839 242.433 47.4121 242.77 47.4403 242.883V298.19H2.7873C2.56206 290.012 15.316 265.562 29.8437 249.993V249.965ZM178.527 252.101C191.056 267.023 199.643 286.471 198.996 298.161H153.273C153.16 295.773 153.301 289.478 153.47 283.379C153.836 269.412 154.315 250.527 153.048 239.679C153.16 239.567 153.273 239.482 153.329 239.342C153.639 238.667 153.385 237.88 152.738 237.515C152.456 235.801 152.147 234.396 151.752 233.328C160.227 234.958 169.602 241.478 178.499 252.072L178.527 252.101ZM148.43 233.019C148.43 233.019 149.05 233.693 149.585 235.997L147.079 234.789C147.923 233.412 148.43 233.075 148.43 233.019ZM128.187 198.199C128.384 201.796 128.581 205.534 128.328 209.553H103.017L98.062 230.939L90.8826 209.553H78.0723V189.206H93.8669C94.6553 189.206 95.2747 188.588 95.2747 187.801C95.2747 187.014 94.6553 186.396 93.8669 186.396H78.0723V186.255L76.5238 186.396C61.6301 187.829 51.41 185.89 45.216 180.494C39.9793 175.913 37.2483 168.578 36.6008 157.618C37.7833 157.927 38.9939 158.096 40.2327 158.096C44.9627 158.096 49.7489 156.072 52.2828 154.077C53.9439 152.784 54.6196 151.492 54.3662 150.255C54.1973 149.496 53.4371 148.934 52.677 149.103C51.9168 149.271 51.4382 149.946 51.6071 150.705C51.4945 151.126 50.2838 152.363 47.7781 153.487C44.3996 155.061 39.4725 156.072 35.7843 154.358L35.5872 154.274C34.0669 153.656 33.1659 152.869 32.8562 151.857C32.2087 149.862 33.8417 146.939 35.4183 144.494C38.3182 138.901 43.2171 126.705 44.3433 121.197C45.9762 121.028 48.482 121 51.5508 121.702C51.3537 127.716 52.5362 131.651 55.2953 134.405C58.5331 137.637 63.9951 138.958 72.0754 138.452C90.601 136.204 90.4039 125.581 90.2913 119.229C90.2913 118.583 90.2913 117.993 90.2913 117.459H97.7523C99.2726 118.33 100.568 119.033 101.694 119.623C106.593 122.264 107.325 122.658 107.381 125.693C107.381 125.862 107.381 126.03 107.381 126.199H110.197C110.197 126.03 110.197 125.89 110.197 125.777C110.197 122.714 110.563 119.876 111.238 117.29C111.689 117.065 111.998 116.616 111.998 116.082C111.998 115.857 111.942 115.632 111.829 115.464C114.617 107.257 120.276 103.182 124.837 102.143C128.553 101.3 131.96 102.227 134.212 104.728C136.352 107.089 139.28 112.99 134.944 125.721C134.015 128.166 132.27 130.161 130.58 132.101C128.046 135.023 125.428 138.03 125.963 142.33C126.301 145.197 128.328 159.585 134.353 168.297C127.23 180.157 127.709 188.925 128.215 198.199H128.187ZM103.58 117.515H108.338C108.141 118.358 107.888 119.173 107.775 120.072C106.762 119.257 105.382 118.499 103.608 117.515H103.58ZM136.099 165.852C130.749 157.393 128.947 143.623 128.75 141.965C128.356 138.901 130.383 136.597 132.72 133.927C134.466 131.904 136.465 129.627 137.591 126.677C142.405 112.541 138.858 105.684 136.296 102.845C133.339 99.5853 128.947 98.3206 124.217 99.4167C118.896 100.625 112.28 105.318 109.127 114.705H98.428C80.5217 107.004 67.7396 91.1263 64.1358 72.1848C64.2203 71.8195 64.1358 71.4822 63.9669 71.1731C62.6718 63.501 62.9534 55.5759 64.8679 48.241C65.0649 47.4822 64.6145 46.7235 63.8543 46.5267C63.0941 46.33 62.334 46.7797 62.1369 47.5384C60.1379 55.2668 59.8282 63.5853 61.2078 71.679C53.5779 81.9647 43.4142 88.9061 35.4465 93.1778C36.5726 76.6532 40.3735 57.0935 56.9283 45.8804C67.2328 38.9108 81.3664 35.5384 100.174 35.5103C123.26 35.5103 140.04 43.6883 150.091 59.8476V60.0443L150.373 60.2972C153.526 66.0303 155.919 72.1286 157.524 78.4237C164.985 106.948 156.764 140.278 136.099 165.88V165.852ZM216.93 85.0841C198.433 92.8687 171.179 91.5478 160.086 77.1872C159.889 76.4003 159.636 75.6134 159.41 74.8265C162.62 75.6415 168.814 76.9342 175.909 76.9342C180.498 76.9342 185.425 76.4003 190.155 74.8265C190.887 74.5736 191.281 73.7867 191.056 73.056C190.831 72.3253 190.014 71.9319 189.282 72.1567C176.359 76.4565 161.072 72.4096 158.425 71.6228C158.031 70.4986 157.665 69.3745 157.214 68.2785C157.214 68.2504 157.214 68.2223 157.214 68.1942C157.214 68.0256 158.284 52.4565 166.618 47.3979C167.294 47.0045 167.491 46.1333 167.097 45.4588C166.702 44.7844 165.83 44.5876 165.154 44.9811C158.65 48.9436 156.06 57.7961 155.047 63.3043C154.371 61.871 153.667 60.4658 152.907 59.0888V58.8359L152.794 58.7235C147.98 32.4471 158.988 13.056 171.32 6.14267C176.444 3.27616 181.089 3.02323 183.792 5.44009C187.762 9.03728 187.143 17.7492 182.075 29.3558L184.552 30.6766C193.815 16.1192 206.203 9.00918 217.662 11.6228C224.982 13.2808 230.444 18.9858 231.232 25.7867C232.302 34.9483 225.376 43.9132 212.256 50.3488C210.257 51.0513 208.202 51.9506 206.062 53.0466L207.217 55.604C209.356 54.789 211.412 53.8897 213.383 52.9342C227.629 47.7071 238.89 51.0513 241.565 57.2902C244.155 63.3324 239.228 74.2363 216.93 85.056V85.0841Z" fill="#1D1D1B"/>
</g>
<defs>
<clipPath id="clip0_141_19326">
<rect width="245" height="301" fill="white"/>
</clipPath>
</defs>
</svg>
