<svg width="480" height="414" viewBox="0 0 480 414" fill="none" xmlns="http://www.w3.org/2000/svg">
<path d="M349.465 412.549H65.6035V407.078H349.465C363.527 407.078 375.564 397.558 378.737 383.933L384.045 385.192C380.269 401.333 366.043 412.604 349.41 412.604L349.465 412.549Z" fill="black"/>
<path d="M385.084 49.4608H379.612V159.657H385.084V49.4608Z" fill="black"/>
<path d="M385.084 52.1962H32.7197V46.7247H379.613V36.2194C379.613 19.5861 366.098 6.07147 349.465 6.07147H65.6034V0.599976H349.465C369.107 0.599976 385.084 16.5768 385.084 36.2194V52.1962Z" fill="black"/>
<path d="M65.6033 412.549H35.6194C15.9768 412.549 0 396.572 0 376.93V36.2194C0 16.5768 15.9768 0.599976 35.6194 0.599976H65.6033V6.07147C48.9699 6.07147 35.4553 19.5861 35.4553 36.2194V376.93C35.4553 393.563 48.9699 407.078 65.6033 407.078V412.549ZM35.6194 6.07147C18.9861 6.07147 5.4715 19.5861 5.4715 36.2194V376.93C5.4715 393.563 18.9861 407.078 35.6194 407.078H46.6719C36.659 400.785 29.9838 389.623 29.9838 376.93V36.2194C29.9838 23.5256 36.659 12.3637 46.6719 6.07147H35.6194Z" fill="black"/>
<path d="M32.7192 46.725H2.73535V52.1965H32.7192V46.725Z" fill="black"/>
<path d="M128.142 164.526H84.9723C80.0479 164.526 76.0537 160.532 76.0537 155.662V112.437C76.0537 107.567 80.0479 103.573 84.9723 103.573H128.142C133.067 103.573 137.061 107.567 137.061 112.437V155.662C137.061 160.532 133.067 164.526 128.142 164.526ZM84.9723 109.045C83.0572 109.045 81.5252 110.577 81.5252 112.437V155.662C81.5252 157.522 83.0572 159.054 84.9723 159.054H128.142C130.057 159.054 131.589 157.577 131.589 155.662V112.437C131.589 110.522 130.057 109.045 128.142 109.045H84.9723Z" fill="black"/>
<path d="M128.142 250.045H84.9723C80.0479 250.045 76.0537 246.051 76.0537 241.181V197.957C76.0537 193.087 80.0479 189.093 84.9723 189.093H128.142C133.067 189.093 137.061 193.087 137.061 197.957V241.181C137.061 246.051 133.067 250.045 128.142 250.045ZM84.9723 194.564C83.0572 194.564 81.5252 196.096 81.5252 197.957V241.181C81.5252 243.042 83.0572 244.574 84.9723 244.574H128.142C130.057 244.574 131.589 243.097 131.589 241.181V197.957C131.589 196.042 130.057 194.564 128.142 194.564H84.9723Z" fill="black"/>
<path d="M128.142 335.565H84.9723C80.0479 335.565 76.0537 331.571 76.0537 326.646V283.476C76.0537 278.552 80.0479 274.558 84.9723 274.558H128.142C133.067 274.558 137.061 278.552 137.061 283.476V326.646C137.061 331.571 133.067 335.565 128.142 335.565ZM84.9723 280.029C83.1119 280.029 81.5252 281.616 81.5252 283.476V326.646C81.5252 328.507 83.1119 330.093 84.9723 330.093H128.142C130.057 330.093 131.589 328.561 131.589 326.646V283.476C131.589 281.561 130.057 280.029 128.142 280.029H84.9723Z" fill="black"/>
<path d="M124.586 156.592C123.875 156.592 123.163 156.319 122.671 155.771L86.7231 119.878C85.6288 118.784 85.6288 117.088 86.7231 115.994C87.8174 114.899 89.5135 114.899 90.6078 115.994L126.556 151.887C127.65 152.926 127.65 154.677 126.556 155.771C126.008 156.319 125.297 156.592 124.641 156.592H124.586Z" fill="black"/>
<path d="M88.1459 156.592C87.4346 156.592 86.7233 156.319 86.2309 155.771C85.1913 154.677 85.1913 152.981 86.2309 151.887L122.179 115.994C123.273 114.899 124.969 114.899 126.063 115.994C127.158 117.088 127.158 118.784 126.063 119.878L90.1156 155.771C89.5685 156.319 88.8572 156.592 88.2006 156.592H88.1459Z" fill="black"/>
<path d="M124.586 240.251C123.875 240.251 123.163 239.978 122.671 239.431L86.7231 203.483C85.6288 202.389 85.6288 200.692 86.7231 199.598C87.8174 198.504 89.5135 198.504 90.6078 199.598L126.556 235.546C127.65 236.64 127.65 238.336 126.556 239.431C126.008 239.978 125.297 240.251 124.641 240.251H124.586Z" fill="black"/>
<path d="M88.1459 240.251C87.4346 240.251 86.7233 239.978 86.2309 239.431C85.1366 238.336 85.1366 236.64 86.2309 235.546L122.179 199.598C123.273 198.504 124.969 198.504 126.063 199.598C127.158 200.692 127.158 202.389 126.063 203.483L90.1156 239.431C89.5685 239.978 88.8572 240.251 88.2006 240.251H88.1459Z" fill="black"/>
<path d="M280.633 116.869H150.412C148.88 116.869 147.676 115.666 147.676 114.134C147.676 112.602 148.88 111.398 150.412 111.398H280.633C282.165 111.398 283.369 112.602 283.369 114.134C283.369 115.666 282.165 116.869 280.633 116.869Z" fill="black"/>
<path d="M279.922 136.786H150.412C148.88 136.786 147.676 135.582 147.676 134.05C147.676 132.518 148.88 131.314 150.412 131.314H279.922C281.454 131.314 282.658 132.518 282.658 134.05C282.658 135.582 281.454 136.786 279.922 136.786Z" fill="black"/>
<path d="M250.485 156.592H150.412C148.88 156.592 147.676 155.389 147.676 153.857C147.676 152.325 148.88 151.121 150.412 151.121H250.485C252.017 151.121 253.221 152.325 253.221 153.857C253.221 155.389 252.017 156.592 250.485 156.592Z" fill="black"/>
<path d="M233.469 202.444H150.412C148.88 202.444 147.676 201.24 147.676 199.708C147.676 198.176 148.88 196.972 150.412 196.972H233.469C235.001 196.972 236.205 198.176 236.205 199.708C236.205 201.24 235.001 202.444 233.469 202.444Z" fill="black"/>
<path d="M302.3 222.36H150.412C148.88 222.36 147.676 221.156 147.676 219.624C147.676 218.092 148.88 216.888 150.412 216.888H302.3C303.832 216.888 305.036 218.092 305.036 219.624C305.036 221.156 303.832 222.36 302.3 222.36Z" fill="black"/>
<path d="M278.937 242.167H150.412C148.88 242.167 147.676 240.963 147.676 239.431C147.676 237.899 148.88 236.695 150.412 236.695H278.937C280.469 236.695 281.673 237.899 281.673 239.431C281.673 240.963 280.469 242.167 278.937 242.167Z" fill="black"/>
<path d="M307.553 287.908H150.412C148.88 287.908 147.676 286.705 147.676 285.173C147.676 283.641 148.88 282.437 150.412 282.437H307.553C309.085 282.437 310.289 283.641 310.289 285.173C310.289 286.705 309.085 287.908 307.553 287.908Z" fill="black"/>
<path d="M221.815 307.879H150.412C148.88 307.879 147.676 306.676 147.676 305.144C147.676 303.612 148.88 302.408 150.412 302.408H221.815C223.347 302.408 224.55 303.612 224.55 305.144C224.55 306.676 223.347 307.879 221.815 307.879Z" fill="black"/>
<path d="M250.485 327.686H150.412C148.88 327.686 147.676 326.483 147.676 324.951C147.676 323.419 148.88 322.215 150.412 322.215H250.485C252.017 322.215 253.221 323.419 253.221 324.951C253.221 326.483 252.017 327.686 250.485 327.686Z" fill="black"/>
<path d="M408.831 412.549C398.818 412.549 389.133 406.913 384.482 397.283L374.798 376.984C374.798 376.984 374.47 376.546 374.251 376.492L369.162 374.686C367.521 374.139 366.208 372.88 365.496 371.294C364.73 369.926 364.566 368.011 365.223 366.315L366.426 362.813C366.591 362.375 366.262 361.664 365.77 361.5L362.159 360.187C360.517 359.694 359.095 358.381 358.383 356.63C357.727 355.207 357.617 353.457 358.164 351.87L359.478 348.204C359.642 347.711 359.314 347.11 358.766 346.891L355.21 345.632C353.459 344.976 352.091 343.663 351.38 342.021C350.723 340.599 350.614 338.848 351.161 337.261L352.857 332.501C352.857 332.501 352.912 331.954 352.857 331.735L280.031 179.408C277.296 173.608 275.928 167.152 276.147 160.696L279.047 80.4835C279.156 75.9969 281.782 72.0027 285.831 70.0877C289.935 68.1727 294.695 68.6651 298.306 71.4556L361.557 120.097C366.591 123.982 370.64 129.016 373.321 134.597L384.756 158.507L446.201 287.033C446.201 287.033 446.529 287.47 446.748 287.525L451.563 289.221C453.095 289.768 454.353 290.863 455.119 292.34C455.995 293.872 456.159 295.787 455.502 297.593L454.244 301.149C454.08 301.641 454.408 302.353 454.901 302.517L458.457 303.775C460.153 304.377 461.466 305.581 462.123 307.113C462.889 308.481 463.053 310.451 462.397 312.147L461.193 315.649C461.083 316.032 461.193 316.305 461.193 316.469C461.302 316.633 461.466 316.852 461.795 316.962L465.406 318.22C467.047 318.767 468.47 320.08 469.181 321.777C469.838 323.09 469.947 324.841 469.4 326.537L467.649 331.625C467.485 332.063 467.594 332.337 467.649 332.446L477.334 352.691C480.452 359.147 480.835 366.479 478.483 373.263C476.075 380.048 471.206 385.465 464.695 388.584L420.266 409.868C416.545 411.619 412.606 412.494 408.721 412.494L408.831 412.549ZM291.084 74.3555C290.154 74.3555 289.169 74.5743 288.239 75.0121C285.995 76.0516 284.628 78.1855 284.573 80.6477L281.673 160.86C281.454 166.386 282.603 172.022 285.011 177.055L285.339 177.821L357.781 329.273C358.547 330.75 358.657 332.501 358.055 334.197L356.359 339.012C356.359 339.012 356.359 339.504 356.414 339.723C356.578 340.106 356.797 340.27 357.07 340.38L360.572 341.638C363.964 342.842 365.77 346.508 364.621 349.9L363.308 353.566C363.308 353.566 363.308 354.058 363.362 354.277C363.472 354.496 363.581 354.77 363.91 354.824L367.575 356.192C370.913 357.287 372.719 361.007 371.57 364.454L370.311 368.12C370.311 368.12 370.147 368.503 370.311 368.777C370.53 369.215 370.694 369.379 370.913 369.433L376.002 371.239C377.588 371.786 378.901 372.99 379.667 374.522L389.352 394.876C394.495 405.491 407.299 410.032 417.913 404.943L462.342 383.659C467.54 381.197 471.425 376.875 473.34 371.458C475.255 366.041 474.926 360.241 472.409 355.098L462.725 334.853C461.959 333.212 461.904 331.352 462.561 329.71L464.257 324.786C464.366 324.403 464.257 324.184 464.257 324.075C464.093 323.692 463.929 323.473 463.71 323.418L460.098 322.16C458.512 321.612 457.144 320.463 456.378 318.877C455.612 317.29 455.502 315.484 456.104 313.843L457.363 310.286C457.472 310.013 457.472 309.739 457.363 309.575C457.199 309.192 456.98 309.028 456.761 308.973L453.15 307.715C449.703 306.456 447.952 302.736 449.155 299.343L450.414 295.787C450.523 295.459 450.523 295.185 450.414 294.966C450.25 294.638 450.031 294.474 449.812 294.419L444.997 292.723C443.41 292.176 442.097 290.972 441.331 289.44L368.396 136.949C366.098 132.134 362.596 127.812 358.274 124.42L295.023 75.7781C293.82 74.8479 292.452 74.4102 291.029 74.4102L291.084 74.3555Z" fill="black"/>
<path d="M438.528 277.225L350.074 319.529L352.435 324.465L440.888 282.161L438.528 277.225Z" fill="black"/>
<path d="M382.676 386.778L380.159 381.909L468.196 339.778L470.822 344.593L470.603 344.702L382.676 386.778Z" fill="black"/>
<path d="M354.553 343.663H353.951L353.896 340.872L352.747 338.465L451.617 291.136L454.024 296.061L354.553 343.663Z" fill="black"/>
<path d="M369.107 372.607L368.013 370.255L366.043 368.23L366.809 367.683L381.199 360.844L466.773 320.136V322.926L467.977 325.334L369.107 372.607Z" fill="black"/>
<path d="M362.104 357.943L359.696 353.019L459.77 305.472L459.825 308.262L460.974 310.67L362.104 357.943Z" fill="black"/>
<path d="M327.195 176.892C320.082 176.892 313.188 172.897 309.905 166.058L314.83 163.651C318.113 170.435 326.265 173.28 333.05 170.107C339.78 166.879 342.625 158.726 339.397 151.996L344.321 149.644C348.862 159.109 344.813 170.545 335.402 175.086C332.776 176.344 329.986 176.946 327.25 176.946L327.195 176.892Z" fill="black"/>
<path d="M407.791 294.967L339.452 152.051C339.452 152.051 339.452 152.051 339.452 151.996L344.376 149.644C345.963 152.927 348.699 155.389 352.146 156.593C355.593 157.796 359.259 157.577 362.487 155.991C367.521 153.583 370.53 148.495 370.202 143.023C370.202 141.218 369.71 139.521 368.944 137.88L373.868 135.473C375.017 137.825 375.619 140.287 375.673 142.804C376.111 150.41 371.898 157.577 364.895 160.915C360.353 163.158 355.155 163.432 350.34 161.736C350.286 161.736 350.231 161.736 350.176 161.681L412.77 292.559L407.846 294.912L407.791 294.967Z" fill="black"/>
<path d="M378.299 309.083L315.705 178.205V178.314C314.009 183.129 310.562 187.014 305.911 189.202C299.072 192.485 290.919 191.336 285.174 186.357C283.204 184.661 281.618 182.582 280.523 180.229L285.448 177.876C286.268 179.572 287.363 180.995 288.785 182.253C292.889 185.865 298.689 186.631 303.613 184.333C306.896 182.746 309.358 180.01 310.562 176.563C311.766 173.171 311.547 169.505 310.015 166.277V166.167L314.884 163.815C314.884 163.815 314.884 163.924 314.939 163.979L383.278 306.839L378.354 309.192L378.299 309.083Z" fill="black"/>
<path d="M281.673 104.832H281.071L281.016 102.042L279.867 99.6341L312.368 84.0951L314.775 89.0194L281.673 104.832Z" fill="black"/>
</svg>
