<svg width="24" height="24" viewBox="0 0 24 24" fill="none" xmlns="http://www.w3.org/2000/svg">
<path d="M23.6012 21.7284L17.7153 15.8354C20.6747 11.9836 20.3787 6.41976 16.8275 2.89712C14.8874 0.954706 12.3884 0 9.85646 0C7.32458 0 4.82547 0.954761 2.88542 2.89712C-0.961806 6.74898 -0.961806 13.0041 2.88542 16.856C4.8255 18.7984 7.32452 19.7531 9.85646 19.7531C11.9609 19.7531 14.0654 19.0947 15.8081 17.7449L21.727 23.605C21.9901 23.8684 22.3189 24 22.6806 24C23.0094 24 23.3711 23.8683 23.6342 23.605C24.1273 23.1112 24.1273 22.2551 23.6012 21.7284ZM9.88928 17.0864C7.9492 17.0864 6.17359 16.3292 4.79253 14.9794C1.99754 12.1811 1.99754 7.60492 4.79253 4.77364C6.14068 3.42387 7.94923 2.66661 9.88928 2.66661C11.8294 2.66661 13.605 3.42387 14.986 4.77364C16.367 6.12341 17.0905 7.93414 17.0905 9.87653C17.0905 11.8189 16.3342 13.5967 14.986 14.9794C13.6378 16.3622 11.7965 17.0864 9.88928 17.0864Z" fill="black"/>
</svg>
