<svg width="24" height="25" viewBox="0 0 24 25" fill="none" xmlns="http://www.w3.org/2000/svg">
<g clip-path="url(#clip0_4020_3991)">
<path fill-rule="evenodd" clip-rule="evenodd" d="M12.5932 24.108L12.5822 24.11L12.5112 24.145L12.4912 24.149L12.4772 24.145L12.4062 24.11C12.3955 24.1067 12.3875 24.1084 12.3822 24.115L12.3782 24.125L12.3612 24.553L12.3662 24.573L12.3762 24.586L12.4802 24.66L12.4952 24.664L12.5072 24.66L12.6112 24.586L12.6232 24.57L12.6272 24.553L12.6102 24.126C12.6075 24.1154 12.6018 24.1094 12.5932 24.108ZM12.8582 23.995L12.8452 23.997L12.6602 24.09L12.6502 24.1L12.6472 24.111L12.6652 24.541L12.6702 24.553L12.6782 24.56L12.8792 24.653C12.8918 24.6564 12.9015 24.6537 12.9082 24.645L12.9122 24.631L12.8782 24.017C12.8748 24.005 12.8682 23.9977 12.8582 23.995ZM12.1432 23.997C12.1388 23.9944 12.1335 23.9935 12.1285 23.9946C12.1234 23.9957 12.119 23.9988 12.1162 24.003L12.1102 24.017L12.0762 24.631C12.0768 24.643 12.0825 24.651 12.0932 24.655L12.1082 24.653L12.3092 24.56L12.3192 24.552L12.3232 24.541L12.3402 24.111L12.3372 24.099L12.3272 24.089L12.1432 23.997Z" fill="#535862"/>
<path fill-rule="evenodd" clip-rule="evenodd" d="M8.993 19.6871C9.162 18.2641 8.931 16.7801 8.417 15.4481C7.848 13.9741 7.092 12.3781 6.998 10.7911C6.919 9.45412 7.222 7.87212 8.03 6.78912C8.915 5.60312 10.368 4.85012 11.967 4.85012H13.479C14.7333 4.85006 15.9418 5.32141 16.8648 6.1707C17.7878 7.01999 18.3579 8.18516 18.462 9.43512L18.823 13.7671C18.8345 13.905 18.8172 14.0438 18.7723 14.1746C18.7274 14.3055 18.6559 14.4256 18.5622 14.5274C18.4685 14.6292 18.3546 14.7104 18.2279 14.766C18.1012 14.8215 17.9644 14.8502 17.826 14.8501H12.5C11.669 14.8501 11.005 15.5231 10.999 16.3421C10.991 17.3121 11.052 18.5091 10.606 19.4021C10.206 20.2021 9.832 20.3501 9.5 20.3501C9.2 20.3501 8.96 19.9571 8.993 19.6871ZM9.5 22.3501C10.856 22.3501 11.794 21.4981 12.395 20.2971C12.917 19.2531 12.966 17.9971 12.992 16.8501H17.826C18.2411 16.8502 18.6516 16.7641 19.0317 16.5973C19.4118 16.4306 19.7532 16.1868 20.0342 15.8813C20.3153 15.5758 20.5298 15.2154 20.6644 14.8227C20.799 14.4301 20.8506 14.0137 20.816 13.6001L20.455 9.26912C20.3093 7.51921 19.5112 5.888 18.219 4.699C16.9268 3.51 15.235 2.85008 13.479 2.85012H11.967C11.0183 2.84772 10.0792 3.03984 9.20773 3.41462C8.33622 3.7894 7.55081 4.33888 6.9 5.02912C6.443 4.90924 5.97246 4.84874 5.5 4.84912C4.392 4.84912 3.472 5.47112 2.876 6.45912C2.296 7.41912 2 8.74312 2 10.3491C2 11.9551 2.297 13.2811 2.876 14.2411C3.472 15.2301 4.392 15.8501 5.5 15.8501C5.781 15.8501 6.079 15.8001 6.377 15.7161C6.835 16.9161 7.161 18.1531 7.007 19.4511C6.835 20.8961 8.016 22.3501 9.5 22.3501ZM5.696 13.8261C5.211 13.9261 4.831 13.6101 4.589 13.2081C4.263 12.6681 4 11.7441 4 10.3501C4 8.95612 4.263 8.03112 4.588 7.49112C4.898 6.97912 5.228 6.85012 5.5 6.85012C5.564 6.85012 5.62733 6.85179 5.69 6.85512C5.154 8.06312 4.924 9.59512 5.002 10.9091C5.049 11.7141 5.363 12.8271 5.696 13.8261Z" fill="#535862"/>
</g>
<defs>
<clipPath id="clip0_4020_3991">
<rect width="24" height="24" fill="white" transform="translate(0 0.850098)"/>
</clipPath>
</defs>
</svg>
