<svg width="24" height="25" viewBox="0 0 24 25" fill="none" xmlns="http://www.w3.org/2000/svg">
<g clip-path="url(#clip0_4020_3987)">
<path fill-rule="evenodd" clip-rule="evenodd" d="M12.5932 24.108L12.5822 24.11L12.5112 24.145L12.4912 24.149L12.4772 24.145L12.4062 24.11C12.3955 24.1067 12.3875 24.1084 12.3822 24.115L12.3782 24.125L12.3612 24.553L12.3662 24.573L12.3762 24.586L12.4802 24.66L12.4952 24.664L12.5072 24.66L12.6112 24.586L12.6232 24.57L12.6272 24.553L12.6102 24.126C12.6075 24.1154 12.6018 24.1094 12.5932 24.108ZM12.8582 23.995L12.8452 23.997L12.6602 24.09L12.6502 24.1L12.6472 24.111L12.6652 24.541L12.6702 24.553L12.6782 24.56L12.8792 24.653C12.8918 24.6564 12.9015 24.6537 12.9082 24.645L12.9122 24.631L12.8782 24.017C12.8748 24.005 12.8682 23.9977 12.8582 23.995ZM12.1432 23.997C12.1388 23.9944 12.1335 23.9935 12.1285 23.9946C12.1234 23.9957 12.119 23.9988 12.1162 24.003L12.1102 24.017L12.0762 24.631C12.0768 24.643 12.0825 24.651 12.0932 24.655L12.1082 24.653L12.3092 24.56L12.3192 24.552L12.3232 24.541L12.3402 24.111L12.3372 24.099L12.3272 24.089L12.1432 23.997Z" fill="#535862"/>
<path fill-rule="evenodd" clip-rule="evenodd" d="M8.993 6.0131C9.162 7.4361 8.931 8.9201 8.417 10.2521C7.848 11.7261 7.092 13.3221 6.998 14.9091C6.919 16.2461 7.222 17.8281 8.03 18.9111C8.915 20.0971 10.368 20.8501 11.967 20.8501H13.479C14.7333 20.8502 15.9418 20.3788 16.8648 19.5295C17.7878 18.6802 18.3579 17.5151 18.462 16.2651L18.823 11.9331C18.8345 11.7952 18.8172 11.6565 18.7723 11.5256C18.7274 11.3947 18.6559 11.2746 18.5622 11.1728C18.4685 11.071 18.3546 10.9898 18.2279 10.9342C18.1012 10.8787 17.9644 10.85 17.826 10.8501H12.5C12.1036 10.8496 11.7235 10.6925 11.4424 10.4131C11.1613 10.1336 11.0019 9.75446 10.999 9.3581C10.991 8.3881 11.052 7.1911 10.606 6.2981C10.206 5.4981 9.832 5.3501 9.5 5.3501C9.2 5.3501 8.96 5.7431 8.993 6.0131ZM9.5 3.3501C10.856 3.3501 11.794 4.2021 12.395 5.4031C12.917 6.4481 12.966 7.7031 12.992 8.8501H17.826C18.2411 8.85004 18.6516 8.93611 19.0317 9.10287C19.4118 9.26964 19.7532 9.51346 20.0342 9.81893C20.3153 10.1244 20.5298 10.4849 20.6644 10.8775C20.799 11.2702 20.8506 11.6865 20.816 12.1001L20.455 16.4311C20.3093 18.181 19.5112 19.8122 18.219 21.0012C16.9268 22.1902 15.235 22.8501 13.479 22.8501H11.967C11.0184 22.8526 10.0794 22.6607 9.20785 22.2861C8.33635 21.9114 7.5509 21.3622 6.9 20.6721C6.44291 20.7913 5.97237 20.8511 5.5 20.8501C4.392 20.8501 3.472 20.2301 2.876 19.2421C2.296 18.2821 2 16.9571 2 15.3501C2 13.7431 2.297 12.4191 2.876 11.4591C3.472 10.4701 4.392 9.8501 5.5 9.8501C5.781 9.8501 6.079 9.9001 6.377 9.9841C6.835 8.7841 7.161 7.5471 7.007 6.2491C6.835 4.8041 8.016 3.3501 9.5 3.3501ZM5.696 11.8741C5.211 11.7741 4.831 12.0901 4.589 12.4921C4.263 13.0321 4 13.9561 4 15.3501C4 16.7441 4.263 17.6691 4.588 18.2091C4.898 18.7211 5.228 18.8501 5.5 18.8501C5.564 18.8501 5.62733 18.8484 5.69 18.8451C5.154 17.6371 4.924 16.1051 5.002 14.7911C5.049 13.9861 5.363 12.8731 5.696 11.8741Z" fill="#535862"/>
</g>
<defs>
<clipPath id="clip0_4020_3987">
<rect width="24" height="24" fill="white" transform="translate(0 0.850098)"/>
</clipPath>
</defs>
</svg>
