<svg width="50" height="55" viewBox="0 0 50 55" fill="none" xmlns="http://www.w3.org/2000/svg">
<g style="mix-blend-mode:multiply">
<path d="M49.2676 27.7267L44.3373 22.7915C44.0725 22.5265 43.7078 22.3734 43.3312 22.3734H26.5753V17.9388H44.9315C45.714 17.9388 46.3553 17.2968 46.3553 16.5135V5.18846C46.3553 4.40518 45.714 3.76325 44.9315 3.76325H26.5753V1.26031C26.5753 0.565371 26.0105 0 25.3163 0H20.4036C19.7153 0 19.1505 0.565371 19.1505 1.26031V3.76325H6.62471C6.24229 3.76325 5.8834 3.91048 5.61865 4.18139L0.694241 9.11661C0.247103 9.5583 0 10.1472 0 10.7715C0 11.4016 0.241219 11.9965 0.688358 12.4441L5.75985 17.5206C6.03048 17.7915 6.38349 17.9388 6.76591 17.9388H19.1446V22.4087H1.5944C1.16491 22.4087 0.764842 22.5736 0.464788 22.8799C0.158852 23.1861 0 23.5866 0 24.0224L0.117668 35.0118C0.123551 35.8834 0.841326 36.5901 1.71207 36.5901H19.1505V53.7397C19.1505 54.4346 19.7153 55 20.4036 55H25.3163C26.0105 55 26.5753 54.4346 26.5753 53.7397V36.5548H43.19C43.5724 36.5548 43.9313 36.4075 44.1961 36.1366L49.2676 31.0601C50.1795 30.1413 50.1795 28.6455 49.2676 27.7267ZM9.41932 17.3498C9.19575 17.3498 8.98395 17.2615 8.8251 17.1084L3.75361 12.0318C3.41825 11.6961 3.23587 11.2485 3.23587 10.7774C3.23587 10.3062 3.41825 9.86455 3.75361 9.53475L8.67801 4.59364C8.83098 4.44052 9.04867 4.35218 9.27224 4.35218H20.1918C20.6507 4.35218 21.0273 4.72909 21.0273 5.18846V16.5135C21.0273 16.9729 20.6507 17.3498 20.1918 17.3498H9.41932ZM19.1505 35.9953H4.3596C3.80656 35.9953 3.35942 35.5477 3.35354 35.0059L3.23587 24.0165C3.23587 23.7456 3.33589 23.4923 3.53004 23.298C3.71831 23.1037 3.97129 23.0035 4.24193 23.0035H20.1918C20.6507 23.0035 21.0273 23.3804 21.0273 23.8398V35.1649C21.0273 35.6243 20.6507 36.0012 20.1918 36.0012H19.1505V35.9953ZM25.987 53.7338C25.987 54.1048 25.6869 54.4052 25.3163 54.4052H22.8629V0.588928H25.3163C25.6869 0.588928 25.987 0.889282 25.987 1.26031V53.7338ZM44.9315 4.35218C45.3904 4.35218 45.767 4.72909 45.767 5.18846V16.5135C45.767 16.9729 45.3904 17.3498 44.9315 17.3498H26.5753V4.35218H44.9315ZM48.8557 30.6419L43.7842 35.7185C43.6254 35.8775 43.4195 35.96 43.19 35.96H26.5753V22.9623H43.3312C43.5548 22.9623 43.7666 23.0506 43.9255 23.2038L48.8557 28.139C49.5441 28.828 49.5441 29.947 48.8557 30.636V30.6419Z" fill="black"/>
</g>
</svg>
